<?xml version="1.0" encoding="utf-8"?>
<!-- Generator: Adobe Illustrator 24.3.0, SVG Export Plug-In . SVG Version: 6.00 Build 0)  -->
<svg version="1.1" id="Layer_1" xmlns="http://www.w3.org/2000/svg" xmlns:xlink="http://www.w3.org/1999/xlink" x="0px" y="0px"
	 viewBox="0 0 583.46 474.35" style="enable-background:new 0 0 583.46 474.35;" xml:space="preserve">
<style type="text/css">
	.st0{fill:#939598;}
	.st1{fill:#ED1C24;}
	.st2{fill:none;stroke:#000000;stroke-miterlimit:10;}
	.st3{fill:#FFF200;}
	.st4{fill:#662D91;}
	.st5{fill:#00A651;}
	.st6{fill:none;stroke:#000000;stroke-width:2;stroke-miterlimit:10;}
	.st7{font-family:'ArialMT';}
	.st8{font-size:9.8516px;}
	.st9{fill:#FFFFFF;}
	.st10{fill:none;}
	.st11{font-size:16px;}
	.st12{fill:none;stroke:#00749F;stroke-width:2;stroke-miterlimit:10;}
	.st13{fill:#00749F;}
	.st14{fill:none;stroke:#EB851D;stroke-width:2;stroke-miterlimit:10;}
	.st15{fill:#EB851D;}
	.st16{font-family:'MyriadPro-Regular';}
	.st17{fill:none;stroke:#726658;stroke-width:2;stroke-miterlimit:10;}
	.st18{fill:#726658;}
	.st19{fill:none;stroke:#594A42;stroke-width:2;stroke-miterlimit:10;}
	.st20{fill:#594A42;}
	.st21{fill:none;stroke:#C49A6C;stroke-width:2;stroke-miterlimit:10;}
	.st22{fill:#C49A6C;}
	.st23{font-size:19px;}
	.st24{fill:none;stroke:#000000;stroke-width:3;stroke-miterlimit:10;}
	.st25{opacity:0.5;fill:#C2B59B;}
	.st26{opacity:0.5;fill:#9B8579;}
	.st27{opacity:0.5;fill:#726658;}
	.st28{opacity:0.5;fill:#594A42;}
	.st29{opacity:0.5;fill:#C49A6C;}
	.st30{clip-path:url(#SVGID_2_);fill:none;stroke:#BE1E2D;stroke-width:3;stroke-linecap:square;stroke-linejoin:round;}
</style>
<rect x="402.25" y="84.07" class="st0" width="80.38" height="138.39"/>
<rect x="236" y="20.36" class="st1" width="22.19" height="3.8"/>
<rect x="236" y="20.36" class="st2" width="22.19" height="3.8"/>
<rect x="236.53" y="27.55" transform="matrix(0.866 -0.5 0.5 0.866 18.4491 127.7514)" class="st1" width="22.19" height="3.79"/>
<rect x="236.53" y="27.55" transform="matrix(0.866 -0.5 0.5 0.866 18.4491 127.7514)" class="st2" width="22.19" height="3.79"/>
<rect x="245.73" y="3.97" transform="matrix(0.5 -0.866 0.866 0.5 110.7762 221.9919)" class="st1" width="3.79" height="22.19"/>
<rect x="245.73" y="3.97" transform="matrix(0.5 -0.866 0.866 0.5 110.7762 221.9919)" class="st2" width="3.79" height="22.19"/>
<rect x="151.46" y="144.41" class="st3" width="22.19" height="3.79"/>
<rect x="151.46" y="144.41" class="st2" width="22.19" height="3.79"/>
<rect x="124.56" y="144.41" class="st3" width="22.19" height="3.79"/>
<rect x="124.56" y="144.41" class="st2" width="22.19" height="3.79"/>
<g>
	<path class="st3" d="M149.1,159.76c-7.43,0-13.45-6.02-13.45-13.45c0-7.43,6.02-13.45,13.45-13.45c7.43,0,13.45,6.02,13.45,13.45
		C162.56,153.74,156.53,159.76,149.1,159.76"/>
	<path class="st2" d="M149.1,159.76c-7.43,0-13.45-6.02-13.45-13.45c0-7.43,6.02-13.45,13.45-13.45c7.43,0,13.45,6.02,13.45,13.45
		C162.56,153.74,156.53,159.76,149.1,159.76z"/>
	<polyline class="st1" points="262.9,20.36 285.09,20.36 285.09,24.15 262.9,24.15 	"/>
	<polyline class="st2" points="262.9,20.36 285.09,20.36 285.09,24.15 262.9,24.15 	"/>
	<polyline class="st1" points="262.9,18.97 282.12,7.88 284.02,11.16 264.8,22.26 	"/>
	<polyline class="st2" points="262.9,18.97 282.12,7.88 284.02,11.16 264.8,22.26 	"/>
	<polyline class="st1" points="264.8,22.26 284.02,33.35 282.12,36.64 262.9,25.54 	"/>
	<polyline class="st2" points="264.8,22.26 284.02,33.35 282.12,36.64 262.9,25.54 	"/>
	<path class="st1" d="M260.54,35.71c-7.43,0-13.45-6.02-13.45-13.45c0-7.43,6.02-13.45,13.45-13.45c7.43,0,13.45,6.02,13.45,13.45
		C274,29.69,267.97,35.71,260.54,35.71"/>
	<path class="st2" d="M260.54,35.71c-7.43,0-13.45-6.02-13.45-13.45c0-7.43,6.02-13.45,13.45-13.45c7.43,0,13.45,6.02,13.45,13.45
		C274,29.69,267.97,35.71,260.54,35.71z"/>
	<rect x="436.84" y="106.52" class="st4" width="22.19" height="3.79"/>
	<rect x="436.84" y="106.52" class="st2" width="22.19" height="3.79"/>
	<rect x="437.38" y="113.71" transform="matrix(0.866 -0.5 0.5 0.866 2.2746 239.7102)" class="st4" width="22.19" height="3.79"/>
	<rect x="437.38" y="113.71" transform="matrix(0.866 -0.5 0.5 0.866 2.2746 239.7102)" class="st2" width="22.19" height="3.79"/>
	<rect x="446.58" y="90.13" transform="matrix(0.5 -0.866 0.866 0.5 136.5846 439.0186)" class="st4" width="3.79" height="22.19"/>
	<rect x="446.58" y="90.13" transform="matrix(0.5 -0.866 0.866 0.5 136.5846 439.0186)" class="st2" width="3.79" height="22.19"/>
	<path class="st4" d="M461.39,121.87c-7.43,0-13.45-6.02-13.45-13.45c0-7.43,6.02-13.45,13.45-13.45c7.43,0,13.45,6.02,13.45,13.45
		C474.84,115.85,468.82,121.87,461.39,121.87"/>
	<path class="st2" d="M461.39,121.87c-7.43,0-13.45-6.02-13.45-13.45c0-7.43,6.02-13.45,13.45-13.45c7.43,0,13.45,6.02,13.45,13.45
		C474.84,115.85,468.82,121.87,461.39,121.87z"/>
	<rect x="151.46" y="51.71" class="st3" width="22.19" height="3.79"/>
	<rect x="151.46" y="51.71" class="st2" width="22.19" height="3.79"/>
	<rect x="124.56" y="51.71" class="st3" width="22.19" height="3.79"/>
	<rect x="124.56" y="51.71" class="st2" width="22.19" height="3.79"/>
	<path class="st3" d="M149.1,67.06c-7.43,0-13.45-6.02-13.45-13.45c0-7.43,6.02-13.45,13.45-13.45c7.43,0,13.45,6.02,13.45,13.45
		C162.56,61.04,156.53,67.06,149.1,67.06"/>
	<path class="st2" d="M149.1,67.06c-7.43,0-13.45-6.02-13.45-13.45c0-7.43,6.02-13.45,13.45-13.45c7.43,0,13.45,6.02,13.45,13.45
		C162.56,61.04,156.53,67.06,149.1,67.06z"/>
	<rect x="151.46" y="237.11" class="st3" width="22.19" height="3.79"/>
	<rect x="151.46" y="237.11" class="st2" width="22.19" height="3.79"/>
	<rect x="124.56" y="237.11" class="st3" width="22.19" height="3.79"/>
	<rect x="124.56" y="237.11" class="st2" width="22.19" height="3.79"/>
	<path class="st3" d="M149.1,252.46c-7.43,0-13.45-6.02-13.45-13.45c0-7.43,6.02-13.45,13.45-13.45c7.43,0,13.45,6.02,13.45,13.45
		C162.56,246.44,156.53,252.46,149.1,252.46"/>
	<circle class="st2" cx="149.1" cy="239.01" r="13.45"/>
	<polyline class="st5" points="363.32,111.25 341.13,111.25 341.13,107.45 363.32,107.45 	"/>
	<polyline class="st2" points="363.32,111.25 341.13,111.25 341.13,107.45 363.32,107.45 	"/>
	<polyline class="st5" points="363.32,112.64 344.11,123.73 342.21,120.44 361.43,109.35 	"/>
	<polyline class="st2" points="363.32,112.64 344.11,123.73 342.21,120.44 361.43,109.35 	"/>
	<polyline class="st5" points="361.43,109.35 342.21,98.25 344.11,94.97 363.32,106.06 	"/>
	<polyline class="st2" points="361.43,109.35 342.21,98.25 344.11,94.97 363.32,106.06 	"/>
	<rect x="368.04" y="107.45" class="st5" width="22.19" height="3.79"/>
	<rect x="368.04" y="107.45" class="st2" width="22.19" height="3.79"/>
	<path class="st5" d="M365.68,122.8c-7.43,0-13.45-6.02-13.45-13.45c0-7.43,6.02-13.45,13.45-13.45c7.43,0,13.45,6.02,13.45,13.45
		C379.13,116.78,373.11,122.8,365.68,122.8"/>
	<path class="st2" d="M365.68,122.8c-7.43,0-13.45-6.02-13.45-13.45c0-7.43,6.02-13.45,13.45-13.45c7.43,0,13.45,6.02,13.45,13.45
		C379.13,116.78,373.11,122.8,365.68,122.8z"/>
	<polyline class="st5" points="365.68,202.05 343.49,202.05 343.49,198.25 365.68,198.25 	"/>
	<polyline class="st2" points="365.68,202.05 343.49,202.05 343.49,198.25 365.68,198.25 	"/>
	<polyline class="st5" points="365.68,203.44 346.46,214.53 344.57,211.25 363.78,200.15 	"/>
	<polyline class="st2" points="365.68,203.44 346.46,214.53 344.57,211.25 363.78,200.15 	"/>
	<polyline class="st5" points="363.78,200.15 344.57,189.06 346.46,185.77 365.68,196.87 	"/>
	<polyline class="st2" points="363.78,200.15 344.57,189.06 346.46,185.77 365.68,196.87 	"/>
	<rect x="370.4" y="198.25" class="st5" width="22.19" height="3.79"/>
	<rect x="370.4" y="198.25" class="st2" width="22.19" height="3.79"/>
	<path class="st5" d="M368.04,213.6c-7.43,0-13.45-6.02-13.45-13.45c0-7.43,6.02-13.45,13.45-13.45c7.43,0,13.45,6.02,13.45,13.45
		C381.49,207.58,375.47,213.6,368.04,213.6"/>
	<path class="st2" d="M368.04,213.6c-7.43,0-13.45-6.02-13.45-13.45c0-7.43,6.02-13.45,13.45-13.45c7.43,0,13.45,6.02,13.45,13.45
		C381.49,207.58,375.47,213.6,368.04,213.6z"/>
	<rect x="238.35" y="103.9" class="st1" width="22.19" height="3.79"/>
	<rect x="238.35" y="103.9" class="st2" width="22.19" height="3.79"/>
	<rect x="238.89" y="111.1" transform="matrix(0.866 -0.5 0.5 0.866 -23.0052 140.1215)" class="st1" width="22.19" height="3.79"/>
	<rect x="238.89" y="111.1" transform="matrix(0.866 -0.5 0.5 0.866 -23.0052 140.1215)" class="st2" width="22.19" height="3.79"/>
	<rect x="248.09" y="87.52" transform="matrix(0.5 -0.866 0.866 0.5 39.6006 265.8096)" class="st1" width="3.79" height="22.19"/>
	<rect x="248.09" y="87.52" transform="matrix(0.5 -0.866 0.866 0.5 39.6006 265.8096)" class="st2" width="3.79" height="22.19"/>
	<polyline class="st1" points="265.26,103.9 287.45,103.9 287.45,107.7 265.26,107.7 	"/>
	<polyline class="st2" points="265.26,103.9 287.45,103.9 287.45,107.7 265.26,107.7 	"/>
	<polyline class="st1" points="265.26,102.52 284.48,91.42 286.37,94.71 267.16,105.8 	"/>
	<polyline class="st2" points="265.26,102.52 284.48,91.42 286.37,94.71 267.16,105.8 	"/>
	<polyline class="st1" points="267.16,105.8 286.37,116.9 284.48,120.18 265.26,109.09 	"/>
	<polyline class="st2" points="267.16,105.8 286.37,116.9 284.48,120.18 265.26,109.09 	"/>
	<path class="st1" d="M262.9,119.25c-7.43,0-13.45-6.02-13.45-13.45c0-7.43,6.02-13.45,13.45-13.45c7.43,0,13.45,6.02,13.45,13.45
		C276.35,113.23,270.33,119.25,262.9,119.25"/>
	<path class="st2" d="M262.9,119.25c-7.43,0-13.45-6.02-13.45-13.45c0-7.43,6.02-13.45,13.45-13.45c7.43,0,13.45,6.02,13.45,13.45
		C276.35,113.23,270.33,119.25,262.9,119.25z"/>
	<rect x="238.35" y="184.8" class="st1" width="22.19" height="3.79"/>
	<rect x="238.35" y="184.8" class="st2" width="22.19" height="3.79"/>
	
		<rect x="238.89" y="191.99" transform="matrix(0.866 -0.5 0.5 0.866 -63.4516 150.9576)" class="st1" width="22.19" height="3.79"/>
	
		<rect x="238.89" y="191.99" transform="matrix(0.866 -0.5 0.5 0.866 -63.4516 150.9576)" class="st2" width="22.19" height="3.79"/>
	
		<rect x="248.09" y="168.41" transform="matrix(0.5 -0.866 0.866 0.5 -30.4605 306.2619)" class="st1" width="3.79" height="22.19"/>
	
		<rect x="248.09" y="168.41" transform="matrix(0.5 -0.866 0.866 0.5 -30.4605 306.2619)" class="st2" width="3.79" height="22.19"/>
	<polyline class="st1" points="265.26,184.8 287.45,184.8 287.45,188.6 265.26,188.6 	"/>
	<polyline class="st2" points="265.26,184.8 287.45,184.8 287.45,188.6 265.26,188.6 	"/>
	<polyline class="st1" points="265.26,183.41 284.48,172.32 286.37,175.6 267.16,186.7 	"/>
	<polyline class="st2" points="265.26,183.41 284.48,172.32 286.37,175.6 267.16,186.7 	"/>
	<polyline class="st1" points="267.16,186.7 286.37,197.79 284.48,201.08 265.26,189.99 	"/>
	<polyline class="st2" points="267.16,186.7 286.37,197.79 284.48,201.08 265.26,189.99 	"/>
	<path class="st1" d="M262.9,200.15c-7.43,0-13.45-6.02-13.45-13.45c0-7.43,6.02-13.45,13.45-13.45c7.43,0,13.45,6.02,13.45,13.45
		C276.35,194.13,270.33,200.15,262.9,200.15"/>
	<path class="st2" d="M262.9,200.15c-7.43,0-13.45-6.02-13.45-13.45c0-7.43,6.02-13.45,13.45-13.45c7.43,0,13.45,6.02,13.45,13.45
		C276.35,194.13,270.33,200.15,262.9,200.15z"/>
	<rect x="436.84" y="197.65" class="st4" width="22.19" height="3.79"/>
	<rect x="436.84" y="197.65" class="st2" width="22.19" height="3.79"/>
	
		<rect x="437.38" y="204.84" transform="matrix(0.866 -0.5 0.5 0.866 -43.2846 251.9159)" class="st4" width="22.19" height="3.79"/>
	
		<rect x="437.38" y="204.84" transform="matrix(0.866 -0.5 0.5 0.866 -43.2846 251.9159)" class="st2" width="22.19" height="3.79"/>
	<rect x="446.58" y="181.26" transform="matrix(0.5 -0.866 0.866 0.5 57.6675 484.5849)" class="st4" width="3.79" height="22.19"/>
	<rect x="446.58" y="181.26" transform="matrix(0.5 -0.866 0.866 0.5 57.6675 484.5849)" class="st2" width="3.79" height="22.19"/>
	<path class="st4" d="M461.39,213c-7.43,0-13.45-6.02-13.45-13.45c0-7.43,6.02-13.45,13.45-13.45c7.43,0,13.45,6.02,13.45,13.45
		C474.84,206.97,468.82,213,461.39,213"/>
	<path class="st2" d="M461.39,213c-7.43,0-13.45-6.02-13.45-13.45c0-7.43,6.02-13.45,13.45-13.45c7.43,0,13.45,6.02,13.45,13.45
		C474.84,206.97,468.82,213,461.39,213z"/>
	<rect x="9.44" y="101.39" class="st6" width="100.2" height="75.27"/>
	<line class="st6" x1="22.96" y1="126.08" x2="22.96" y2="113.68"/>
	<path d="M28.25,113.95c0-2.92-2.37-5.29-5.29-5.29c-2.92,0-5.29,2.37-5.29,5.29c0,2.92,2.37,5.29,5.29,5.29
		C25.88,119.24,28.25,116.87,28.25,113.95"/>
	<line class="st6" x1="22.69" y1="150.34" x2="22.69" y2="133.62"/>
	<rect x="18.12" y="132.92" width="9.15" height="1.41"/>
</g>
<text transform="matrix(1 0 0 1 37.6277 119.8791)"><tspan x="0" y="0" class="st7 st8">E</tspan><tspan x="6.57" y="0" class="st7 st8">x</tspan><tspan x="11.36" y="0" class="st7 st8">cit</tspan><tspan x="21.21" y="0" class="st7 st8">a</tspan><tspan x="26.66" y="0" class="st7 st8">t</tspan><tspan x="29.34" y="0" class="st7 st8">o</tspan><tspan x="34.82" y="0" class="st7 st8">r</tspan><tspan x="38.34" y="0" class="st7 st8">y</tspan></text>
<text transform="matrix(1 0 0 1 38.3767 144.8332)"><tspan x="0" y="0" class="st7 st8">I</tspan><tspan x="2.84" y="0" class="st7 st8">nhibi</tspan><tspan x="23.65" y="0" class="st7 st8">t</tspan><tspan x="26.34" y="0" class="st7 st8">o</tspan><tspan x="31.82" y="0" class="st7 st8">r</tspan><tspan x="35.34" y="0" class="st7 st8">y</tspan></text>
<g>
	<line class="st6" x1="22.69" y1="173" x2="22.69" y2="161.27"/>
	<path class="st9" d="M27.98,161.57c0-2.92-2.37-5.29-5.29-5.29c-2.92,0-5.29,2.37-5.29,5.29c0,2.92,2.37,5.29,5.29,5.29
		C25.61,166.86,27.98,164.49,27.98,161.57"/>
	<path d="M28.69,161.57c0,3.31-2.69,5.99-5.99,5.99c-3.31,0-6-2.69-6-5.99c0-3.31,2.69-6,6-6C26,155.57,28.69,158.26,28.69,161.57
		C28.69,164.88,28.69,158.26,28.69,161.57 M18.1,161.57c0,2.53,2.06,4.59,4.59,4.59c2.53,0,4.59-2.06,4.59-4.59
		c0-2.53-2.06-4.59-4.59-4.59C20.16,156.98,18.1,159.04,18.1,161.57C18.1,164.1,18.1,159.04,18.1,161.57"/>
</g>
<g>
	<path class="st10" d="M81.62,179.31"/>
</g>
<g>
	<path class="st10" d="M346.65,90.16"/>
</g>
<g>
	<path class="st10" d="M50.15,41.41"/>
</g>
<text transform="matrix(1 0 0 1 131.111 276.1761)" class="st7 st11">Bipolar</text>
<text transform="matrix(1 0 0 1 233.4049 275.0377)" class="st7 st11">Amacrine</text>
<text transform="matrix(1 0 0 1 337.0301 273.1119)" class="st7 st11">Ganglion</text>
<text transform="matrix(1 0 0 1 431.2571 272.9579)" class="st7 st11">Linear</text>
<g>
	<g>
		<line class="st12" x1="500.59" y1="118.18" x2="542.87" y2="118.18"/>
		<g>
			<polygon class="st13" points="538.91,123.99 560.59,118.18 538.91,112.37 			"/>
		</g>
	</g>
</g>
<g>
	<g>
		<line class="st14" x1="554.99" y1="204.48" x2="512.7" y2="204.48"/>
		<g>
			<polygon class="st15" points="516.67,198.67 494.99,204.48 516.67,210.29 			"/>
		</g>
	</g>
</g>
<text transform="matrix(1 0 0 1 500.5939 107.6985)" class="st7 st11">Right</text>
<text transform="matrix(1 0 0 1 501.6581 192.3532)" class="st7 st11">Left</text>
<text transform="matrix(1 0 0 1 38.3766 166.464)" class="st16 st8">Nonspecific</text>
<g>
	<path d="M175.68,52.79c18.19-10.24,36.38-18.4,54.57-28.64"/>
	<g>
		<path class="st17" d="M175.68,52.79c16.11-9.07,32.21-16.5,48.32-25.19"/>
		<g>
			<path class="st18" d="M227.21,34.34c3.66-1.97,5.02-6.53,3.05-10.19c-1.97-3.65-6.53-5.02-10.19-3.05
				c-3.65,1.97-5.02,6.53-3.05,10.19C218.99,34.95,223.55,36.31,227.21,34.34z"/>
		</g>
	</g>
</g>
<g>
	<path d="M178.85,147.01c18.19-10.24,36.38-16.59,54.57-26.83"/>
	<g>
		<path class="st19" d="M178.85,147.01c16.1-9.06,32.19-15.07,48.29-23.43"/>
		<g>
			<path class="st20" d="M230.37,130.37c3.66-1.97,5.02-6.53,3.06-10.19s-6.53-5.02-10.19-3.06c-3.66,1.97-5.02,6.53-3.06,10.19
				C222.16,130.97,226.72,132.34,230.37,130.37z"/>
		</g>
	</g>
</g>
<g>
	<path d="M178.85,237.11c18.19-10.24,40.03-27.7,58.22-37.94"/>
	<g>
		<path class="st21" d="M178.85,237.11c16.18-9.11,35.25-23.93,52.07-34.3"/>
		<g>
			<path class="st22" d="M234.45,209.48c3.57-2.12,4.74-6.74,2.62-10.31c-2.12-3.57-6.74-4.74-10.31-2.62
				c-3.57,2.12-4.74,6.74-2.62,10.31S230.88,211.6,234.45,209.48z"/>
		</g>
	</g>
</g>
<g>
	<g>
		<path class="st17" d="M178.89,53.71c24.75,2.99,52.92,7.94,83.46,16.05c24.93,6.62,47.38,14.28,67.21,22.1"/>
		<g>
			<path class="st18" d="M326.45,98.79c3.87,1.51,8.23-0.4,9.74-4.26c1.51-3.87-0.4-8.23-4.26-9.74c-3.87-1.51-8.23,0.4-9.74,4.26
				C320.68,92.92,322.59,97.28,326.45,98.79z"/>
		</g>
	</g>
</g>
<g>
	<g>
		<path class="st17" d="M175.68,55.55c21.71,4.03,51.38,10.84,85.76,22.93c23.49,8.26,30.4,12.38,33.94,14.68
			c11.43,7.42,32.63,32.13,43.19,85.91"/>
		<g>
			<path class="st18" d="M331.07,180.11c0.78,4.08,4.71,6.76,8.79,5.98c4.08-0.78,6.76-4.71,5.98-8.79
				c-0.78-4.08-4.71-6.76-8.79-5.98C332.97,172.09,330.3,176.03,331.07,180.11z"/>
		</g>
	</g>
</g>
<g>
	<g>
		<path class="st19" d="M176.6,146.35c18.39,2.7,48.19,4.78,83.46-3.21c30.21-6.85,53.56-18.62,69.19-28.26"/>
		<g>
			<path class="st20" d="M332.97,121.42c3.5-2.23,4.53-6.88,2.3-10.38c-2.23-3.5-6.88-4.53-10.38-2.3c-3.5,2.23-4.53,6.88-2.3,10.38
				C324.82,122.62,329.47,123.65,332.97,121.42z"/>
		</g>
	</g>
</g>
<g>
	<g>
		<path class="st21" d="M176.14,238.99c12.68,3.06,48.78,9.95,87.13-7.8c53.98-24.98,70.79-79.5,75.24-99.38"/>
		<g>
			<path class="st22" d="M345.74,133.66c0.83-4.07-1.81-8.04-5.88-8.86c-4.07-0.83-8.04,1.81-8.86,5.88
				c-0.83,4.07,1.81,8.04,5.88,8.86S344.91,137.73,345.74,133.66z"/>
		</g>
	</g>
</g>
<g>
	<g>
		<path class="st19" d="M177.06,149.1c11.9-4.06,65.33-20.85,117.86,6.88c18.33,9.67,29.08,29.94,37.21,42.63"/>
		<g>
			<path class="st20" d="M325.74,202.53c2.35,3.43,7.03,4.3,10.45,1.95c3.43-2.35,4.3-7.03,1.95-10.45
				c-2.35-3.43-7.03-4.3-10.45-1.95C324.27,194.42,323.39,199.1,325.74,202.53z"/>
		</g>
	</g>
</g>
<g>
	<g>
		<path class="st21" d="M177.06,243.11c14.58,4.98,45.61,13.4,84.38,6.88c34.12-5.74,58.85-20.47,72.73-30.54"/>
		<g>
			<path class="st22" d="M338.37,225.67c3.32-2.5,3.99-7.21,1.49-10.53c-2.5-3.32-7.21-3.99-10.53-1.49
				c-3.32,2.5-3.99,7.21-1.49,10.53C330.34,227.5,335.05,228.16,338.37,225.67z"/>
		</g>
	</g>
</g>
<g>
	<g>
		<path class="st17" d="M288.96,19.78c8.58,1.31,38.1,6.89,60.08,33.02c12.25,14.56,17.28,29.71,19.49,38.93"/>
		<g>
			
				<rect x="362.01" y="90.72" transform="matrix(0.9703 -0.2421 0.2421 0.9703 -11.2432 91.932)" class="st18" width="13" height="2"/>
		</g>
	</g>
</g>
<g>
	<g>
		<path class="st17" d="M286.67,36.74c1.99,14.88,9.44,67.54,22.93,99.06c3.47,8.1,6.38,12.58,11.01,16.05
			c13.84,10.37,29.14,1.28,42.19,10.55c4.19,2.98,9.6,8.87,12.2,21.95"/>
		<g>
			
				<rect x="368.46" y="183.35" transform="matrix(0.9758 -0.2185 0.2185 0.9758 -31.2233 86.3916)" class="st18" width="13" height="2"/>
		</g>
	</g>
</g>
<g>
	<g>
		<path class="st19" d="M287.12,91.32c7.19-16.37,24.13-25.87,40.82-23.39c13.95,2.08,25.73,12.24,30.42,26.11"/>
		<g>
			
				<rect x="351.84" y="93.04" transform="matrix(0.9442 -0.3295 0.3295 0.9442 -10.9756 123.3232)" class="st20" width="13" height="2"/>
		</g>
	</g>
</g>
<g>
	<g>
		<path class="st19" d="M288.04,119.75c7.3,22.22,17.77,31.23,26.14,35.31c16.19,7.91,34.1,2.07,44.48,14.68
			c3.35,4.06,4.72,8.59,5.33,11.86"/>
		<g>
			
				<rect x="357.47" y="180.6" transform="matrix(0.9801 -0.1983 0.1983 0.9801 -28.7799 75.7706)" class="st20" width="13" height="2"/>
		</g>
	</g>
</g>
<g>
	<g>
		<path class="st21" d="M288.96,172.49c7.06,0,35.36-0.81,56.87-22.47c8.58-8.64,13.4-17.9,16.15-24.75"/>
		<g>
			
				<rect x="360.94" y="118.75" transform="matrix(0.3962 -0.9182 0.9182 0.3962 103.5315 407.9443)" class="st22" width="2" height="13"/>
		</g>
	</g>
</g>
<g>
	<g>
		<path class="st21" d="M288.96,199.55c-2.55,19.34,8.09,37.44,24.31,43.57c19.26,7.28,43.34-3.49,51.49-25.66"/>
		<g>
			
				<rect x="363.72" y="210.94" transform="matrix(0.3709 -0.9287 0.9287 0.3709 27.5021 475.4853)" class="st22" width="2" height="13"/>
		</g>
	</g>
</g>
<g>
	<g>
		<path class="st6" d="M391.23,109.35c12.14-0.17,24.28-0.34,36.42-0.51"/>
		<g>
			<path d="M427.38,116.37c4.15-0.06,7.47-3.47,7.41-7.62s-3.47-7.47-7.62-7.41c-4.15,0.06-7.47,3.47-7.41,7.62
				C419.81,113.11,423.23,116.43,427.38,116.37z"/>
		</g>
	</g>
</g>
<g>
	<g>
		<path class="st6" d="M394.13,199.85c11.38,0,22.75,0,34.13,0"/>
		<g>
			<path d="M427.88,207.37c4.15,0,7.52-3.37,7.52-7.52s-3.37-7.52-7.52-7.52c-4.15,0-7.52,3.37-7.52,7.52
				S423.73,207.37,427.88,207.37z"/>
		</g>
	</g>
</g>
<g>
	<g>
		<path class="st6" d="M393.52,196.49c21.59-24.31,40.33-47.72,61.86-72.01"/>
		<g>
			<rect x="454.39" y="117.99" transform="matrix(0.6517 -0.7584 0.7584 0.6517 64.1739 388.7377)" width="2" height="13"/>
		</g>
	</g>
</g>
<g>
	<g>
		<path class="st6" d="M391.23,111.5c21.18,24.11,42.36,48.21,63.54,72.32"/>
		<g>
			<rect x="448.27" y="182.81" transform="matrix(0.7512 -0.6601 0.6601 0.7512 -8.1876 345.9052)" width="13" height="2"/>
		</g>
	</g>
</g>
<text transform="matrix(1 0 0 1 36.837 28.3144)" class="st7 st23">A</text>
<line class="st2" x1="31.36" y1="353.61" x2="55.28" y2="353.61"/>
<text transform="matrix(1.0043 0 0 1 6.6344 358.7101)" class="st16 st11">1.0</text>
<text transform="matrix(6.149809e-17 -1.0043 1 6.123234e-17 37.5626 400.6558)" class="st16 st11">PDF</text>
<line class="st24" x1="353.77" y1="340.81" x2="353.77" y2="433.89"/>
<line class="st24" x1="583.46" y1="424.19" x2="340.83" y2="424.19"/>
<line class="st2" x1="468.66" y1="438.09" x2="468.66" y2="413.83"/>
<text transform="matrix(1 0 0 1 455.6313 453.9565)" class="st16 st11">1.0</text>
<line class="st2" x1="402.59" y1="438.09" x2="402.59" y2="413.83"/>
<text transform="matrix(1 0 0 1 389.5679 453.9565)" class="st16 st11">0.5</text>
<line class="st2" x1="535.71" y1="438.09" x2="535.71" y2="413.83"/>
<text transform="matrix(1 0 0 1 522.6821 453.9565)" class="st16 st11">1.5</text>
<text transform="matrix(1 0 0 1 401.1118 470.3521)" class="st7 st11">s speed (pixels/frame)</text>
<text transform="matrix(6.123234e-17 -1 1 6.123234e-17 347.3875 416.4673)" class="st7 st11">Difficulty</text>
<text transform="matrix(1.0043 0 0 1 36.0738 329.7134)" class="st7 st23">B</text>
<text transform="matrix(1 0 0 1 343.4233 329.4761)" class="st7 st23">C</text>
<rect x="402.59" y="350.39" class="st25" width="133.11" height="72.22"/>
<rect x="407.51" y="350.39" class="st26" width="128.2" height="72.22"/>
<rect x="417.65" y="350.39" class="st27" width="118.06" height="72.22"/>
<rect x="435.61" y="350.39" class="st28" width="100.1" height="72.22"/>
<rect x="461.8" y="350.39" class="st29" width="73.91" height="72.22"/>
<g id="line2d_14_1_">
	<g>
		<defs>
			<rect id="SVGID_1_" x="366.9" y="346.7" width="205.79" height="67.91"/>
		</defs>
		<clipPath id="SVGID_2_">
			<use xlink:href="#SVGID_1_"  style="overflow:visible;"/>
		</clipPath>
		<path class="st30" d="M376.26,349.79l1.87,2.47l1.87,2.37l1.87,2.28l1.87,2.19l1.87,2.1l1.87,2.02l1.87,1.94l1.87,1.86l1.87,1.79
			l1.87,1.72l1.87,1.65l1.87,1.59l1.87,1.53l1.87,1.47l1.87,1.41l1.87,1.35l1.87,1.3l1.87,1.25l1.87,1.2l1.87,1.15l1.87,1.11
			l1.87,1.06l1.87,1.02l1.87,0.98l1.87,0.94l1.87,0.91l1.87,0.87l1.87,0.84l1.87,0.8l1.87,0.77l1.87,0.74l1.87,0.71l1.87,0.69
			l1.87,0.66l1.87,0.63l1.87,0.61l1.87,0.58l1.87,0.56l1.87,0.54l1.87,0.52l1.87,0.5l1.87,0.48l1.87,0.46l1.87,0.44l1.87,0.42
			l1.87,0.41l1.87,0.39l1.87,0.38l1.87,0.36l1.87,0.35l1.87,0.33l1.87,0.32l1.87,0.31l1.87,0.3l1.87,0.28l1.87,0.27l1.87,0.26
			l1.87,0.25l1.87,0.24l1.87,0.23l1.87,0.22l1.87,0.21l1.87,0.21l1.87,0.2l1.87,0.19l1.87,0.18l1.87,0.18l1.87,0.17l1.87,0.16
			l1.87,0.16l1.87,0.15l1.87,0.14l1.87,0.14l1.87,0.13l1.87,0.13l1.87,0.12l1.87,0.12l1.87,0.11l1.87,0.11l1.87,0.1l1.87,0.1
			l1.87,0.1l1.87,0.09l1.87,0.09l1.87,0.09l1.87,0.08l1.87,0.08l1.87,0.08l1.87,0.07l1.87,0.07l1.87,0.07l1.87,0.06l1.87,0.06
			l1.87,0.06l1.87,0.06l1.87,0.06l1.87,0.05l1.87,0.05l1.87,0.05l1.87,0.05"/>
	</g>
</g>
<line class="st24" x1="43.63" y1="340.81" x2="43.63" y2="436.11"/>
<line class="st24" x1="273.33" y1="426.41" x2="30.69" y2="426.41"/>
<line class="st2" x1="158.52" y1="440.31" x2="158.52" y2="416.05"/>
<text transform="matrix(1 0 0 1 145.4965 456.1747)" class="st16 st11">1.0</text>
<line class="st2" x1="92.46" y1="440.31" x2="92.46" y2="416.05"/>
<text transform="matrix(1 0 0 1 79.433 456.1747)" class="st16 st11">0.5</text>
<line class="st2" x1="225.57" y1="440.31" x2="225.57" y2="416.05"/>
<text transform="matrix(1 0 0 1 212.5473 456.1747)" class="st16 st11">1.5</text>
<text transform="matrix(1 0 0 1 90.977 472.5702)" class="st7 st11">s speed (pixels/frame)</text>
<rect x="92.46" y="352.61" class="st25" width="133.11" height="72.22"/>
<rect x="97.37" y="352.61" class="st26" width="128.2" height="72.22"/>
<rect x="107.52" y="352.61" class="st27" width="118.06" height="72.22"/>
<rect x="125.48" y="352.61" class="st28" width="100.1" height="72.22"/>
<rect x="151.66" y="352.61" class="st29" width="73.91" height="72.22"/>
<g id="line2d_14_2_">
	<g>
		<defs>
			<rect id="SVGID_3_" x="56.77" y="348.92" width="205.79" height="67.91"/>
		</defs>
		<clipPath id="SVGID_4_">
			<use xlink:href="#SVGID_3_"  style="overflow:visible;"/>
		</clipPath>
	</g>
</g>
</svg>
