<?xml version="1.0" encoding="utf-8"?>
<!-- Generator: Adobe Illustrator 24.3.0, SVG Export Plug-In . SVG Version: 6.00 Build 0)  -->
<svg version="1.1" id="Layer_1" xmlns="http://www.w3.org/2000/svg" xmlns:xlink="http://www.w3.org/1999/xlink" x="0px" y="0px"
	 viewBox="0 0 566.26 344.38" style="enable-background:new 0 0 566.26 344.38;" xml:space="preserve">
<style type="text/css">
	.st0{fill:#939598;}
	.st1{fill:#ED1C24;}
	.st2{fill:none;stroke:#000000;stroke-miterlimit:10;}
	.st3{fill:#FFF200;}
	.st4{fill:#00A651;}
	.st5{fill:#662D91;}
	.st6{fill:none;stroke:#000000;stroke-width:2;stroke-miterlimit:10;}
	.st7{fill:#FFFFFF;}
	.st8{font-family:'ArialMT';}
	.st9{font-size:9.8516px;}
	.st10{fill:#0D0707;}
	.st11{fill:#333333;}
	.st12{fill:#EB851D;stroke:#000000;stroke-miterlimit:10;}
	.st13{fill:#00749F;stroke:#000000;stroke-miterlimit:10;}
	.st14{fill:#ED1C24;stroke:#000000;stroke-miterlimit:10;}
	.st15{fill:none;}
	.st16{fill:#0D090A;}
	.st17{font-size:16px;}
	.st18{fill:none;stroke:#00749F;stroke-width:2;stroke-miterlimit:10;}
	.st19{fill:#00749F;}
	.st20{fill:none;stroke:#EB851D;stroke-width:2;stroke-miterlimit:10;}
	.st21{fill:#EB851D;}
</style>
<rect x="398.91" y="94.65" class="st0" width="88" height="195"/>
<g>
	<g>
		<rect x="232.66" y="36.74" class="st1" width="22.19" height="3.8"/>
		<rect x="232.66" y="36.74" class="st2" width="22.19" height="3.8"/>
		<rect x="233.2" y="43.93" transform="matrix(0.866 -0.5 0.5 0.866 9.8138 128.2773)" class="st1" width="22.19" height="3.79"/>
		<rect x="233.2" y="43.93" transform="matrix(0.866 -0.5 0.5 0.866 9.8138 128.2773)" class="st2" width="22.19" height="3.79"/>
		<rect x="242.4" y="20.35" transform="matrix(0.5 -0.866 0.866 0.5 94.9241 227.292)" class="st1" width="3.79" height="22.19"/>
		<rect x="242.4" y="20.35" transform="matrix(0.5 -0.866 0.866 0.5 94.9241 227.292)" class="st2" width="3.79" height="22.19"/>
		<rect x="148.12" y="189.55" class="st3" width="22.19" height="3.79"/>
		<rect x="148.12" y="189.55" class="st2" width="22.19" height="3.79"/>
		<rect x="121.22" y="189.55" class="st3" width="22.19" height="3.79"/>
		<rect x="121.22" y="189.55" class="st2" width="22.19" height="3.79"/>
		<g>
			<path class="st3" d="M145.77,204.9c-7.43,0-13.45-6.02-13.45-13.45c0-7.43,6.02-13.45,13.45-13.45s13.45,6.02,13.45,13.45
				C159.22,198.88,153.2,204.9,145.77,204.9"/>
			<path class="st2" d="M145.77,204.9c-7.43,0-13.45-6.02-13.45-13.45c0-7.43,6.02-13.45,13.45-13.45s13.45,6.02,13.45,13.45
				C159.22,198.88,153.2,204.9,145.77,204.9z"/>
			<polyline class="st1" points="259.57,36.74 281.76,36.74 281.76,40.53 259.57,40.53 			"/>
			<polyline class="st2" points="259.57,36.74 281.76,36.74 281.76,40.53 259.57,40.53 			"/>
			<polyline class="st1" points="259.57,35.35 278.78,24.25 280.68,27.54 261.46,38.63 			"/>
			<polyline class="st2" points="259.57,35.35 278.78,24.25 280.68,27.54 261.46,38.63 			"/>
			<polyline class="st1" points="261.46,38.63 280.68,49.73 278.78,53.02 259.57,41.92 			"/>
			<polyline class="st2" points="261.46,38.63 280.68,49.73 278.78,53.02 259.57,41.92 			"/>
			<path class="st1" d="M257.21,52.09c-7.43,0-13.45-6.02-13.45-13.45c0-7.43,6.02-13.45,13.45-13.45c7.43,0,13.45,6.02,13.45,13.45
				C270.66,46.06,264.64,52.09,257.21,52.09"/>
			<path class="st2" d="M257.21,52.09c-7.43,0-13.45-6.02-13.45-13.45c0-7.43,6.02-13.45,13.45-13.45c7.43,0,13.45,6.02,13.45,13.45
				C270.66,46.06,264.64,52.09,257.21,52.09z"/>
			<polyline class="st4" points="361.17,286.04 338.98,286.04 338.98,282.25 361.17,282.25 			"/>
			<polyline class="st2" points="361.17,286.04 338.98,286.04 338.98,282.25 361.17,282.25 			"/>
			<polyline class="st4" points="361.17,287.43 341.95,298.53 340.05,295.24 359.27,284.14 			"/>
			<polyline class="st2" points="361.17,287.43 341.95,298.53 340.05,295.24 359.27,284.14 			"/>
			<polyline class="st4" points="359.27,284.14 340.05,273.05 341.95,269.76 361.17,280.86 			"/>
			<polyline class="st2" points="359.27,284.14 340.05,273.05 341.95,269.76 361.17,280.86 			"/>
			<rect x="365.88" y="282.25" class="st4" width="22.19" height="3.79"/>
			<rect x="365.88" y="282.25" class="st2" width="22.19" height="3.79"/>
			<path class="st4" d="M363.52,297.6c-7.43,0-13.45-6.02-13.45-13.45s6.02-13.45,13.45-13.45c7.43,0,13.45,6.02,13.45,13.45
				S370.95,297.6,363.52,297.6"/>
			<path class="st2" d="M363.52,297.6c-7.43,0-13.45-6.02-13.45-13.45s6.02-13.45,13.45-13.45c7.43,0,13.45,6.02,13.45,13.45
				S370.95,297.6,363.52,297.6z"/>
			<rect x="433.5" y="151.66" class="st5" width="22.19" height="3.79"/>
			<rect x="433.5" y="151.66" class="st2" width="22.19" height="3.79"/>
			
				<rect x="434.04" y="158.85" transform="matrix(0.866 -0.5 0.5 0.866 -20.7407 244.0889)" class="st5" width="22.19" height="3.79"/>
			
				<rect x="434.04" y="158.85" transform="matrix(0.866 -0.5 0.5 0.866 -20.7407 244.0889)" class="st2" width="22.19" height="3.79"/>
			
				<rect x="443.24" y="135.27" transform="matrix(0.5 -0.866 0.866 0.5 95.8233 458.7007)" class="st5" width="3.79" height="22.19"/>
			
				<rect x="443.24" y="135.27" transform="matrix(0.5 -0.866 0.866 0.5 95.8233 458.7007)" class="st2" width="3.79" height="22.19"/>
			<path class="st5" d="M458.05,167.01c-7.43,0-13.45-6.02-13.45-13.45c0-7.43,6.02-13.45,13.45-13.45
				c7.43,0,13.45,6.02,13.45,13.45C471.51,160.99,465.48,167.01,458.05,167.01"/>
			<path class="st2" d="M458.05,167.01c-7.43,0-13.45-6.02-13.45-13.45c0-7.43,6.02-13.45,13.45-13.45
				c7.43,0,13.45,6.02,13.45,13.45C471.51,160.99,465.48,167.01,458.05,167.01z"/>
			<rect x="148.12" y="96.85" class="st3" width="22.19" height="3.79"/>
			<rect x="148.12" y="96.85" class="st2" width="22.19" height="3.79"/>
			<rect x="121.22" y="96.85" class="st3" width="22.19" height="3.79"/>
			<rect x="121.22" y="96.85" class="st2" width="22.19" height="3.79"/>
			<path class="st3" d="M145.77,112.2c-7.43,0-13.45-6.02-13.45-13.45c0-7.43,6.02-13.45,13.45-13.45s13.45,6.02,13.45,13.45
				C159.22,106.18,153.2,112.2,145.77,112.2"/>
			<path class="st2" d="M145.77,112.2c-7.43,0-13.45-6.02-13.45-13.45c0-7.43,6.02-13.45,13.45-13.45s13.45,6.02,13.45,13.45
				C159.22,106.18,153.2,112.2,145.77,112.2z"/>
			<rect x="148.12" y="282.25" class="st3" width="22.19" height="3.79"/>
			<rect x="148.12" y="282.25" class="st2" width="22.19" height="3.79"/>
			<rect x="121.22" y="282.25" class="st3" width="22.19" height="3.79"/>
			<rect x="121.22" y="282.25" class="st2" width="22.19" height="3.79"/>
			<path class="st3" d="M145.77,297.6c-7.43,0-13.45-6.02-13.45-13.45s6.02-13.45,13.45-13.45s13.45,6.02,13.45,13.45
				S153.2,297.6,145.77,297.6"/>
			<circle class="st2" cx="145.77" cy="284.14" r="13.45"/>
			<polyline class="st4" points="356.45,100.64 334.26,100.64 334.26,96.85 356.45,96.85 			"/>
			<polyline class="st2" points="356.45,100.64 334.26,100.64 334.26,96.85 356.45,96.85 			"/>
			<polyline class="st4" points="356.45,102.03 337.23,113.13 335.34,109.84 354.55,98.75 			"/>
			<polyline class="st2" points="356.45,102.03 337.23,113.13 335.34,109.84 354.55,98.75 			"/>
			<polyline class="st4" points="354.55,98.75 335.34,87.65 337.23,84.36 356.45,95.46 			"/>
			<polyline class="st2" points="354.55,98.75 335.34,87.65 337.23,84.36 356.45,95.46 			"/>
			<rect x="361.17" y="96.85" class="st4" width="22.19" height="3.79"/>
			<rect x="361.17" y="96.85" class="st2" width="22.19" height="3.79"/>
			<path class="st4" d="M358.81,112.2c-7.43,0-13.45-6.02-13.45-13.45c0-7.43,6.02-13.45,13.45-13.45c7.43,0,13.45,6.02,13.45,13.45
				C372.26,106.18,366.24,112.2,358.81,112.2"/>
			<path class="st2" d="M358.81,112.2c-7.43,0-13.45-6.02-13.45-13.45c0-7.43,6.02-13.45,13.45-13.45c7.43,0,13.45,6.02,13.45,13.45
				C372.26,106.18,366.24,112.2,358.81,112.2z"/>
			<polyline class="st4" points="358.81,191.45 336.62,191.45 336.62,187.65 358.81,187.65 			"/>
			<polyline class="st2" points="358.81,191.45 336.62,191.45 336.62,187.65 358.81,187.65 			"/>
			<polyline class="st4" points="358.81,192.83 339.59,203.93 337.69,200.64 356.91,189.55 			"/>
			<polyline class="st2" points="358.81,192.83 339.59,203.93 337.69,200.64 356.91,189.55 			"/>
			<polyline class="st4" points="356.91,189.55 337.69,178.45 339.59,175.17 358.81,186.26 			"/>
			<polyline class="st2" points="356.91,189.55 337.69,178.45 339.59,175.17 358.81,186.26 			"/>
			<rect x="363.52" y="187.65" class="st4" width="22.19" height="3.79"/>
			<rect x="363.52" y="187.65" class="st2" width="22.19" height="3.79"/>
			<path class="st4" d="M361.17,203c-7.43,0-13.45-6.02-13.45-13.45c0-7.43,6.02-13.45,13.45-13.45c7.43,0,13.45,6.02,13.45,13.45
				C374.62,196.98,368.6,203,361.17,203"/>
			<path class="st2" d="M361.17,203c-7.43,0-13.45-6.02-13.45-13.45c0-7.43,6.02-13.45,13.45-13.45c7.43,0,13.45,6.02,13.45,13.45
				C374.62,196.98,368.6,203,361.17,203z"/>
			<rect x="235.02" y="149.04" class="st1" width="22.19" height="3.79"/>
			<rect x="235.02" y="149.04" class="st2" width="22.19" height="3.79"/>
			
				<rect x="235.56" y="156.23" transform="matrix(0.866 -0.5 0.5 0.866 -46.0205 144.5002)" class="st1" width="22.19" height="3.79"/>
			
				<rect x="235.56" y="156.23" transform="matrix(0.866 -0.5 0.5 0.866 -46.0205 144.5002)" class="st2" width="22.19" height="3.79"/>
			
				<rect x="244.75" y="132.66" transform="matrix(0.5 -0.866 0.866 0.5 -1.1608 285.4916)" class="st1" width="3.79" height="22.19"/>
			
				<rect x="244.75" y="132.66" transform="matrix(0.5 -0.866 0.866 0.5 -1.1608 285.4916)" class="st2" width="3.79" height="22.19"/>
			<polyline class="st1" points="261.92,149.04 284.11,149.04 284.11,152.84 261.92,152.84 			"/>
			<polyline class="st2" points="261.92,149.04 284.11,149.04 284.11,152.84 261.92,152.84 			"/>
			<polyline class="st1" points="261.92,147.66 281.14,136.56 283.04,139.85 263.82,150.94 			"/>
			<polyline class="st2" points="261.92,147.66 281.14,136.56 283.04,139.85 263.82,150.94 			"/>
			<polyline class="st1" points="263.82,150.94 283.04,162.04 281.14,165.32 261.92,154.23 			"/>
			<polyline class="st2" points="263.82,150.94 283.04,162.04 281.14,165.32 261.92,154.23 			"/>
			<path class="st1" d="M259.57,164.39c-7.43,0-13.45-6.02-13.45-13.45c0-7.43,6.02-13.45,13.45-13.45
				c7.43,0,13.45,6.02,13.45,13.45C273.02,158.37,266.99,164.39,259.57,164.39"/>
			<path class="st2" d="M259.57,164.39c-7.43,0-13.45-6.02-13.45-13.45c0-7.43,6.02-13.45,13.45-13.45
				c7.43,0,13.45,6.02,13.45,13.45C273.02,158.37,266.99,164.39,259.57,164.39z"/>
			<rect x="235.02" y="249.98" class="st1" width="22.19" height="3.79"/>
			<rect x="235.02" y="249.98" class="st2" width="22.19" height="3.79"/>
			
				<rect x="235.56" y="257.17" transform="matrix(0.866 -0.5 0.5 0.866 -96.4836 158.0201)" class="st1" width="22.19" height="3.79"/>
			
				<rect x="235.56" y="257.17" transform="matrix(0.866 -0.5 0.5 0.866 -96.4836 158.0201)" class="st2" width="22.19" height="3.79"/>
			
				<rect x="244.75" y="233.59" transform="matrix(0.5 -0.866 0.866 0.5 -88.573 335.9624)" class="st1" width="3.79" height="22.19"/>
			
				<rect x="244.75" y="233.59" transform="matrix(0.5 -0.866 0.866 0.5 -88.573 335.9624)" class="st2" width="3.79" height="22.19"/>
			<polyline class="st1" points="261.92,249.98 284.11,249.98 284.11,253.77 261.92,253.77 			"/>
			<polyline class="st2" points="261.92,249.98 284.11,249.98 284.11,253.77 261.92,253.77 			"/>
			<polyline class="st1" points="261.92,248.59 281.14,237.49 283.04,240.78 263.82,251.87 			"/>
			<polyline class="st2" points="261.92,248.59 281.14,237.49 283.04,240.78 263.82,251.87 			"/>
			<polyline class="st1" points="263.82,251.87 283.04,262.97 281.14,266.26 261.92,255.16 			"/>
			<polyline class="st2" points="263.82,251.87 283.04,262.97 281.14,266.26 261.92,255.16 			"/>
			<path class="st1" d="M259.57,265.33c-7.43,0-13.45-6.02-13.45-13.45c0-7.43,6.02-13.45,13.45-13.45
				c7.43,0,13.45,6.02,13.45,13.45C273.02,259.3,266.99,265.33,259.57,265.33"/>
			<path class="st2" d="M259.57,265.33c-7.43,0-13.45-6.02-13.45-13.45c0-7.43,6.02-13.45,13.45-13.45
				c7.43,0,13.45,6.02,13.45,13.45C273.02,259.3,266.99,265.33,259.57,265.33z"/>
			<path class="st6" d="M173.6,96.89c4.11,0.33,9.67,0.13,12.34-3.32c8.2-10.59-22.1-37.13-15.66-54.1
				c3.11-8.17,15.37-15.8,52.65-16.15"/>
			<path d="M222.63,30.94c4.15-0.05,7.48-3.45,7.43-7.6c-0.05-4.15-3.45-7.48-7.6-7.43s-7.48,3.45-7.43,7.6
				S218.48,30.98,222.63,30.94"/>
			<path class="st6" d="M174.55,189.53c14.27-14.85,18.53-66.66,17.56-95.97c-1.2-36.15-17.1-31.95-7.59-47.82
				c3.21-5.36,11.79-11.26,37.97-9.24"/>
			<path d="M221.46,44.04c4.14,0.36,7.78-2.71,8.14-6.84c0.36-4.14-2.71-7.78-6.84-8.14c-4.14-0.36-7.78,2.71-8.14,6.85
				C214.25,40.04,217.32,43.69,221.46,44.04"/>
			<path class="st6" d="M174.02,281.54c19.08-38.75,26.62-139.79,27.05-161.35c1.04-52.79-17.22-38-2.35-66.17
				c5.57-10.56,16-4.84,24.63-2.86"/>
			<path d="M222.66,58.58c4.15,0.18,7.65-3.05,7.83-7.2c0.17-4.15-3.05-7.66-7.2-7.83c-4.15-0.18-7.65,3.05-7.83,7.2
				C215.29,54.9,218.51,58.4,222.66,58.58"/>
			<path class="st6" d="M175.5,101.16c26.93-1.6,54.72-23.96,84.07-24.2c22.03-0.18,43.72,5.28,64.45,6.98"/>
			<path d="M323.16,91.39c4.14,0.27,7.72-2.88,7.99-7.02c0.27-4.14-2.88-7.72-7.02-7.99c-4.14-0.27-7.72,2.88-7.99,7.02
				C315.87,87.54,319.02,91.12,323.16,91.39"/>
			<path class="st6" d="M282.83,26.18c6.63,1.94,35.1,3.26,48.32,19.65c8.81,10.92,20.21,28.71,22.52,36.05"/>
			<rect x="347.14" y="80.88" transform="matrix(0.9593 -0.2824 0.2824 0.9593 -8.7276 103.2168)" width="13" height="2"/>
			<path class="st6" d="M175.97,190.32c16.28-0.95,39.05-4.72,47.93-20.41c11.06-19.53-3.22-45.28,5.69-60.11
				c6.27-10.43,27.96-26.68,94.59-11.8"/>
			<path d="M322.16,105.33c4.05,0.91,8.07-1.64,8.98-5.69c0.91-4.05-1.64-8.07-5.69-8.98c-4.05-0.91-8.07,1.64-8.99,5.69
				S318.11,104.42,322.16,105.33"/>
			<path class="st6" d="M284.21,137.49c-0.14,0.18,5.05-0.43,42.26-0.93c12.53-0.17,23.56-8.39,27.18-20.67"/>
			<rect x="352.63" y="109.38" transform="matrix(0.29 -0.957 0.957 0.29 140.1778 420.7071)" width="2" height="13"/>
			<rect x="433.5" y="242.79" class="st5" width="22.19" height="3.79"/>
			<rect x="433.5" y="242.79" class="st2" width="22.19" height="3.79"/>
			
				<rect x="434.04" y="249.98" transform="matrix(0.866 -0.5 0.5 0.866 -66.2999 256.2945)" class="st5" width="22.19" height="3.79"/>
			
				<rect x="434.04" y="249.98" transform="matrix(0.866 -0.5 0.5 0.866 -66.2999 256.2945)" class="st2" width="22.19" height="3.79"/>
			<rect x="443.24" y="226.4" transform="matrix(0.5 -0.866 0.866 0.5 16.906 504.267)" class="st5" width="3.79" height="22.19"/>
			<rect x="443.24" y="226.4" transform="matrix(0.5 -0.866 0.866 0.5 16.906 504.267)" class="st2" width="3.79" height="22.19"/>
			<path class="st5" d="M458.05,258.14c-7.43,0-13.45-6.02-13.45-13.45c0-7.43,6.02-13.45,13.45-13.45
				c7.43,0,13.45,6.02,13.45,13.45C471.51,252.11,465.48,258.14,458.05,258.14"/>
			<path class="st2" d="M458.05,258.14c-7.43,0-13.45-6.02-13.45-13.45c0-7.43,6.02-13.45,13.45-13.45
				c7.43,0,13.45,6.02,13.45,13.45C471.51,252.11,465.48,258.14,458.05,258.14z"/>
			<path class="st6" d="M175.02,283.38c7.22-6.49,18.66-17.59,30.37-33.22c26.35-35.16,24.84-54.23,46.03-65.49
				c22.13-11.76,40.27,0.26,48.4-11.86c10.14-15.11-13.8-40.11-3.8-54.1c5.2-7.27,17.11-8.14,28.5-7.07"/>
			<path d="M323.26,119.12c4.12,0.5,7.87-2.45,8.36-6.57c0.49-4.12-2.45-7.87-6.57-8.36c-4.12-0.49-7.87,2.45-8.36,6.57
				C316.19,114.88,319.14,118.62,323.26,119.12"/>
			<path class="st6" d="M285.56,236.4c3.43-37.56,19.85-55.32,31.92-64.54c17-12.99,39.02-14.23,47.45-33.22
				c3.48-7.84,3.31-16.92,2.52-22.7"/>
			<rect x="360.92" y="114.96" transform="matrix(0.9943 -0.107 0.107 0.9943 -10.2958 39.9676)" width="13" height="2"/>
			<path class="st6" d="M387.14,97.84c13.59,11.4,27.19,22.79,40.78,34.19"/>
			<path class="st7" d="M422.76,137.51c3.18,2.67,7.93,2.25,10.59-0.93c2.67-3.18,2.25-7.93-0.93-10.59
				c-3.18-2.67-7.92-2.25-10.59,0.93C419.16,130.1,419.58,134.85,422.76,137.51"/>
			<path d="M422.12,138.28c-3.6-3.02-4.07-8.4-1.05-12c3.02-3.6,8.4-4.07,12-1.05c3.6,3.02,4.07,8.4,1.06,12
				C431.1,140.82,425.72,141.3,422.12,138.28C418.52,135.26,425.72,141.3,422.12,138.28 M431.78,126.75
				c-2.76-2.31-6.87-1.95-9.19,0.81c-2.31,2.76-1.95,6.88,0.81,9.18c2.76,2.31,6.88,1.95,9.18-0.81
				C434.9,133.18,434.54,129.07,431.78,126.75C429.03,124.44,434.54,129.07,431.78,126.75"/>
			<path class="st6" d="M386.19,104.01c15.46,38.94,28.48,80.32,43.64,119.56"/>
			<path class="st7" d="M422.74,225.78c1.47,3.89,5.81,5.84,9.69,4.38c3.88-1.47,5.84-5.81,4.38-9.69
				c-1.47-3.89-5.81-5.84-9.69-4.38C423.23,217.56,421.27,221.9,422.74,225.78"/>
			<path d="M421.81,226.14c-1.66-4.39,0.56-9.32,4.96-10.98c4.39-1.66,9.32,0.56,10.98,4.96c1.66,4.39-0.56,9.32-4.96,10.98
				C428.39,232.76,423.47,230.53,421.81,226.14C420.15,221.74,423.47,230.53,421.81,226.14 M435.87,220.82
				c-1.27-3.36-5.04-5.06-8.4-3.79c-3.37,1.27-5.07,5.04-3.8,8.4c1.27,3.36,5.04,5.07,8.4,3.79
				C435.44,227.95,437.15,224.19,435.87,220.82C434.6,217.46,437.15,224.19,435.87,220.82"/>
			<path class="st6" d="M388.22,187.61c11.39-8.71,24.76-20.88,36.75-30.65"/>
			<path class="st7" d="M429.4,163.14c3.23-2.6,3.75-7.34,1.14-10.57c-2.6-3.23-7.34-3.74-10.57-1.14
				c-3.23,2.61-3.75,7.34-1.14,10.57C421.43,165.23,426.17,165.74,429.4,163.14"/>
			<path d="M430.03,163.91c-3.66,2.95-9.03,2.37-11.98-1.29c-2.95-3.66-2.37-9.03,1.29-11.98c3.66-2.95,9.03-2.37,11.98,1.29
				C434.26,155.59,433.68,160.97,430.03,163.91C426.37,166.86,433.68,160.97,430.03,163.91 M420.59,152.2
				c-2.8,2.26-3.24,6.37-0.99,9.17s6.36,3.24,9.17,0.99c2.8-2.26,3.25-6.37,0.99-9.17S423.4,149.94,420.59,152.2
				C417.79,154.45,423.4,149.94,420.59,152.2"/>
			<path class="st6" d="M391.89,279.59c12.97-34.49,25.94-68.98,38.91-103.47"/>
			<path class="st7" d="M437.69,179.17c1.46-3.89-0.51-8.22-4.39-9.69c-3.89-1.46-8.22,0.51-9.68,4.39
				c-1.46,3.89,0.51,8.22,4.39,9.69C431.89,185.02,436.23,183.05,437.69,179.17"/>
			<path d="M438.62,179.52c-1.65,4.4-6.58,6.63-10.97,4.98c-4.4-1.65-6.63-6.58-4.98-10.97c1.65-4.4,6.58-6.63,10.97-4.98
				C438.04,170.2,440.28,175.12,438.62,179.52C436.97,183.91,440.28,175.12,438.62,179.52 M424.55,174.22
				c-1.27,3.37,0.44,7.13,3.81,8.4c3.36,1.27,7.13-0.44,8.4-3.81c1.27-3.36-0.44-7.13-3.81-8.4
				C429.58,169.15,425.81,170.86,424.55,174.22C423.28,177.59,425.81,170.86,424.55,174.22"/>
			<path class="st6" d="M388.44,191.32c11.65,14.29,24.66,35.2,36.65,51.12"/>
			<path class="st7" d="M418.9,246.72c2.55,3.28,7.28,3.86,10.55,1.31c3.27-2.55,3.86-7.28,1.31-10.55
				c-2.55-3.28-7.28-3.86-10.55-1.31S416.35,243.45,418.9,246.72"/>
			<path d="M418.11,247.34c-2.89-3.71-2.22-9.07,1.49-11.96c3.71-2.89,9.07-2.22,11.96,1.49c2.89,3.71,2.22,9.07-1.49,11.96
				S421,251.04,418.11,247.34C415.22,243.63,421,251.04,418.11,247.34 M429.98,238.1c-2.21-2.84-6.31-3.35-9.15-1.14
				c-2.84,2.21-3.35,6.31-1.14,9.15c2.21,2.84,6.31,3.35,9.15,1.14C431.67,245.04,432.19,240.93,429.98,238.1
				C427.77,235.26,432.19,240.93,429.98,238.1"/>
			<path class="st6" d="M393.31,284.81c11.17-6.96,22.81-13.93,34.14-20.89"/>
			<path class="st7" d="M431,270.52c3.54-2.17,4.65-6.8,2.48-10.34c-2.17-3.54-6.8-4.65-10.34-2.48c-3.54,2.17-4.65,6.8-2.48,10.34
				C422.83,271.58,427.46,272.69,431,270.52"/>
			<path d="M431.53,271.37c-4.01,2.46-9.26,1.19-11.71-2.81c-2.46-4.01-1.2-9.26,2.81-11.72c4.01-2.46,9.26-1.19,11.72,2.81
				C436.79,263.66,435.53,268.92,431.53,271.37C427.52,273.83,435.53,268.92,431.53,271.37 M423.67,258.55
				c-3.07,1.88-4.03,5.9-2.15,8.97c1.88,3.07,5.9,4.03,8.96,2.15c3.07-1.88,4.03-5.9,2.15-8.97
				C430.75,257.64,426.73,256.67,423.67,258.55C420.6,260.43,426.73,256.67,423.67,258.55"/>
			<rect x="10.98" y="1" class="st6" width="100.2" height="75.27"/>
			<line class="st6" x1="24.5" y1="25.69" x2="24.5" y2="13.29"/>
			<path d="M29.8,13.55c0-2.92-2.37-5.29-5.29-5.29c-2.92,0-5.29,2.37-5.29,5.29c0,2.92,2.37,5.29,5.29,5.29
				C27.43,18.84,29.8,16.47,29.8,13.55"/>
			<line class="st6" x1="24.24" y1="49.95" x2="24.24" y2="33.23"/>
			<rect x="19.66" y="32.52" width="9.15" height="1.41"/>
		</g>
		<text transform="matrix(1 0 0 1 39.1741 19.4844)"><tspan x="0" y="0" class="st8 st9">E</tspan><tspan x="6.57" y="0" class="st8 st9">x</tspan><tspan x="11.36" y="0" class="st8 st9">cit</tspan><tspan x="21.21" y="0" class="st8 st9">a</tspan><tspan x="26.66" y="0" class="st8 st9">t</tspan><tspan x="29.34" y="0" class="st8 st9">o</tspan><tspan x="34.82" y="0" class="st8 st9">r</tspan><tspan x="38.34" y="0" class="st8 st9">y</tspan></text>
		<text transform="matrix(1 0 0 1 39.9232 43.4385)"><tspan x="0" y="0" class="st8 st9">I</tspan><tspan x="2.84" y="0" class="st8 st9">nhibi</tspan><tspan x="23.65" y="0" class="st8 st9">t</tspan><tspan x="26.34" y="0" class="st8 st9">o</tspan><tspan x="31.82" y="0" class="st8 st9">r</tspan><tspan x="35.34" y="0" class="st8 st9">y</tspan></text>
		<g>
			<line class="st6" x1="24.24" y1="72.61" x2="24.24" y2="60.88"/>
			<path class="st7" d="M29.53,61.18c0-2.92-2.37-5.29-5.29-5.29c-2.92,0-5.29,2.37-5.29,5.29c0,2.92,2.37,5.29,5.29,5.29
				C27.16,66.47,29.53,64.1,29.53,61.18"/>
			<path d="M30.23,61.18c0,3.31-2.69,5.99-5.99,5.99c-3.31,0-6-2.69-6-5.99c0-3.31,2.69-6,6-6C27.54,55.18,30.23,57.87,30.23,61.18
				C30.23,64.48,30.23,57.87,30.23,61.18 M19.65,61.18c0,2.53,2.06,4.59,4.59,4.59c2.53,0,4.59-2.06,4.59-4.59
				c0-2.53-2.06-4.59-4.59-4.59C21.71,56.59,19.65,58.64,19.65,61.18C19.65,63.7,19.65,58.64,19.65,61.18"/>
		</g>
	</g>
</g>
<g>
	<path class="st10" d="M83.41,181.84c0,8.97,0,17.95,0,26.92c-0.39,1.02-0.81,1.28-1.22,1.78c-16.07,19.61-36.66,44.72-64,78.04
		c-1.6,1.95-3.79,5.55-2.57-0.91c0.22-1.17-0.2-1.64-0.93-0.72c-0.92,1.16-1.26,2.69-0.81,3.23c1.81,2.12-0.23,3.92-1.78,5.82
		c-3.03,3.71-6.16,7.43-9.38,11.48c-1.59,2-2.23,1.86-2.09-0.67c0.05-0.89,0.01-1.68,0.01-2.52c0-64.93,0-129.86,0.01-194.8
		c0-1.64-0.29-3.28,0.31-5c18.8-4.69,34.53-8.61,47.89-11.95c0.12,0.21,0.25,0.39,0.4,0.52c0.66,0.22,1.31,0.05,1.96-0.5
		c0.14-0.2,0.27-0.44,0.39-0.7c9.77-2.44,18.41-4.59,26.12-6.52c0.08,0.18,0.15,0.39,0.2,0.63c0.7,2.07,0.89,2.03,1.48-0.37
		c0.04-0.27,0.1-0.51,0.18-0.72c1.04-0.26,2.07-0.41,3.08-0.81c0.63-0.25,0.77,0.15,0.77,1.68c-0.03,10.31-0.02,20.6-0.02,30.9
		c0,20.5,0,40.99,0,61.49c-0.09,0.28-0.19,0.48-0.31,0.6c-0.2,0.17-0.4,0.2-0.61,0.45c-0.42,0.5-0.74,1.26-0.74,2.39
		c0,1.14,0.32,1.24,0.74,0.9c0.21-0.17,0.41-0.49,0.62-0.69C83.22,181.72,83.33,181.73,83.41,181.84z"/>
	<path class="st7" d="M0.96,104.51c0,66.47,0.04,132.91-0.08,199.52c-0.01,4.62,0.86,4.52,3.59,0.9c3.36-4.45,6.64-8.17,10.56-12.94
		c-2.19,1.39-3.23,1.48-2.84-2.39c0.37-3.66,2.15-3.25,2.65-5.57c0.51,0.64,1.82-2.35,2.17-0.57c0.44,2.19,0.02,4.43-2.33,8.95
		c30.23-36.79,51.98-63.26,68.73-83.65c0.04,1.16-0.34,1-0.5,1.19c-19.02,23.27-44.59,54.5-80.8,98.81
		c-1.56,1.91-1.87,1.82-1.87-0.55c0.05-67.22,0.04-134.37,0.08-201.54C0.33,106.05-0.36,104.68,0.96,104.51z"/>
	<path class="st11" d="M51.6,91.88c-0.01,0.29-0.02,0.57-0.02,0.86c-0.89,0.74-1.79,0.98-2.69,0.69c-0.01-0.29-0.02-0.57-0.02-0.86
		C49.78,92.33,50.69,92.11,51.6,91.88z"/>
	<path class="st11" d="M77.71,85.9c0-0.18,0.01-0.36,0.01-0.54c0.63-0.16,1.25-0.31,1.86-0.47c0,0.18,0,0.35,0.01,0.52
		C78.97,86.9,78.35,87.07,77.71,85.9z"/>
	<path class="st11" d="M83.2,178.36c0.07-0.06,0.14-0.12,0.21-0.19c0,1.22,0,2.45,0,3.67c-0.07,0.07-0.14,0.14-0.21,0.22
		C82.73,181.31,82.73,180.07,83.2,178.36z"/>
	<path class="st7" d="M76.34,163.37c0.29,2.02-0.78,3.68-1.14,3.62c-1.01-0.18-1.96-1.04-2.78-2.18c-0.41-0.56-0.23-2.39,0.32-3.8
		c0.56-1.43,1.25-1.62,1.6-1.07c0.49,0.76,0.9,1.37,1.61,1.12C76.42,160.9,76.38,162.19,76.34,163.37z"/>
	<path class="st7" d="M46.65,238.57c0.52,0.04,1.64-3.17,1.86-0.46c0.19,2.28-0.21,3.95-1.48,5.68c-0.06,0.08-0.13,0.25-0.17,0.4
		c-0.86,2.72-1.83,4.49-2.92,4.17c-0.82-0.24-0.58-2.47-0.35-3.99c0.42-2.74,1.63-4.26,2.74-5.43
		C46.4,238.86,46.46,238.77,46.65,238.57z"/>
	<path class="st7" d="M79.57,100.24c0.28,2.18-0.6,2.71-1.15,3.15c-0.95,0.77-1.98-1.17-2.09-2.96c-0.17-2.7,0.93-1.58,1.23-2.73
		C78.14,98.93,79.78,95.8,79.57,100.24z"/>
	<path class="st7" d="M31.4,148.64c-1.25,0.84-1.82-0.72-1.91-2.75c-0.1-2.09,0.78-4.29,1.92-4.83c1.18-0.56,2.61-0.2,2.47,2.4
		C33.77,145.39,33.6,148.54,31.4,148.64z"/>
	<path class="st7" d="M44.75,123.11c1.52-1.52,1.78,0.66,1.88,2.37c0.15,2.47-1.09,4-2.04,4.49c-0.89,0.45-1.89-0.67-1.74-2.75
		C42.97,125.47,43.17,122.87,44.75,123.11z"/>
	<path class="st7" d="M72.9,130.83c-1.12,1.37-1.23-0.9-1.28-2.11c-0.08-1.8,0.73-3.15,1.43-3.59c0.72-0.46,1.27,0.7,1.24,2.14
		C74.25,128.82,74,130.97,72.9,130.83z"/>
	<path class="st7" d="M28.89,186.19c-1.86,2.3-2.31,0.4-2.42-1.66c-0.13-2.3,0.9-4.62,2.15-5.43c1.17-0.76,2.57-0.59,2.38,1.99
		C30.87,182.75,30.79,185.99,28.89,186.19z"/>
	<path class="st7" d="M11.6,238.91c0.72,3.07-1.2,5.34-2.47,6.79c-1.83,2.1-2.56,0.12-2.65-2.07c-0.1-2.46,1.1-5.48,2.72-6.68
		C10.54,235.95,12.42,234.7,11.6,238.91z"/>
	<path class="st7" d="M79.9,204.31c1-1.84,1.09,0.21,1.14,1.32c0.07,1.65-0.64,3.33-1.27,4.16c-0.66,0.87-1.17,0.1-1.14-1.32
		C78.66,206.95,78.89,204.74,79.9,204.31z"/>
	<path class="st7" d="M44.29,191.92c1.37-1.94,2-0.54,1.98,1.06c-0.01,1.85-0.47,4.03-2.02,5.36c-1.57,1.34-1.83-0.55-1.85-2.06
		C42.39,194.74,42.95,192.07,44.29,191.92z"/>
	<path class="st7" d="M13.44,225.96c0.46,2.59-0.88,5.18-2.14,6.24c-1.23,1.03-2.72,1.7-2.75-1.79c-0.03-3.62,1.48-5.86,2.83-7.04
		C12.57,222.32,14.01,222.6,13.44,225.96z"/>
	<path class="st7" d="M43.88,217.53c0.51,2.58-0.85,4.65-1.83,5.7c-0.91,0.98-1.64,0.31-1.64-2.13c0-2.45,0.73-4.53,1.64-5.31
		C42.85,215.11,44.34,214,43.88,217.53z"/>
	<path class="st7" d="M45.72,209.35c0,1.61-0.71,3.78-1.65,4.68c-0.99,0.95-2.08,0.9-2.15-1.38c-0.08-2.68,1.35-4.41,2.2-5.23
		C44.74,206.81,46.29,205.44,45.72,209.35z"/>
	<path class="st7" d="M58.44,200.87c1.34-1.54,1.8-0.43,1.76,1.09c-0.05,1.58-0.1,3.97-1.34,5.15c-1.06,1.01-1.47-0.4-1.53-2.07
		C57.28,203.28,57.98,201.54,58.44,200.87z"/>
	<path class="st7" d="M74.93,116.14c0.4,2.67-0.8,2.35-1.19,2.75c-0.66,0.68-1.3-0.26-1.24-2.04c0.05-1.56,0.56-3.08,1.29-3.2
		C74.47,113.53,75.23,113.67,74.93,116.14z"/>
	<path class="st7" d="M4.75,123.13c-1.96,1.91-2.82-0.05-2.83-2.13c-0.01-2.25,0.97-4.15,2.91-4.77c1.88-0.6,2.9,0.49,2.97,2.71
		C7.88,121.6,6.66,123.36,4.75,123.13z"/>
	<path class="st7" d="M69.66,101.03c0.35,1.88-0.27,3.05-0.94,3.31c-0.7,0.28-1.2-0.54-1.21-2.6c0-2,0.41-3.3,1.15-3.61
		C69.5,97.78,69.94,98.88,69.66,101.03z"/>
	<path class="st7" d="M56.04,149.42c0.37,1.87-0.24,3.43-1.12,4.02c-0.86,0.58-1.46-0.06-1.46-2.31c0-2.28,0.45-3.85,1.49-4.44
		C55.91,146.14,56.34,147.2,56.04,149.42z"/>
	<path class="st7" d="M83.2,178.36c0,1.24,0,2.47,0,3.71c-0.6,1.57-1.28,2.52-1.72,1.45c-0.26-0.63-0.41-2.07,0.07-3.52
		C82.06,178.46,82.66,177.39,83.2,178.36z"/>
	<path class="st7" d="M49.3,221.55c-0.43-1.79,0.3-3.69,1.21-4.64c0.9-0.94,1.51-0.5,1.51,1.78c0,2.32-0.47,4.07-1.55,5.19
		C49.4,224.99,49,223.96,49.3,221.55z"/>
	<path class="st7" d="M64,220.81c0.23,2.39-0.89,3.75-1.42,4.46c-0.71,0.95-1.48,0.44-1.43-1.38c0.05-1.7,0.69-3.7,1.55-4.41
		C63.41,218.89,64.31,218.15,64,220.81z"/>
	<path class="st7" d="M77.71,85.9c0.63-0.16,1.26-0.32,1.88-0.48c0.29,1.87-0.26,3.06-0.86,3.2C78.15,88.75,77.42,88.17,77.71,85.9z
		"/>
	<path class="st7" d="M48.88,93.43c0.91-0.23,1.81-0.46,2.69-0.69C50.68,94.37,49.79,94.6,48.88,93.43z"/>
</g>
<path class="st12" d="M47.61,125.81c0,3.14-1.33,6.32-2.99,7.13c-1.7,0.82-3.1-1.14-3.1-4.39c0-3.25,1.4-6.47,3.1-7.18
	C46.28,120.68,47.61,122.68,47.61,125.81z"/>
<path class="st12" d="M75.03,160.48c0,2.62-0.92,5.5-2.07,6.45c-1.17,0.97-2.14-0.42-2.14-3.12s0.96-5.61,2.14-6.5
	C74.11,156.44,75.03,157.87,75.03,160.48z"/>
<path class="st12" d="M53.28,217.49c0,3.03-1.24,6.82-2.79,8.49c-1.58,1.7-2.89,0.56-2.89-2.57c0-3.14,1.31-7,2.89-8.59
	C52.05,213.25,53.28,214.46,53.28,217.49z"/>
<path class="st12" d="M57.34,149.28c0,2.95-1.17,6.13-2.65,7.1c-1.5,1-2.74-0.66-2.74-3.72c0-3.06,1.24-6.27,2.74-7.16
	C56.16,144.63,57.34,146.32,57.34,149.28z"/>
<path class="st13" d="M77.04,163.56c0,2.58-0.89,5.44-2.01,6.4c-1.14,0.98-2.07-0.37-2.07-3.02s0.94-5.55,2.07-6.45
	C76.15,159.6,77.04,160.98,77.04,163.56z"/>
<path class="st13" d="M31.32,181.69c0,3.45-1.6,7.45-3.62,8.97c-2.06,1.55-3.77-0.08-3.77-3.66s1.71-7.66,3.77-9.07
	C29.71,176.55,31.32,178.25,31.32,181.69z"/>
<path class="st13" d="M75.03,127.48c0,2.62-0.92,5.28-2.07,5.95c-1.17,0.69-2.14-0.93-2.14-3.63c0-2.7,0.96-5.38,2.14-5.99
	C74.11,123.22,75.03,124.86,75.03,127.48z"/>
<path class="st13" d="M75.65,115.16c0,2.6-0.91,5.17-2.05,5.74c-1.16,0.58-2.12-1.12-2.12-3.8c0-2.68,0.96-5.27,2.12-5.77
	C74.74,110.84,75.65,112.56,75.65,115.16z"/>
<path class="st12" d="M12.4,239.05c0,3.81-1.96,8.8-4.43,11.19c-2.53,2.46-4.63,1.26-4.63-2.72c0-3.98,2.1-9.1,4.63-11.38
	C10.44,233.92,12.4,235.24,12.4,239.05z"/>
<path class="st12" d="M14.85,225.95c0,3.76-1.91,8.56-4.32,10.77c-2.47,2.26-4.51,0.95-4.51-2.98c0-3.93,2.04-8.85,4.51-10.94
	C12.94,220.75,14.85,222.19,14.85,225.95z"/>
<path class="st14" d="M48.64,167.65c0,3.12-1.31,6.62-2.96,7.84c-1.68,1.25-3.06-0.35-3.06-3.58c0-3.23,1.39-6.79,3.06-7.92
	C47.33,162.89,48.64,164.53,48.64,167.65z"/>
<path class="st13" d="M44.61,218.5c0,3.2-1.38,7.2-3.1,8.98c-1.76,1.81-3.22,0.62-3.22-2.69c0-3.32,1.46-7.4,3.22-9.09
	C43.24,214.04,44.61,215.31,44.61,218.5z"/>
<path class="st14" d="M48.64,167.65c0,3.12-1.31,6.62-2.96,7.84c-1.68,1.25-3.06-0.35-3.06-3.58c0-3.23,1.39-6.79,3.06-7.92
	C47.33,162.89,48.64,164.53,48.64,167.65z"/>
<path class="st12" d="M48.64,167.65c0,3.12-1.31,6.62-2.96,7.84c-1.68,1.25-3.06-0.35-3.06-3.58c0-3.23,1.39-6.79,3.06-7.92
	C47.33,162.89,48.64,164.53,48.64,167.65z"/>
<path class="st12" d="M46.81,209.19c0,3.15-1.34,7.03-3.02,8.69c-1.72,1.69-3.13,0.44-3.13-2.83s1.42-7.22,3.13-8.79
	C45.47,204.7,46.81,206.03,46.81,209.19z"/>
<path class="st13" d="M46.81,193.42c0,3.15-1.34,6.9-3.02,8.4c-1.72,1.53-3.13,0.14-3.13-3.13s1.42-7.09,3.13-8.49
	C45.47,188.81,46.81,190.26,46.81,193.42z"/>
<path class="st12" d="M61.3,201.92c0,2.88-1.11,6.36-2.51,7.79c-1.42,1.46-2.6,0.26-2.6-2.72c0-2.97,1.17-6.51,2.6-7.88
	C60.18,197.78,61.3,199.05,61.3,201.92z"/>
<path class="st13" d="M49.1,240.43c0,3.11-1.3,7.18-2.94,9.13c-1.67,1.99-3.05,1.01-3.05-2.21c0-3.22,1.38-7.38,3.05-9.25
	C47.8,236.26,49.1,237.32,49.1,240.43z"/>
<path class="st13" d="M64.76,221.05c0,2.81-1.06,6.35-2.4,7.92c-1.36,1.6-2.48,0.57-2.48-2.33c0-2.9,1.12-6.5,2.48-8.01
	C63.69,217.14,64.76,218.24,64.76,221.05z"/>
<path class="st12" d="M79.85,99.58c0,2.52-0.86,4.91-1.93,5.33c-1.09,0.43-1.99-1.32-1.99-3.92s0.9-5,1.99-5.35
	C78.99,95.29,79.85,97.05,79.85,99.58z"/>
<path class="st12" d="M70.82,100.51c0,2.7-0.98,5.25-2.2,5.72c-1.25,0.47-2.27-1.39-2.27-4.18c0-2.78,1.03-5.35,2.27-5.74
	C69.84,95.93,70.82,97.81,70.82,100.51z"/>
<path class="st13" d="M34.8,143.52c0,3.38-1.54,6.97-3.48,8.04c-1.98,1.09-3.62-0.86-3.62-4.37c0-3.52,1.64-7.16,3.62-8.11
	C33.26,138.14,34.8,140.14,34.8,143.52z"/>
<path class="st12" d="M10.09,118.98c0,3.85-2,7.71-4.53,8.64c-2.59,0.95-4.74-1.53-4.74-5.56s2.15-7.93,4.74-8.71
	C8.09,112.6,10.09,115.12,10.09,118.98z"/>
<path class="st12" d="M81.6,205.46c0,2.49-0.83,5.52-1.88,6.78c-1.06,1.28-1.93,0.26-1.93-2.3c0-2.56,0.87-5.64,1.93-6.85
	C80.77,201.9,81.6,202.97,81.6,205.46z"/>
<g>
	<path class="st15" d="M83.17,78.91"/>
</g>
<g>
	<path class="st15" d="M56.19,84.58"/>
</g>
<g>
	<path class="st15" d="M0.62,96.25"/>
</g>
<g>
	<path class="st15" d="M46.81,86.55"/>
</g>
<polygon points="83.43,184.42 81.97,185.92 81.97,176.76 83.43,175.36 "/>
<path class="st12" d="M83.1,181.05c0,2.46-0.82,5.3-1.84,6.36c-1.04,1.07-1.89-0.1-1.89-2.63s0.85-5.41,1.89-6.41
	C82.29,177.38,83.1,178.59,83.1,181.05z"/>
<polygon points="80.85,87.72 76.72,88.85 76.72,85.56 80.85,84.53 "/>
<path class="st13" d="M80.72,89.64c0,2.51-0.85,4.81-1.9,5.15c-1.08,0.35-1.96-1.46-1.96-4.04s0.88-4.9,1.96-5.17
	C79.88,85.31,80.72,87.13,80.72,89.64z"/>
<polygon points="53.21,95.28 47.13,96.94 47.13,92.93 53.21,91.41 "/>
<path class="st13" d="M53.14,97.73c0,3.03-1.24,5.89-2.79,6.39c-1.59,0.51-2.89-1.61-2.89-4.75s1.31-6.02,2.89-6.42
	C51.9,92.56,53.14,94.7,53.14,97.73z"/>
<polygon class="st16" points="18.26,289.18 10.88,298.2 10.88,289.36 18.26,280.66 "/>
<path class="st13" d="M19.16,280.47c0,3.68-1.83,8.89-4.13,11.69c-2.36,2.87-4.31,2.13-4.31-1.71s1.95-9.2,4.31-11.9
	C17.33,275.9,19.16,276.79,19.16,280.47z"/>
<line class="st2" x1="86.48" y1="84.02" x2="117.43" y2="96.94"/>
<line class="st2" x1="3.35" y1="308.86" x2="118.81" y2="283.85"/>
<text transform="matrix(1 0 0 1 -2.136230e-04 337.1153)" class="st8 st17">Stimulus</text>
<text transform="matrix(1 0 0 1 121.219 337.3075)" class="st8 st17">Bipolar</text>
<text transform="matrix(1 0 0 1 226.0443 337.3068)" class="st8 st17">Amacrine</text>
<text transform="matrix(1 0 0 1 326.7483 337.3074)" class="st8 st17">Ganglion</text>
<text transform="matrix(1 0 0 1 425.0857 337.3074)" class="st8 st17">Linear</text>
<g>
	<g>
		<line class="st18" x1="506.26" y1="163.32" x2="548.54" y2="163.32"/>
		<g>
			<polygon class="st19" points="544.58,169.13 566.26,163.32 544.58,157.51 			"/>
		</g>
	</g>
</g>
<g>
	<g>
		<line class="st20" x1="560.65" y1="249.62" x2="518.37" y2="249.62"/>
		<g>
			<polygon class="st21" points="522.33,243.81 500.65,249.62 522.33,255.43 			"/>
		</g>
	</g>
</g>
<text transform="matrix(1 0 0 1 506.2576 152.8382)" class="st8 st17">Right</text>
<text transform="matrix(1 0 0 1 507.3218 237.4928)" class="st8 st17">Left</text>
<text transform="matrix(1 0 0 1 39.923 66.0692)" class="st8 st9">Nonspecific</text>
</svg>
