<?xml version="1.0" encoding="utf-8"?>
<!-- Generator: Adobe Illustrator 24.3.0, SVG Export Plug-In . SVG Version: 6.00 Build 0)  -->
<svg version="1.1" id="Layer_1" xmlns="http://www.w3.org/2000/svg" xmlns:xlink="http://www.w3.org/1999/xlink" x="0px" y="0px"
	 viewBox="0 0 735 233" style="enable-background:new 0 0 735 233;" xml:space="preserve">
<style type="text/css">
	.st0{clip-path:url(#SVGID_4_);fill:#FFFFFF;}
	.st1{clip-path:url(#SVGID_4_);fill:none;stroke:#000000;stroke-width:0.6806;stroke-linejoin:round;}
	.st2{clip-path:url(#SVGID_4_);}
	.st3{clip-path:url(#SVGID_6_);fill:none;stroke:#1F77B4;stroke-width:1.276;stroke-linecap:square;stroke-linejoin:round;}
	.st4{clip-path:url(#SVGID_8_);fill:none;stroke:#FF7F0E;stroke-width:1.276;stroke-linecap:square;stroke-linejoin:round;}
	.st5{clip-path:url(#SVGID_10_);fill:none;stroke:#000000;stroke-width:0.6806;stroke-linecap:square;}
	.st6{clip-path:url(#SVGID_10_);}
	.st7{opacity:0.8;clip-path:url(#SVGID_10_);enable-background:new    ;}
	.st8{clip-path:url(#SVGID_12_);fill:#FFFFFF;}
	.st9{clip-path:url(#SVGID_12_);fill:none;stroke:#CCCCCC;stroke-width:0.8507;}
	.st10{clip-path:url(#SVGID_10_);fill:none;stroke:#1F77B4;stroke-width:1.276;stroke-linecap:square;stroke-linejoin:round;}
	.st11{clip-path:url(#SVGID_10_);fill:none;stroke:#FF7F0E;stroke-width:1.276;stroke-linecap:square;stroke-linejoin:round;}
	.st12{clip-path:url(#SVGID_10_);fill:#FFFFFF;}
	.st13{clip-path:url(#SVGID_14_);fill:#1F77B4;}
	.st14{clip-path:url(#SVGID_16_);fill:#1F77B4;}
	.st15{clip-path:url(#SVGID_18_);fill:#1F77B4;}
	.st16{clip-path:url(#SVGID_20_);fill:#1F77B4;}
	.st17{clip-path:url(#SVGID_22_);fill:#1F77B4;}
	.st18{clip-path:url(#SVGID_24_);fill:#1F77B4;}
	.st19{clip-path:url(#SVGID_26_);fill:#1F77B4;}
	.st20{clip-path:url(#SVGID_28_);fill:#1F77B4;}
	.st21{clip-path:url(#SVGID_30_);fill:#FF7F0E;}
	.st22{clip-path:url(#SVGID_32_);fill:#FF7F0E;}
	.st23{clip-path:url(#SVGID_34_);fill:#FF7F0E;}
	.st24{clip-path:url(#SVGID_36_);fill:#FF7F0E;}
	.st25{clip-path:url(#SVGID_38_);fill:#FF7F0E;}
	.st26{clip-path:url(#SVGID_40_);fill:#FF7F0E;}
	.st27{clip-path:url(#SVGID_42_);fill:#FF7F0E;}
	.st28{clip-path:url(#SVGID_44_);fill:#FF7F0E;}
	.st29{clip-path:url(#SVGID_46_);fill:#2CA02C;}
	.st30{clip-path:url(#SVGID_48_);fill:#2CA02C;}
	.st31{clip-path:url(#SVGID_50_);fill:#2CA02C;}
	.st32{clip-path:url(#SVGID_52_);fill:#2CA02C;}
	.st33{clip-path:url(#SVGID_54_);fill:#2CA02C;}
	.st34{clip-path:url(#SVGID_56_);fill:#2CA02C;}
	.st35{clip-path:url(#SVGID_58_);fill:#2CA02C;}
	.st36{clip-path:url(#SVGID_60_);fill:#2CA02C;}
	.st37{clip-path:url(#SVGID_62_);fill:none;stroke:#000000;stroke-width:0.6806;stroke-linejoin:round;}
	.st38{clip-path:url(#SVGID_62_);}
	.st39{clip-path:url(#SVGID_62_);fill:none;stroke:#000000;stroke-width:0.6806;stroke-linecap:square;}
</style>
<g>
	<defs>
		<rect id="SVGID_1_" width="735" height="554.44"/>
	</defs>
	<clipPath id="SVGID_2_">
		<use xlink:href="#SVGID_1_"  style="overflow:visible;"/>
	</clipPath>
</g>
<g>
	<defs>
		<rect id="SVGID_3_" width="735" height="245"/>
	</defs>
	<clipPath id="SVGID_4_">
		<use xlink:href="#SVGID_3_"  style="overflow:visible;"/>
	</clipPath>
	<rect x="55.81" y="31.71" class="st0" width="243.47" height="159.45"/>
	<line class="st1" x1="66.88" y1="191.17" x2="66.88" y2="194.15"/>
	<path class="st2" d="M68.16,206.87h-1.2v-7.62c-0.29,0.27-0.67,0.55-1.13,0.82c-0.47,0.28-0.89,0.48-1.26,0.62v-1.16
		c0.67-0.31,1.25-0.7,1.75-1.14c0.5-0.45,0.85-0.88,1.06-1.3h0.77V206.87z"/>
	<line class="st1" x1="140.66" y1="191.17" x2="140.66" y2="194.15"/>
	<path class="st2" d="M143.73,205.71v1.15h-6.44c-0.01-0.29,0.04-0.57,0.14-0.83c0.16-0.44,0.43-0.87,0.79-1.3
		c0.36-0.43,0.88-0.92,1.57-1.48c1.06-0.87,1.77-1.56,2.15-2.06c0.37-0.51,0.56-0.99,0.56-1.44c0-0.47-0.17-0.87-0.51-1.2
		c-0.34-0.33-0.78-0.49-1.32-0.49c-0.58,0-1.04,0.17-1.38,0.52c-0.35,0.34-0.52,0.82-0.53,1.43l-1.23-0.13
		c0.08-0.92,0.4-1.62,0.95-2.1c0.55-0.48,1.29-0.72,2.22-0.72c0.93,0,1.67,0.26,2.22,0.78c0.55,0.52,0.82,1.16,0.82,1.93
		c0,0.39-0.08,0.77-0.24,1.15c-0.16,0.38-0.42,0.77-0.79,1.19c-0.37,0.42-0.98,0.99-1.84,1.71c-0.72,0.6-1.18,1.01-1.38,1.23
		c-0.2,0.21-0.37,0.43-0.5,0.65H143.73z"/>
	<line class="st1" x1="214.44" y1="191.17" x2="214.44" y2="194.15"/>
	<path class="st2" d="M211.22,204.29l1.2-0.16c0.14,0.68,0.37,1.17,0.7,1.47c0.33,0.3,0.73,0.45,1.21,0.45
		c0.56,0,1.04-0.19,1.42-0.58c0.39-0.39,0.58-0.87,0.58-1.45c0-0.55-0.18-1-0.54-1.36c-0.36-0.36-0.82-0.54-1.37-0.54
		c-0.23,0-0.51,0.04-0.84,0.13l0.13-1.05c0.08,0.01,0.14,0.01,0.19,0.01c0.51,0,0.97-0.13,1.38-0.4c0.41-0.27,0.61-0.68,0.61-1.23
		c0-0.44-0.15-0.8-0.45-1.09c-0.3-0.29-0.68-0.43-1.15-0.43c-0.47,0-0.85,0.15-1.16,0.44c-0.31,0.29-0.51,0.73-0.6,1.31l-1.2-0.21
		c0.15-0.8,0.48-1.42,1-1.86c0.52-0.44,1.16-0.66,1.94-0.66c0.53,0,1.02,0.11,1.47,0.34c0.45,0.23,0.79,0.54,1.03,0.93
		c0.24,0.39,0.36,0.81,0.36,1.26c0,0.42-0.11,0.8-0.34,1.15c-0.23,0.35-0.56,0.62-1,0.83c0.58,0.13,1.02,0.41,1.34,0.83
		c0.32,0.42,0.48,0.94,0.48,1.57c0,0.85-0.31,1.57-0.93,2.16c-0.62,0.59-1.4,0.89-2.35,0.89c-0.85,0-1.57-0.25-2.13-0.76
		C211.63,205.76,211.3,205.1,211.22,204.29z"/>
	<line class="st1" x1="288.22" y1="191.17" x2="288.22" y2="194.15"/>
	<path class="st2" d="M288.83,203.43v-4.39l-3.05,4.39H288.83z M288.83,206.87v-2.33h-4.23v-1.1l4.45-6.31h0.98v6.31h1.32v1.1h-1.32
		v2.33H288.83z"/>
	<path class="st2" d="M129.77,219.75l1.21-0.11c0.06,0.49,0.19,0.89,0.4,1.2c0.21,0.31,0.54,0.56,0.98,0.76
		c0.44,0.19,0.94,0.29,1.5,0.29c0.49,0,0.92-0.07,1.3-0.22c0.38-0.15,0.66-0.35,0.84-0.6c0.18-0.26,0.28-0.53,0.28-0.84
		c0-0.3-0.09-0.57-0.27-0.8c-0.18-0.23-0.47-0.42-0.88-0.58c-0.26-0.1-0.84-0.26-1.74-0.47c-0.89-0.22-1.52-0.42-1.88-0.61
		c-0.47-0.24-0.81-0.55-1.04-0.91c-0.23-0.36-0.34-0.77-0.34-1.21c0-0.49,0.14-0.95,0.42-1.38c0.28-0.43,0.69-0.75,1.22-0.97
		c0.54-0.22,1.13-0.33,1.79-0.33c0.72,0,1.36,0.12,1.91,0.35c0.55,0.23,0.98,0.57,1.27,1.03c0.3,0.45,0.46,0.96,0.48,1.53
		l-1.24,0.09c-0.07-0.62-0.29-1.08-0.68-1.4c-0.38-0.31-0.95-0.47-1.7-0.47c-0.78,0-1.35,0.14-1.71,0.43
		c-0.36,0.28-0.53,0.63-0.53,1.03c0,0.35,0.13,0.64,0.38,0.87c0.25,0.23,0.9,0.46,1.94,0.69c1.05,0.24,1.77,0.44,2.16,0.62
		c0.57,0.26,0.99,0.59,1.25,1c0.27,0.4,0.41,0.86,0.41,1.38c0,0.52-0.15,1.01-0.44,1.47c-0.3,0.46-0.72,0.81-1.28,1.07
		c-0.56,0.25-1.18,0.38-1.88,0.38c-0.88,0-1.62-0.13-2.22-0.38c-0.6-0.26-1.06-0.64-1.4-1.16
		C129.97,220.99,129.79,220.4,129.77,219.75z"/>
	<path class="st2" d="M140.22,219.39c0,0.91,0.18,1.58,0.55,2.01c0.37,0.43,0.81,0.65,1.34,0.65c0.53,0,0.99-0.22,1.37-0.67
		c0.38-0.45,0.57-1.15,0.57-2.09c0-0.9-0.19-1.57-0.56-2.02c-0.37-0.45-0.81-0.67-1.32-0.67c-0.51,0-0.96,0.24-1.35,0.71
		C140.41,217.79,140.22,218.48,140.22,219.39z M139.14,225.59v-9.76h1.09v0.92c0.26-0.36,0.55-0.63,0.87-0.81
		c0.32-0.18,0.72-0.27,1.18-0.27c0.6,0,1.13,0.16,1.6,0.47c0.46,0.31,0.81,0.75,1.04,1.31c0.24,0.56,0.35,1.18,0.35,1.86
		c0,0.72-0.13,1.37-0.39,1.95c-0.26,0.58-0.63,1.02-1.13,1.33c-0.49,0.31-1.01,0.46-1.56,0.46c-0.4,0-0.76-0.08-1.07-0.25
		c-0.32-0.17-0.58-0.38-0.78-0.64v3.44H139.14z"/>
	<path class="st2" d="M147.61,218.68h3.94c-0.05-0.59-0.2-1.04-0.45-1.34c-0.38-0.46-0.88-0.69-1.48-0.69
		c-0.55,0-1.01,0.18-1.39,0.55C147.86,217.57,147.65,218.06,147.61,218.68z M151.54,220.61l1.24,0.15
		c-0.19,0.72-0.56,1.28-1.08,1.68c-0.53,0.4-1.2,0.6-2.02,0.6c-1.03,0-1.85-0.32-2.46-0.95c-0.61-0.64-0.91-1.53-0.91-2.68
		c0-1.19,0.31-2.11,0.92-2.76c0.61-0.66,1.41-0.98,2.38-0.98c0.94,0,1.72,0.32,2.31,0.96s0.9,1.55,0.9,2.71c0,0.07,0,0.18-0.01,0.32
		h-5.26c0.04,0.78,0.26,1.37,0.66,1.78c0.39,0.41,0.89,0.62,1.48,0.62c0.44,0,0.81-0.11,1.12-0.34
		C151.11,221.48,151.36,221.11,151.54,220.61z"/>
	<path class="st2" d="M155.18,218.68h3.94c-0.05-0.59-0.2-1.04-0.45-1.34c-0.38-0.46-0.88-0.69-1.48-0.69
		c-0.55,0-1.01,0.18-1.39,0.55C155.43,217.57,155.22,218.06,155.18,218.68z M159.11,220.61l1.24,0.15
		c-0.19,0.72-0.56,1.28-1.08,1.68c-0.53,0.4-1.2,0.6-2.02,0.6c-1.03,0-1.85-0.32-2.46-0.95c-0.61-0.64-0.91-1.53-0.91-2.68
		c0-1.19,0.31-2.11,0.92-2.76c0.61-0.66,1.41-0.98,2.38-0.98c0.94,0,1.72,0.32,2.31,0.96c0.6,0.64,0.9,1.55,0.9,2.71
		c0,0.07,0,0.18-0.01,0.32h-5.26c0.04,0.78,0.26,1.37,0.66,1.78c0.39,0.41,0.89,0.62,1.48,0.62c0.44,0,0.81-0.11,1.12-0.34
		C158.68,221.48,158.93,221.11,159.11,220.61z"/>
	<path class="st2" d="M162.64,219.36c0,0.9,0.19,1.58,0.57,2.03c0.38,0.45,0.83,0.67,1.35,0.67c0.52,0,0.97-0.21,1.33-0.64
		c0.37-0.43,0.55-1.08,0.55-1.96c0-0.97-0.19-1.68-0.56-2.13c-0.37-0.45-0.83-0.68-1.37-0.68c-0.53,0-0.98,0.22-1.33,0.65
		C162.82,217.74,162.64,218.42,162.64,219.36z M166.42,222.88v-0.89c-0.45,0.7-1.11,1.05-1.97,1.05c-0.56,0-1.08-0.16-1.55-0.47
		c-0.47-0.31-0.84-0.74-1.1-1.3c-0.26-0.56-0.39-1.19-0.39-1.92c0-0.7,0.12-1.34,0.35-1.92c0.24-0.57,0.59-1.01,1.06-1.32
		c0.47-0.31,1-0.46,1.58-0.46c0.43,0,0.8,0.09,1.14,0.27c0.33,0.18,0.6,0.41,0.81,0.7v-3.49h1.19v9.74H166.42z"/>
	<path class="st2" d="M174.66,217.44h2.77c0.59,0,1.05-0.06,1.38-0.18c0.33-0.12,0.59-0.32,0.76-0.58c0.17-0.27,0.26-0.56,0.26-0.87
		c0-0.46-0.17-0.84-0.5-1.14c-0.33-0.3-0.86-0.45-1.59-0.45h-3.08V217.44z M173.37,222.88v-9.74h4.32c0.87,0,1.53,0.09,1.98,0.26
		c0.45,0.17,0.81,0.48,1.08,0.93c0.27,0.44,0.41,0.93,0.41,1.47c0,0.69-0.22,1.27-0.67,1.75c-0.45,0.47-1.14,0.77-2.07,0.9
		c0.34,0.16,0.6,0.32,0.78,0.48c0.38,0.34,0.73,0.78,1.07,1.3l1.7,2.65h-1.62l-1.29-2.03c-0.38-0.59-0.69-1.03-0.93-1.34
		c-0.24-0.31-0.46-0.53-0.65-0.65c-0.19-0.12-0.39-0.21-0.59-0.26c-0.15-0.03-0.38-0.04-0.72-0.04h-1.5v4.33H173.37z"/>
	<path class="st2" d="M187.53,219.34c-0.44,0.18-1.09,0.33-1.95,0.45c-0.49,0.07-0.84,0.15-1.04,0.24c-0.2,0.09-0.36,0.22-0.47,0.39
		c-0.11,0.17-0.17,0.36-0.17,0.57c0,0.32,0.12,0.58,0.36,0.8c0.24,0.21,0.6,0.32,1.06,0.32c0.46,0,0.87-0.1,1.23-0.3
		c0.36-0.2,0.62-0.48,0.79-0.83c0.13-0.27,0.19-0.67,0.19-1.2V219.34z M187.63,222.01c-0.44,0.38-0.87,0.64-1.28,0.8
		c-0.41,0.15-0.85,0.23-1.32,0.23c-0.78,0-1.37-0.19-1.79-0.57c-0.42-0.38-0.63-0.86-0.63-1.45c0-0.35,0.08-0.66,0.24-0.95
		c0.16-0.29,0.36-0.52,0.62-0.69c0.26-0.17,0.54-0.3,0.86-0.39c0.23-0.06,0.59-0.12,1.06-0.18c0.97-0.11,1.68-0.25,2.13-0.41
		c0-0.16,0.01-0.27,0.01-0.31c0-0.49-0.11-0.83-0.34-1.03c-0.3-0.27-0.76-0.4-1.36-0.4c-0.56,0-0.98,0.1-1.25,0.3
		s-0.47,0.55-0.6,1.05l-1.17-0.16c0.11-0.5,0.28-0.9,0.53-1.21c0.24-0.31,0.6-0.54,1.06-0.71c0.46-0.17,0.99-0.25,1.6-0.25
		c0.6,0,1.09,0.07,1.47,0.21c0.38,0.14,0.65,0.32,0.83,0.54c0.18,0.21,0.3,0.49,0.37,0.81c0.04,0.2,0.06,0.57,0.06,1.1v1.6
		c0,1.11,0.03,1.82,0.08,2.11c0.05,0.29,0.15,0.58,0.3,0.85h-1.25C187.75,222.63,187.67,222.34,187.63,222.01z"/>
	<path class="st2" d="M193.21,221.81l0.17,1.06c-0.34,0.07-0.64,0.11-0.9,0.11c-0.43,0-0.77-0.07-1.01-0.21
		c-0.24-0.14-0.41-0.32-0.5-0.54s-0.15-0.69-0.15-1.41v-4.06h-0.88v-0.93h0.88v-1.75l1.19-0.72v2.46h1.2v0.93H192v4.13
		c0,0.34,0.02,0.56,0.06,0.66c0.04,0.1,0.11,0.17,0.21,0.23c0.1,0.06,0.23,0.09,0.41,0.09
		C192.82,221.86,192.99,221.84,193.21,221.81z"/>
	<path class="st2" d="M194.38,222.88v-7.06h1.2v7.06H194.38z M194.38,214.52v-1.38h1.2v1.38H194.38z"/>
	<path class="st2" d="M198.19,219.35c0,0.9,0.2,1.58,0.59,2.03c0.39,0.45,0.89,0.67,1.49,0.67c0.59,0,1.09-0.23,1.48-0.68
		c0.39-0.45,0.59-1.14,0.59-2.07c0-0.87-0.2-1.53-0.6-1.98c-0.4-0.45-0.89-0.67-1.48-0.67c-0.6,0-1.09,0.22-1.49,0.67
		C198.38,217.77,198.19,218.45,198.19,219.35z M196.96,219.35c0-1.31,0.36-2.28,1.09-2.91c0.61-0.52,1.35-0.78,2.22-0.78
		c0.97,0,1.76,0.32,2.38,0.95c0.62,0.64,0.93,1.51,0.93,2.64c0,0.91-0.14,1.62-0.41,2.14c-0.27,0.52-0.67,0.92-1.19,1.21
		c-0.52,0.29-1.09,0.43-1.7,0.43c-0.99,0-1.79-0.32-2.4-0.95C197.26,221.46,196.96,220.54,196.96,219.35z"/>
	<path class="st2" d="M211.04,225.75c-0.66-0.83-1.22-1.81-1.68-2.92c-0.46-1.12-0.68-2.27-0.68-3.47c0-1.05,0.17-2.07,0.51-3.03
		c0.4-1.12,1.01-2.24,1.85-3.35h0.86c-0.54,0.92-0.89,1.58-1.06,1.97c-0.27,0.61-0.48,1.25-0.64,1.91c-0.19,0.83-0.28,1.66-0.28,2.5
		c0,2.13,0.66,4.26,1.99,6.39H211.04z"/>
	<path class="st2" d="M216.99,215.27c1.38-0.02,2.06,0.68,2.05,2.11c0,0,0.35-0.65,1.04-1.95h1.09l-2.15,4.03l-0.02,1.45
		c0,0.22,0.06,0.42,0.18,0.6c0.14,0.21,0.28,0.32,0.42,0.32h0.59l-0.2,1.04h-0.74c-0.42,0-0.78-0.19-1.08-0.56
		c-0.14-0.19-0.21-0.47-0.22-0.86c-0.29,0.47-0.68,0.91-1.18,1.32c-0.24,0.19-0.67,0.28-1.3,0.27c-1.04-0.01-1.74-0.35-2.12-1.01
		c-0.39-0.69-0.46-1.65-0.22-2.87c0.26-1.32,0.72-2.27,1.4-2.87C215.29,215.63,216.11,215.29,216.99,215.27z M217.96,219.42
		l0.01-1.54c0-1.05-0.39-1.57-1.18-1.58c-0.59,0-1.07,0.24-1.44,0.73c-0.46,0.61-0.77,1.32-0.93,2.13c-0.19,0.98-0.17,1.7,0.07,2.16
		c0.25,0.47,0.64,0.71,1.18,0.71c0.59,0,1.14-0.47,1.64-1.42L217.96,219.42z"/>
	<path class="st2" d="M223.04,225.75h-0.86c1.32-2.13,1.99-4.26,1.99-6.39c0-0.83-0.1-1.66-0.29-2.48c-0.15-0.66-0.36-1.3-0.63-1.91
		c-0.17-0.4-0.53-1.06-1.07-1.99h0.86c0.83,1.11,1.45,2.23,1.85,3.35c0.34,0.97,0.51,1.98,0.51,3.03c0,1.2-0.23,2.35-0.69,3.47
		C224.25,223.94,223.7,224.91,223.04,225.75z"/>
	<line class="st1" x1="55.81" y1="140.69" x2="52.84" y2="140.69"/>
	<path class="st2" d="M32.73,140.75c0,1.6,0.19,2.66,0.56,3.19c0.37,0.53,0.84,0.79,1.38,0.79c0.55,0,1.01-0.27,1.39-0.8
		s0.56-1.6,0.56-3.19c0-1.6-0.19-2.67-0.56-3.2c-0.37-0.53-0.84-0.79-1.4-0.79c-0.55,0-0.99,0.23-1.32,0.7
		C32.94,138.06,32.73,139.15,32.73,140.75z M31.5,140.75c0-1.15,0.12-2.08,0.36-2.78c0.24-0.7,0.59-1.24,1.05-1.62
		c0.47-0.38,1.06-0.57,1.77-0.57c0.52,0,0.98,0.11,1.38,0.32c0.39,0.21,0.72,0.51,0.98,0.91c0.26,0.4,0.46,0.88,0.61,1.45
		c0.15,0.57,0.22,1.34,0.22,2.3c0,1.14-0.12,2.07-0.35,2.77c-0.23,0.7-0.58,1.24-1.05,1.63c-0.47,0.38-1.06,0.57-1.77,0.57
		c-0.94,0-1.68-0.34-2.21-1.01C31.82,143.9,31.5,142.58,31.5,140.75z"/>
	<rect x="39.74" y="144.19" class="st2" width="1.36" height="1.36"/>
	<path class="st2" d="M44.18,142.4c0,0.41,0.09,0.81,0.26,1.18c0.17,0.38,0.42,0.66,0.73,0.86c0.31,0.2,0.65,0.3,0.99,0.3
		c0.5,0,0.94-0.2,1.3-0.61c0.36-0.41,0.55-0.96,0.55-1.66c0-0.67-0.18-1.2-0.54-1.59c-0.36-0.39-0.81-0.58-1.35-0.58
		c-0.54,0-1,0.19-1.38,0.58C44.37,141.26,44.18,141.77,44.18,142.4z M49.06,138.2l-1.19,0.09c-0.11-0.47-0.26-0.81-0.45-1.02
		c-0.32-0.34-0.72-0.51-1.2-0.51c-0.38,0-0.72,0.11-1,0.32c-0.38,0.28-0.67,0.68-0.89,1.2c-0.22,0.53-0.33,1.28-0.34,2.25
		c0.29-0.44,0.64-0.76,1.06-0.98s0.85-0.32,1.31-0.32c0.8,0,1.48,0.29,2.04,0.88c0.56,0.59,0.84,1.35,0.84,2.28
		c0,0.61-0.13,1.18-0.4,1.71s-0.63,0.93-1.09,1.21s-0.98,0.42-1.57,0.42c-1,0-1.81-0.37-2.44-1.1c-0.63-0.73-0.94-1.94-0.94-3.63
		c0-1.88,0.35-3.25,1.04-4.11c0.61-0.74,1.42-1.12,2.45-1.12c0.77,0,1.4,0.21,1.88,0.64C48.67,136.85,48.96,137.44,49.06,138.2z"/>
	<line class="st1" x1="55.81" y1="89.82" x2="52.84" y2="89.82"/>
	<path class="st2" d="M32.73,89.89c0,1.6,0.19,2.66,0.56,3.19c0.37,0.53,0.84,0.79,1.38,0.79c0.55,0,1.01-0.27,1.39-0.8
		c0.37-0.53,0.56-1.6,0.56-3.19c0-1.6-0.19-2.67-0.56-3.2c-0.37-0.53-0.84-0.79-1.4-0.79c-0.55,0-0.99,0.23-1.32,0.7
		C32.94,87.19,32.73,88.29,32.73,89.89z M31.5,89.89c0-1.15,0.12-2.08,0.36-2.78c0.24-0.7,0.59-1.24,1.05-1.62
		c0.47-0.38,1.06-0.57,1.77-0.57c0.52,0,0.98,0.11,1.38,0.32c0.39,0.21,0.72,0.51,0.98,0.91c0.26,0.4,0.46,0.88,0.61,1.45
		c0.15,0.57,0.22,1.34,0.22,2.3c0,1.14-0.12,2.07-0.35,2.77c-0.23,0.7-0.58,1.24-1.05,1.63c-0.47,0.38-1.06,0.57-1.77,0.57
		c-0.94,0-1.68-0.34-2.21-1.01C31.82,93.04,31.5,91.72,31.5,89.89z"/>
	<rect x="39.74" y="93.33" class="st2" width="1.36" height="1.36"/>
	<path class="st2" d="M44.07,91.88c0,0.34,0.08,0.67,0.24,0.99c0.16,0.32,0.4,0.57,0.72,0.74c0.32,0.17,0.66,0.26,1.03,0.26
		c0.57,0,1.04-0.18,1.41-0.55c0.37-0.37,0.56-0.84,0.56-1.4c0-0.58-0.19-1.05-0.57-1.43s-0.86-0.57-1.44-0.57
		c-0.56,0-1.03,0.19-1.4,0.56C44.26,90.86,44.07,91.33,44.07,91.88z M44.46,87.38c0,0.46,0.15,0.84,0.44,1.13
		c0.3,0.29,0.68,0.44,1.16,0.44c0.46,0,0.84-0.14,1.13-0.43c0.29-0.29,0.44-0.65,0.44-1.07c0-0.44-0.15-0.81-0.46-1.11
		c-0.3-0.3-0.68-0.45-1.13-0.45c-0.46,0-0.84,0.15-1.14,0.44C44.61,86.63,44.46,86.98,44.46,87.38z M44.69,89.41
		c-0.5-0.18-0.86-0.44-1.1-0.78c-0.24-0.34-0.36-0.74-0.36-1.21c0-0.71,0.25-1.3,0.76-1.79c0.51-0.48,1.19-0.73,2.03-0.73
		c0.85,0,1.54,0.25,2.05,0.74c0.52,0.49,0.78,1.09,0.78,1.8c0,0.45-0.12,0.85-0.36,1.18c-0.24,0.33-0.6,0.59-1.08,0.77
		c0.6,0.19,1.05,0.51,1.37,0.94c0.31,0.43,0.47,0.95,0.47,1.55c0,0.83-0.29,1.53-0.88,2.1c-0.59,0.57-1.36,0.85-2.32,0.85
		c-0.96,0-1.74-0.28-2.33-0.85c-0.59-0.57-0.88-1.28-0.88-2.13c0-0.63,0.16-1.16,0.48-1.59C43.65,89.86,44.1,89.57,44.69,89.41z"/>
	<line class="st1" x1="55.81" y1="38.96" x2="52.84" y2="38.96"/>
	<path class="st2" d="M36.01,43.83h-1.2v-7.62c-0.29,0.27-0.67,0.55-1.13,0.82c-0.47,0.28-0.89,0.48-1.26,0.62V36.5
		c0.67-0.31,1.25-0.7,1.75-1.14c0.5-0.45,0.85-0.88,1.06-1.3h0.77V43.83z"/>
	<rect x="39.74" y="42.47" class="st2" width="1.36" height="1.36"/>
	<path class="st2" d="M44.08,39.03c0,1.6,0.19,2.66,0.56,3.19c0.37,0.53,0.84,0.79,1.38,0.79c0.55,0,1.01-0.27,1.39-0.8
		s0.56-1.6,0.56-3.19c0-1.6-0.19-2.67-0.56-3.2c-0.37-0.53-0.84-0.79-1.4-0.79c-0.55,0-0.99,0.23-1.32,0.7
		C44.29,36.33,44.08,37.43,44.08,39.03z M42.86,39.03c0-1.15,0.12-2.08,0.36-2.78c0.24-0.7,0.59-1.24,1.05-1.62
		c0.47-0.38,1.06-0.57,1.77-0.57c0.52,0,0.98,0.11,1.38,0.32c0.39,0.21,0.72,0.51,0.98,0.91c0.26,0.4,0.46,0.88,0.61,1.45
		c0.15,0.57,0.22,1.34,0.22,2.3c0,1.14-0.12,2.07-0.35,2.77c-0.23,0.7-0.58,1.24-1.05,1.63C47.34,43.81,46.75,44,46.03,44
		c-0.94,0-1.68-0.34-2.21-1.01C43.18,42.18,42.86,40.86,42.86,39.03z"/>
	<path class="st2" d="M20.67,169.42v-3.3l-2.7,1.02c-0.82,0.31-1.49,0.54-2.02,0.69c0.63,0.12,1.25,0.3,1.86,0.53L20.67,169.42z
		 M24.67,172.23l-9.74-3.74v-1.39l9.74-3.99v1.47l-2.95,1.14v4.07l2.95,1.07L24.67,172.23z"/>
	<path class="st2" d="M22.08,157.63l0.15-1.18c0.81,0.13,1.45,0.46,1.91,0.99c0.46,0.53,0.69,1.18,0.69,1.95
		c0,0.97-0.32,1.74-0.95,2.33c-0.63,0.59-1.54,0.88-2.72,0.88c-0.76,0-1.43-0.13-2-0.38c-0.57-0.25-1-0.64-1.29-1.15
		c-0.29-0.52-0.43-1.08-0.43-1.69c0-0.77,0.19-1.39,0.58-1.88c0.39-0.49,0.94-0.8,1.65-0.94l0.18,1.16
		c-0.47,0.11-0.83,0.31-1.07,0.59c-0.24,0.28-0.36,0.62-0.36,1.02c0,0.6,0.22,1.09,0.65,1.47c0.43,0.38,1.11,0.56,2.05,0.56
		c0.95,0,1.64-0.18,2.07-0.54c0.43-0.36,0.64-0.84,0.64-1.42c0-0.47-0.14-0.86-0.43-1.18C23.13,157.92,22.68,157.72,22.08,157.63z"
		/>
	<path class="st2" d="M22.08,150.83l0.15-1.18c0.81,0.13,1.45,0.46,1.91,0.99c0.46,0.53,0.69,1.18,0.69,1.95
		c0,0.97-0.32,1.74-0.95,2.33c-0.63,0.59-1.54,0.88-2.72,0.88c-0.76,0-1.43-0.13-2-0.38c-0.57-0.25-1-0.64-1.29-1.15
		c-0.29-0.52-0.43-1.08-0.43-1.69c0-0.77,0.19-1.39,0.58-1.88c0.39-0.49,0.94-0.8,1.65-0.94l0.18,1.16
		c-0.47,0.11-0.83,0.31-1.07,0.59c-0.24,0.28-0.36,0.62-0.36,1.02c0,0.6,0.22,1.09,0.65,1.47c0.43,0.38,1.11,0.56,2.05,0.56
		c0.95,0,1.64-0.18,2.07-0.54c0.43-0.36,0.64-0.84,0.64-1.42c0-0.47-0.14-0.86-0.43-1.18C23.13,151.11,22.68,150.91,22.08,150.83z"
		/>
	<path class="st2" d="M24.67,144h-1.04c0.8,0.55,1.2,1.3,1.2,2.24c0,0.42-0.08,0.81-0.24,1.17c-0.16,0.36-0.36,0.63-0.6,0.8
		c-0.24,0.17-0.54,0.3-0.89,0.37c-0.23,0.05-0.61,0.07-1.12,0.07h-4.37v-1.2h3.92c0.62,0,1.04-0.02,1.26-0.07
		c0.31-0.08,0.56-0.23,0.74-0.48c0.18-0.24,0.27-0.55,0.27-0.9c0-0.36-0.09-0.7-0.28-1.01c-0.18-0.31-0.43-0.54-0.75-0.67
		c-0.32-0.13-0.78-0.2-1.38-0.2h-3.78v-1.2h7.06V144z"/>
	<path class="st2" d="M24.67,141.07h-7.06v-1.08h1.07c-0.5-0.28-0.83-0.53-0.99-0.76c-0.16-0.23-0.24-0.49-0.24-0.77
		c0-0.4,0.13-0.81,0.38-1.23l1.11,0.41c-0.17,0.29-0.26,0.58-0.26,0.88c0,0.26,0.08,0.5,0.24,0.71c0.16,0.21,0.38,0.36,0.66,0.44
		c0.43,0.13,0.89,0.2,1.4,0.2h3.7V141.07z"/>
	<path class="st2" d="M21.13,132.02c0.18,0.44,0.33,1.09,0.45,1.95c0.07,0.49,0.15,0.84,0.24,1.04c0.09,0.2,0.22,0.36,0.39,0.47
		c0.17,0.11,0.36,0.17,0.57,0.17c0.32,0,0.58-0.12,0.8-0.36c0.21-0.24,0.32-0.6,0.32-1.06c0-0.46-0.1-0.87-0.3-1.23
		c-0.2-0.36-0.48-0.62-0.83-0.79c-0.27-0.13-0.67-0.19-1.2-0.19H21.13z M23.8,131.92c0.38,0.44,0.64,0.87,0.8,1.28
		c0.15,0.41,0.23,0.85,0.23,1.32c0,0.78-0.19,1.37-0.57,1.79s-0.86,0.63-1.45,0.63c-0.35,0-0.66-0.08-0.95-0.24
		c-0.29-0.16-0.52-0.36-0.69-0.62c-0.17-0.26-0.3-0.54-0.39-0.86c-0.06-0.23-0.12-0.59-0.18-1.06c-0.11-0.97-0.25-1.68-0.41-2.13
		c-0.16,0-0.27-0.01-0.31-0.01c-0.49,0-0.83,0.11-1.03,0.34c-0.27,0.3-0.4,0.76-0.4,1.36c0,0.56,0.1,0.98,0.3,1.25
		c0.2,0.27,0.55,0.47,1.05,0.6l-0.16,1.17c-0.5-0.11-0.9-0.28-1.21-0.53c-0.31-0.24-0.54-0.6-0.71-1.06
		c-0.17-0.46-0.25-0.99-0.25-1.6c0-0.6,0.07-1.09,0.21-1.47c0.14-0.38,0.32-0.65,0.54-0.83c0.21-0.18,0.49-0.3,0.81-0.37
		c0.2-0.04,0.57-0.06,1.1-0.06h1.6c1.11,0,1.82-0.03,2.11-0.08c0.29-0.05,0.58-0.15,0.85-0.3v1.25
		C24.42,131.8,24.13,131.88,23.8,131.92z"/>
	<path class="st2" d="M22.08,124.35l0.15-1.18c0.81,0.13,1.45,0.46,1.91,0.99c0.46,0.53,0.69,1.18,0.69,1.95
		c0,0.97-0.32,1.74-0.95,2.33c-0.63,0.59-1.54,0.88-2.72,0.88c-0.76,0-1.43-0.13-2-0.38c-0.57-0.25-1-0.64-1.29-1.15
		c-0.29-0.52-0.43-1.08-0.43-1.69c0-0.77,0.19-1.39,0.58-1.88c0.39-0.49,0.94-0.8,1.65-0.94l0.18,1.16
		c-0.47,0.11-0.83,0.31-1.07,0.59c-0.24,0.28-0.36,0.62-0.36,1.02c0,0.6,0.22,1.09,0.65,1.47c0.43,0.38,1.11,0.56,2.05,0.56
		c0.95,0,1.64-0.18,2.07-0.54c0.43-0.36,0.64-0.84,0.64-1.42c0-0.47-0.14-0.86-0.43-1.18C23.13,124.63,22.68,124.43,22.08,124.35z"
		/>
	<path class="st2" d="M27.39,122.2l-1.12,0.13c0.07-0.26,0.11-0.49,0.11-0.68c0-0.27-0.04-0.48-0.13-0.64
		c-0.09-0.16-0.21-0.29-0.37-0.39c-0.12-0.08-0.42-0.2-0.89-0.37c-0.07-0.02-0.16-0.06-0.29-0.11l-7.07,2.68v-1.29l4.09-1.47
		c0.52-0.19,1.06-0.36,1.64-0.51c-0.55-0.14-1.09-0.3-1.61-0.49l-4.12-1.51v-1.2l7.18,2.69c0.78,0.29,1.31,0.51,1.6,0.67
		c0.4,0.21,0.68,0.46,0.87,0.73c0.18,0.28,0.28,0.6,0.28,0.98C27.54,121.66,27.49,121.92,27.39,122.2z"/>
	<path class="st2" d="M21.14,110.78c0.9,0,1.58-0.2,2.03-0.59c0.45-0.39,0.67-0.89,0.67-1.49c0-0.59-0.23-1.09-0.68-1.48
		c-0.45-0.39-1.14-0.59-2.07-0.59c-0.87,0-1.53,0.2-1.98,0.6c-0.45,0.4-0.67,0.89-0.67,1.48c0,0.6,0.22,1.09,0.67,1.49
		C19.56,110.58,20.24,110.78,21.14,110.78z M21.14,112.01c-1.31,0-2.28-0.36-2.91-1.09c-0.52-0.61-0.78-1.35-0.78-2.22
		c0-0.97,0.32-1.76,0.95-2.38c0.64-0.62,1.51-0.93,2.64-0.93c0.91,0,1.62,0.14,2.14,0.41c0.52,0.27,0.92,0.67,1.21,1.19
		c0.29,0.52,0.43,1.09,0.43,1.7c0,0.99-0.32,1.79-0.95,2.4C23.25,111.7,22.33,112.01,21.14,112.01z"/>
	<path class="st2" d="M24.67,103.99h-7.06v-1.08h1c-0.78-0.52-1.16-1.27-1.16-2.25c0-0.43,0.08-0.82,0.23-1.17
		c0.15-0.36,0.35-0.62,0.6-0.8c0.25-0.18,0.54-0.3,0.88-0.37c0.22-0.04,0.61-0.07,1.16-0.07h4.34v1.2h-4.29
		c-0.49,0-0.85,0.05-1.09,0.14c-0.24,0.09-0.43,0.26-0.58,0.49c-0.14,0.24-0.22,0.51-0.22,0.83c0,0.51,0.16,0.95,0.48,1.32
		c0.32,0.37,0.94,0.56,1.84,0.56h3.86V103.99z"/>
	<polygon class="st2" points="24.67,90.25 16.08,90.25 16.08,93.46 14.93,93.46 14.93,85.73 16.08,85.73 16.08,88.96 24.67,88.96 	
		"/>
	<path class="st2" d="M20.46,85.17v-3.94c-0.59,0.05-1.04,0.2-1.34,0.45c-0.46,0.38-0.69,0.88-0.69,1.48c0,0.55,0.18,1.01,0.55,1.39
		C19.36,84.93,19.85,85.13,20.46,85.17z M22.4,81.25l0.15-1.24c0.72,0.19,1.28,0.56,1.68,1.08c0.4,0.53,0.6,1.2,0.6,2.02
		c0,1.03-0.32,1.85-0.95,2.46c-0.64,0.61-1.53,0.91-2.68,0.91c-1.19,0-2.11-0.31-2.76-0.92c-0.66-0.61-0.98-1.41-0.98-2.38
		c0-0.94,0.32-1.72,0.96-2.31c0.64-0.6,1.55-0.9,2.71-0.9c0.07,0,0.18,0,0.32,0.01v5.26c0.78-0.04,1.37-0.26,1.78-0.66
		c0.41-0.39,0.62-0.89,0.62-1.48c0-0.44-0.11-0.81-0.34-1.12C23.27,81.67,22.9,81.43,22.4,81.25z"/>
	<path class="st2" d="M22.56,78.99l-0.19-1.18c0.47-0.07,0.84-0.25,1.09-0.56c0.25-0.3,0.38-0.73,0.38-1.27
		c0-0.55-0.11-0.96-0.33-1.22c-0.22-0.27-0.49-0.4-0.79-0.4c-0.27,0-0.48,0.12-0.64,0.35c-0.11,0.16-0.24,0.57-0.4,1.22
		c-0.22,0.88-0.41,1.48-0.58,1.82s-0.38,0.6-0.67,0.77c-0.29,0.17-0.6,0.26-0.95,0.26c-0.31,0-0.6-0.07-0.87-0.21
		c-0.27-0.14-0.49-0.34-0.67-0.59c-0.14-0.19-0.25-0.44-0.35-0.76c-0.1-0.32-0.14-0.67-0.14-1.04c0-0.55,0.08-1.04,0.24-1.46
		c0.16-0.42,0.38-0.73,0.65-0.93c0.27-0.2,0.64-0.34,1.09-0.41l0.16,1.17c-0.36,0.05-0.65,0.21-0.85,0.46
		c-0.2,0.26-0.31,0.62-0.31,1.08c0,0.55,0.09,0.94,0.27,1.18c0.18,0.24,0.39,0.35,0.64,0.35c0.15,0,0.29-0.05,0.42-0.15
		c0.13-0.1,0.23-0.25,0.32-0.46c0.04-0.12,0.15-0.47,0.3-1.06c0.23-0.85,0.41-1.44,0.56-1.77c0.14-0.33,0.35-0.6,0.63-0.79
		c0.27-0.19,0.61-0.29,1.02-0.29c0.4,0,0.77,0.12,1.13,0.35c0.35,0.23,0.62,0.57,0.82,1.01c0.19,0.44,0.29,0.93,0.29,1.49
		c0,0.92-0.19,1.62-0.57,2.1C23.88,78.55,23.31,78.85,22.56,78.99z"/>
	<path class="st2" d="M23.6,69.09l1.06-0.17c0.07,0.34,0.11,0.64,0.11,0.9c0,0.43-0.07,0.77-0.21,1.01
		c-0.14,0.24-0.32,0.41-0.54,0.5c-0.22,0.1-0.69,0.15-1.41,0.15h-4.06v0.88h-0.93v-0.88h-1.75l-0.72-1.19h2.46v-1.2h0.93v1.2h4.13
		c0.34,0,0.56-0.02,0.66-0.06c0.1-0.04,0.17-0.11,0.23-0.21c0.06-0.09,0.09-0.23,0.09-0.41C23.65,69.48,23.63,69.31,23.6,69.09z"/>
	<path class="st2" d="M22.56,68.4l-0.19-1.18c0.47-0.07,0.84-0.25,1.09-0.56c0.25-0.3,0.38-0.73,0.38-1.27
		c0-0.55-0.11-0.96-0.33-1.22c-0.22-0.27-0.49-0.4-0.79-0.4c-0.27,0-0.48,0.12-0.64,0.35c-0.11,0.16-0.24,0.57-0.4,1.22
		c-0.22,0.88-0.41,1.48-0.58,1.82c-0.16,0.34-0.38,0.6-0.67,0.77c-0.29,0.17-0.6,0.26-0.95,0.26c-0.31,0-0.6-0.07-0.87-0.21
		c-0.27-0.14-0.49-0.34-0.67-0.59c-0.14-0.19-0.25-0.44-0.35-0.76c-0.1-0.32-0.14-0.67-0.14-1.04c0-0.55,0.08-1.04,0.24-1.46
		c0.16-0.42,0.38-0.73,0.65-0.93c0.27-0.2,0.64-0.34,1.09-0.41l0.16,1.17c-0.36,0.05-0.65,0.21-0.85,0.46
		c-0.2,0.26-0.31,0.62-0.31,1.08c0,0.55,0.09,0.94,0.27,1.18c0.18,0.24,0.39,0.35,0.64,0.35c0.15,0,0.29-0.05,0.42-0.15
		c0.13-0.1,0.23-0.25,0.32-0.46c0.04-0.12,0.15-0.47,0.3-1.06c0.23-0.85,0.41-1.44,0.56-1.77c0.14-0.33,0.35-0.6,0.63-0.79
		c0.27-0.19,0.61-0.29,1.02-0.29c0.4,0,0.77,0.12,1.13,0.35c0.35,0.23,0.62,0.57,0.82,1.01c0.19,0.44,0.29,0.93,0.29,1.49
		c0,0.92-0.19,1.62-0.57,2.1C23.88,67.96,23.31,68.27,22.56,68.4z"/>
	<path class="st2" d="M20.46,60.21v-3.94c-0.59,0.05-1.04,0.2-1.34,0.45c-0.46,0.38-0.69,0.88-0.69,1.48c0,0.55,0.18,1.01,0.55,1.39
		C19.36,59.97,19.85,60.17,20.46,60.21z M22.4,56.28l0.15-1.24c0.72,0.19,1.28,0.56,1.68,1.08c0.4,0.53,0.6,1.2,0.6,2.02
		c0,1.03-0.32,1.85-0.95,2.46c-0.64,0.61-1.53,0.91-2.68,0.91c-1.19,0-2.11-0.31-2.76-0.92c-0.66-0.61-0.98-1.41-0.98-2.38
		c0-0.94,0.32-1.72,0.96-2.31c0.64-0.6,1.55-0.9,2.71-0.9c0.07,0,0.18,0,0.32,0.01v5.26c0.78-0.04,1.37-0.26,1.78-0.66
		c0.41-0.39,0.62-0.89,0.62-1.48c0-0.44-0.11-0.81-0.34-1.12C23.27,56.71,22.9,56.47,22.4,56.28z"/>
	<path class="st2" d="M23.6,50.93l1.06-0.17c0.07,0.34,0.11,0.64,0.11,0.9c0,0.43-0.07,0.77-0.21,1.01
		c-0.14,0.24-0.32,0.41-0.54,0.5c-0.22,0.1-0.69,0.15-1.41,0.15h-4.06v0.88h-0.93v-0.88h-1.75l-0.72-1.19h2.46v-1.2h0.93v1.2h4.13
		c0.34,0,0.56-0.02,0.66-0.06c0.1-0.04,0.17-0.11,0.23-0.21c0.06-0.1,0.09-0.23,0.09-0.41C23.65,51.33,23.63,51.15,23.6,50.93z"/>
</g>
<g>
	<defs>
		<rect id="SVGID_5_" x="55.81" y="31.71" width="243.47" height="159.45"/>
	</defs>
	<clipPath id="SVGID_6_">
		<use xlink:href="#SVGID_5_"  style="overflow:visible;"/>
	</clipPath>
	<polyline class="st3" points="66.88,173.75 74.26,120.34 81.64,100 89.01,59.31 96.39,77.11 103.77,56.76 111.15,64.39 
		118.52,44.05 125.9,51.68 133.28,38.96 140.66,38.96 148.04,38.96 155.41,38.96 162.79,38.96 170.17,38.96 177.55,38.96 
		184.93,38.96 192.3,41.5 199.68,38.96 207.06,38.96 214.44,38.96 221.81,38.96 229.19,38.96 236.57,38.96 243.95,38.96 
		251.33,38.96 258.7,38.96 266.08,38.96 273.46,41.5 280.84,38.96 288.22,38.96 	"/>
</g>
<g>
	<defs>
		<rect id="SVGID_7_" x="55.81" y="31.71" width="243.47" height="159.45"/>
	</defs>
	<clipPath id="SVGID_8_">
		<use xlink:href="#SVGID_7_"  style="overflow:visible;"/>
	</clipPath>
	<polyline class="st4" points="66.88,173.75 74.26,183.92 81.64,161.03 89.01,173.75 96.39,158.49 103.77,150.86 111.15,138.14 
		118.52,133.06 125.9,140.69 133.28,117.8 140.66,117.8 148.04,105.08 155.41,120.34 162.79,87.28 170.17,100 177.55,82.19 
		184.93,84.74 192.3,94.91 199.68,79.65 207.06,74.57 214.44,84.74 221.81,79.65 229.19,56.76 236.57,72.02 243.95,64.39 
		251.33,69.48 258.7,66.94 266.08,54.22 273.46,74.57 280.84,56.76 288.22,54.22 	"/>
</g>
<g>
	<defs>
		<rect id="SVGID_9_" width="735" height="245"/>
	</defs>
	<clipPath id="SVGID_10_">
		<use xlink:href="#SVGID_9_"  style="overflow:visible;"/>
	</clipPath>
	<line class="st5" x1="55.81" y1="191.17" x2="55.81" y2="31.71"/>
	<line class="st5" x1="299.28" y1="191.17" x2="299.28" y2="31.71"/>
	<line class="st5" x1="55.81" y1="191.17" x2="299.28" y2="191.17"/>
	<line class="st5" x1="55.81" y1="31.71" x2="299.28" y2="31.71"/>
	<path class="st6" d="M59.16,21.81h3.96l-1.22-3.24c-0.37-0.98-0.65-1.79-0.83-2.42c-0.15,0.75-0.36,1.49-0.63,2.23L59.16,21.81z
		 M55.79,26.61l4.49-11.69h1.67l4.79,11.69h-1.76l-1.37-3.54h-4.89l-1.29,3.54H55.79z"/>
	<g class="st7">
		<g>
			<defs>
				<rect id="SVGID_11_" x="153.88" y="139.48" width="140.64" height="47.04"/>
			</defs>
			<clipPath id="SVGID_12_">
				<use xlink:href="#SVGID_11_"  style="overflow:visible;"/>
			</clipPath>
			<path class="st8" d="M159.19,184.36h130.57c1.81,0,2.72-0.91,2.72-2.72v-37.15c0-1.81-0.91-2.72-2.72-2.72H159.19
				c-1.81,0-2.72,0.91-2.72,2.72v37.15C156.47,183.46,157.37,184.36,159.19,184.36z"/>
			<path class="st9" d="M159.19,184.36h130.57c1.81,0,2.72-0.91,2.72-2.72v-37.15c0-1.81-0.91-2.72-2.72-2.72H159.19
				c-1.81,0-2.72,0.91-2.72,2.72v37.15C156.47,183.46,157.37,184.36,159.19,184.36z"/>
		</g>
	</g>
	<line class="st10" x1="161.91" y1="152.2" x2="189.13" y2="152.2"/>
	<polygon class="st6" points="201.14,156.96 201.14,147.22 207.71,147.22 207.71,148.37 202.43,148.37 202.43,151.38 207,151.38 
		207,152.53 202.43,152.53 202.43,156.96 	"/>
	<path class="st6" d="M213.86,156.96v-1.04c-0.55,0.8-1.3,1.2-2.24,1.2c-0.42,0-0.81-0.08-1.17-0.24c-0.36-0.16-0.63-0.36-0.8-0.6
		c-0.17-0.24-0.3-0.54-0.37-0.89c-0.05-0.23-0.07-0.61-0.07-1.12v-4.37h1.2v3.92c0,0.62,0.02,1.04,0.07,1.26
		c0.08,0.31,0.23,0.56,0.48,0.74c0.24,0.18,0.55,0.27,0.9,0.27c0.36,0,0.7-0.09,1.01-0.28c0.31-0.18,0.54-0.43,0.67-0.75
		c0.13-0.32,0.2-0.78,0.2-1.38v-3.78h1.2v7.06H213.86z"/>
	<rect x="216.78" y="147.22" class="st6" width="1.2" height="9.74"/>
	<rect x="219.8" y="147.22" class="st6" width="1.2" height="9.74"/>
	<path class="st6" d="M226.75,156.96v-9.74h1.94l2.31,6.9c0.21,0.64,0.37,1.13,0.47,1.44c0.11-0.35,0.28-0.88,0.52-1.56l2.33-6.78
		h1.74v9.74h-1.24v-8.15l-2.83,8.15h-1.16l-2.82-8.29v8.29H226.75z"/>
	<path class="st6" d="M238.76,153.43c0,0.9,0.2,1.58,0.59,2.03c0.39,0.45,0.89,0.67,1.49,0.67c0.59,0,1.09-0.23,1.48-0.68
		c0.39-0.45,0.59-1.14,0.59-2.07c0-0.87-0.2-1.53-0.6-1.98c-0.4-0.45-0.89-0.67-1.48-0.67c-0.6,0-1.09,0.22-1.49,0.67
		C238.95,151.85,238.76,152.53,238.76,153.43z M237.53,153.43c0-1.31,0.36-2.28,1.09-2.91c0.61-0.52,1.35-0.78,2.22-0.78
		c0.97,0,1.76,0.32,2.38,0.95c0.62,0.64,0.93,1.51,0.93,2.64c0,0.91-0.14,1.62-0.41,2.14c-0.27,0.52-0.67,0.92-1.19,1.21
		c-0.52,0.29-1.09,0.43-1.7,0.43c-0.99,0-1.79-0.32-2.4-0.95C237.83,155.53,237.53,154.62,237.53,153.43z"/>
	<path class="st6" d="M246.34,153.44c0,0.9,0.19,1.58,0.57,2.03c0.38,0.45,0.83,0.67,1.35,0.67c0.52,0,0.97-0.21,1.33-0.64
		c0.37-0.43,0.55-1.08,0.55-1.96c0-0.97-0.19-1.68-0.56-2.13c-0.37-0.45-0.83-0.68-1.37-0.68c-0.53,0-0.98,0.22-1.33,0.65
		C246.52,151.82,246.34,152.5,246.34,153.44z M250.12,156.96v-0.89c-0.45,0.7-1.11,1.05-1.97,1.05c-0.56,0-1.08-0.16-1.55-0.47
		s-0.84-0.74-1.1-1.3c-0.26-0.56-0.39-1.19-0.39-1.92c0-0.7,0.12-1.34,0.35-1.92c0.24-0.57,0.59-1.01,1.06-1.32
		c0.47-0.31,1-0.46,1.58-0.46c0.43,0,0.8,0.09,1.14,0.27c0.33,0.18,0.6,0.41,0.81,0.7v-3.49h1.19v9.74H250.12z"/>
	<path class="st6" d="M254.01,152.75h3.94c-0.05-0.59-0.2-1.04-0.45-1.34c-0.38-0.46-0.88-0.69-1.48-0.69
		c-0.55,0-1.01,0.18-1.39,0.55C254.26,151.64,254.05,152.14,254.01,152.75z M257.94,154.69l1.24,0.15
		c-0.19,0.72-0.56,1.28-1.08,1.68c-0.53,0.4-1.2,0.6-2.02,0.6c-1.03,0-1.85-0.32-2.46-0.95c-0.61-0.64-0.91-1.53-0.91-2.68
		c0-1.19,0.31-2.11,0.92-2.76c0.61-0.66,1.41-0.98,2.38-0.98c0.94,0,1.72,0.32,2.31,0.96c0.6,0.64,0.9,1.55,0.9,2.71
		c0,0.07,0,0.18-0.01,0.32h-5.26c0.04,0.78,0.26,1.37,0.66,1.78c0.39,0.41,0.89,0.62,1.48,0.62c0.44,0,0.81-0.11,1.12-0.34
		C257.51,155.56,257.76,155.19,257.94,154.69z"/>
	<rect x="260.65" y="147.22" class="st6" width="1.2" height="9.74"/>
	<line class="st11" x1="161.91" y1="171.45" x2="189.13" y2="171.45"/>
	<path class="st6" d="M202.81,172.21h3.3l-1.02-2.7c-0.31-0.82-0.54-1.49-0.69-2.02c-0.12,0.63-0.3,1.25-0.53,1.86L202.81,172.21z
		 M200,176.21l3.74-9.74h1.39l3.99,9.74h-1.47l-1.14-2.95h-4.07l-1.07,2.95H200z"/>
	<path class="st6" d="M211.09,172.63c0,0.85,0.12,1.46,0.35,1.83c0.38,0.62,0.89,0.92,1.53,0.92c0.52,0,0.97-0.23,1.35-0.68
		c0.38-0.45,0.57-1.13,0.57-2.03c0-0.92-0.18-1.6-0.55-2.04s-0.81-0.66-1.32-0.66c-0.52,0-0.98,0.23-1.36,0.68
		C211.28,171.11,211.09,171.77,211.09,172.63z M211.1,176.21h-1.11v-9.74h1.2v3.48c0.51-0.63,1.15-0.95,1.94-0.95
		c0.43,0,0.84,0.09,1.23,0.26c0.39,0.17,0.71,0.42,0.96,0.74c0.25,0.32,0.45,0.7,0.59,1.15c0.14,0.45,0.21,0.93,0.21,1.44
		c0,1.21-0.3,2.14-0.9,2.81c-0.6,0.66-1.32,0.99-2.15,0.99c-0.83,0-1.49-0.35-1.96-1.04V176.21z"/>
	<rect x="217.54" y="166.47" class="st6" width="1.2" height="9.74"/>
	<path class="st6" d="M225.1,172.67c-0.44,0.18-1.09,0.33-1.95,0.45c-0.49,0.07-0.84,0.15-1.04,0.24c-0.2,0.09-0.36,0.22-0.47,0.39
		c-0.11,0.17-0.17,0.36-0.17,0.57c0,0.32,0.12,0.58,0.36,0.8c0.24,0.21,0.6,0.32,1.06,0.32c0.46,0,0.87-0.1,1.23-0.3
		c0.36-0.2,0.62-0.48,0.79-0.83c0.13-0.27,0.19-0.67,0.19-1.2V172.67z M225.2,175.34c-0.44,0.38-0.87,0.64-1.28,0.8
		c-0.41,0.15-0.85,0.23-1.32,0.23c-0.78,0-1.37-0.19-1.79-0.57c-0.42-0.38-0.63-0.86-0.63-1.45c0-0.35,0.08-0.66,0.24-0.95
		c0.16-0.29,0.36-0.52,0.62-0.69c0.26-0.17,0.54-0.3,0.86-0.39c0.23-0.06,0.59-0.12,1.06-0.18c0.97-0.11,1.68-0.25,2.13-0.41
		c0-0.16,0.01-0.27,0.01-0.31c0-0.49-0.11-0.83-0.34-1.03c-0.3-0.27-0.76-0.4-1.36-0.4c-0.56,0-0.98,0.1-1.25,0.3
		c-0.27,0.2-0.47,0.55-0.6,1.05l-1.17-0.16c0.11-0.5,0.28-0.9,0.53-1.21s0.6-0.54,1.06-0.71c0.46-0.17,0.99-0.25,1.6-0.25
		c0.6,0,1.09,0.07,1.47,0.21c0.38,0.14,0.65,0.32,0.83,0.54c0.18,0.21,0.3,0.49,0.37,0.81c0.04,0.2,0.06,0.57,0.06,1.1v1.6
		c0,1.11,0.03,1.82,0.08,2.11c0.05,0.29,0.15,0.58,0.3,0.85h-1.25C225.31,175.96,225.23,175.67,225.2,175.34z"/>
	<path class="st6" d="M230.77,175.14l0.17,1.06c-0.34,0.07-0.64,0.11-0.9,0.11c-0.43,0-0.77-0.07-1.01-0.21
		c-0.24-0.14-0.41-0.32-0.5-0.54c-0.1-0.22-0.15-0.69-0.15-1.41v-4.06h-0.88v-0.93h0.88v-1.75l1.19-0.72v2.46h1.2v0.93h-1.2v4.13
		c0,0.34,0.02,0.56,0.06,0.66c0.04,0.1,0.11,0.17,0.21,0.23c0.1,0.06,0.23,0.09,0.41,0.09
		C230.38,175.19,230.56,175.17,230.77,175.14z"/>
	<path class="st6" d="M232.85,172.01h3.94c-0.05-0.59-0.2-1.04-0.45-1.34c-0.38-0.46-0.88-0.69-1.48-0.69
		c-0.55,0-1.01,0.18-1.39,0.55C233.09,170.9,232.89,171.39,232.85,172.01z M236.77,173.94l1.24,0.15c-0.19,0.72-0.56,1.28-1.08,1.68
		c-0.53,0.4-1.2,0.6-2.02,0.6c-1.03,0-1.85-0.32-2.46-0.95c-0.61-0.64-0.91-1.53-0.91-2.68c0-1.19,0.31-2.11,0.92-2.76
		c0.61-0.66,1.41-0.98,2.38-0.98c0.94,0,1.72,0.32,2.31,0.96c0.6,0.64,0.9,1.55,0.9,2.71c0,0.07,0,0.18-0.01,0.32h-5.26
		c0.04,0.78,0.26,1.37,0.66,1.78c0.39,0.41,0.89,0.62,1.48,0.62c0.44,0,0.81-0.11,1.12-0.34
		C236.35,174.81,236.59,174.44,236.77,173.94z"/>
	<path class="st6" d="M240.31,172.69c0,0.9,0.19,1.58,0.57,2.03c0.38,0.45,0.83,0.67,1.35,0.67c0.52,0,0.97-0.21,1.33-0.64
		c0.37-0.43,0.55-1.08,0.55-1.96c0-0.97-0.19-1.68-0.56-2.13c-0.37-0.45-0.83-0.68-1.37-0.68c-0.53,0-0.98,0.22-1.33,0.65
		C240.49,171.07,240.31,171.76,240.31,172.69z M244.09,176.21v-0.89c-0.45,0.7-1.11,1.05-1.97,1.05c-0.56,0-1.08-0.16-1.55-0.47
		c-0.47-0.31-0.84-0.74-1.1-1.3c-0.26-0.56-0.39-1.19-0.39-1.92c0-0.7,0.12-1.34,0.35-1.92c0.24-0.57,0.59-1.01,1.06-1.32
		c0.47-0.31,1-0.46,1.58-0.46c0.43,0,0.8,0.09,1.14,0.27c0.33,0.18,0.6,0.41,0.81,0.7v-3.49h1.19v9.74H244.09z"/>
	<path class="st6" d="M250.98,176.21v-9.74h1.94l2.31,6.9c0.21,0.64,0.37,1.13,0.47,1.44c0.11-0.35,0.28-0.88,0.52-1.56l2.33-6.78
		h1.74v9.74h-1.24v-8.15l-2.83,8.15h-1.16l-2.82-8.29v8.29H250.98z"/>
	<path class="st6" d="M262.99,172.68c0,0.9,0.2,1.58,0.59,2.03c0.39,0.45,0.89,0.67,1.49,0.67c0.59,0,1.09-0.23,1.48-0.68
		c0.39-0.45,0.59-1.14,0.59-2.07c0-0.87-0.2-1.53-0.6-1.98c-0.4-0.45-0.89-0.67-1.48-0.67c-0.6,0-1.09,0.22-1.49,0.67
		C263.18,171.1,262.99,171.78,262.99,172.68z M261.76,172.68c0-1.31,0.36-2.28,1.09-2.91c0.61-0.52,1.35-0.78,2.22-0.78
		c0.97,0,1.76,0.32,2.38,0.95c0.62,0.64,0.93,1.51,0.93,2.64c0,0.91-0.14,1.62-0.41,2.14c-0.27,0.52-0.67,0.92-1.19,1.21
		c-0.52,0.29-1.09,0.43-1.7,0.43c-0.99,0-1.79-0.32-2.4-0.95C262.06,174.79,261.76,173.88,261.76,172.68z"/>
	<path class="st6" d="M270.57,172.69c0,0.9,0.19,1.58,0.57,2.03c0.38,0.45,0.83,0.67,1.35,0.67c0.52,0,0.97-0.21,1.33-0.64
		c0.37-0.43,0.55-1.08,0.55-1.96c0-0.97-0.19-1.68-0.56-2.13c-0.37-0.45-0.83-0.68-1.37-0.68c-0.53,0-0.98,0.22-1.33,0.65
		C270.75,171.07,270.57,171.76,270.57,172.69z M274.35,176.21v-0.89c-0.45,0.7-1.11,1.05-1.97,1.05c-0.56,0-1.08-0.16-1.55-0.47
		s-0.84-0.74-1.1-1.3c-0.26-0.56-0.39-1.19-0.39-1.92c0-0.7,0.12-1.34,0.35-1.92c0.24-0.57,0.59-1.01,1.06-1.32
		c0.47-0.31,1-0.46,1.58-0.46c0.43,0,0.8,0.09,1.14,0.27c0.33,0.18,0.6,0.41,0.81,0.7v-3.49h1.19v9.74H274.35z"/>
	<path class="st6" d="M278.25,172.01h3.94c-0.05-0.59-0.2-1.04-0.45-1.34c-0.38-0.46-0.88-0.69-1.48-0.69
		c-0.55,0-1.01,0.18-1.39,0.55C278.49,170.9,278.29,171.39,278.25,172.01z M282.17,173.94l1.24,0.15c-0.19,0.72-0.56,1.28-1.08,1.68
		c-0.53,0.4-1.2,0.6-2.02,0.6c-1.03,0-1.85-0.32-2.46-0.95c-0.61-0.64-0.91-1.53-0.91-2.68c0-1.19,0.31-2.11,0.92-2.76
		c0.61-0.66,1.41-0.98,2.38-0.98c0.94,0,1.72,0.32,2.31,0.96c0.6,0.64,0.9,1.55,0.9,2.71c0,0.07,0,0.18-0.01,0.32h-5.26
		c0.04,0.78,0.26,1.37,0.66,1.78c0.39,0.41,0.89,0.62,1.48,0.62c0.44,0,0.81-0.11,1.12-0.34
		C281.75,174.81,281.99,174.44,282.17,173.94z"/>
	<rect x="284.88" y="166.47" class="st6" width="1.2" height="9.74"/>
	<rect x="355.09" y="31.71" class="st12" width="365.2" height="159.45"/>
</g>
<g>
	<defs>
		<rect id="SVGID_13_" x="355.09" y="31.71" width="365.2" height="159.45"/>
	</defs>
	<clipPath id="SVGID_14_">
		<use xlink:href="#SVGID_13_"  style="overflow:visible;"/>
	</clipPath>
	<rect x="371.7" y="46.21" class="st13" width="11.54" height="289.92"/>
</g>
<g>
	<defs>
		<rect id="SVGID_15_" x="355.09" y="31.71" width="365.2" height="159.45"/>
	</defs>
	<clipPath id="SVGID_16_">
		<use xlink:href="#SVGID_15_"  style="overflow:visible;"/>
	</clipPath>
	<rect x="384.51" y="57.81" class="st14" width="11.54" height="278.32"/>
</g>
<g>
	<defs>
		<rect id="SVGID_17_" x="355.09" y="31.71" width="365.2" height="159.45"/>
	</defs>
	<clipPath id="SVGID_18_">
		<use xlink:href="#SVGID_17_"  style="overflow:visible;"/>
	</clipPath>
	<rect x="397.33" y="49.11" class="st15" width="11.54" height="287.02"/>
</g>
<g>
	<defs>
		<rect id="SVGID_19_" x="355.09" y="31.71" width="365.2" height="159.45"/>
	</defs>
	<clipPath id="SVGID_20_">
		<use xlink:href="#SVGID_19_"  style="overflow:visible;"/>
	</clipPath>
	<rect x="410.15" y="46.21" class="st16" width="11.54" height="289.92"/>
</g>
<g>
	<defs>
		<rect id="SVGID_21_" x="355.09" y="31.71" width="365.2" height="159.45"/>
	</defs>
	<clipPath id="SVGID_22_">
		<use xlink:href="#SVGID_21_"  style="overflow:visible;"/>
	</clipPath>
	<rect x="422.97" y="49.11" class="st17" width="11.54" height="287.02"/>
</g>
<g>
	<defs>
		<rect id="SVGID_23_" x="355.09" y="31.71" width="365.2" height="159.45"/>
	</defs>
	<clipPath id="SVGID_24_">
		<use xlink:href="#SVGID_23_"  style="overflow:visible;"/>
	</clipPath>
	<rect x="435.79" y="46.21" class="st18" width="11.54" height="289.92"/>
</g>
<g>
	<defs>
		<rect id="SVGID_25_" x="355.09" y="31.71" width="365.2" height="159.45"/>
	</defs>
	<clipPath id="SVGID_26_">
		<use xlink:href="#SVGID_25_"  style="overflow:visible;"/>
	</clipPath>
	<rect x="448.61" y="49.11" class="st19" width="11.54" height="287.02"/>
</g>
<g>
	<defs>
		<rect id="SVGID_27_" x="355.09" y="31.71" width="365.2" height="159.45"/>
	</defs>
	<clipPath id="SVGID_28_">
		<use xlink:href="#SVGID_27_"  style="overflow:visible;"/>
	</clipPath>
	<rect x="461.43" y="54.91" class="st20" width="11.54" height="281.22"/>
</g>
<g>
	<defs>
		<rect id="SVGID_29_" x="355.09" y="31.71" width="365.2" height="159.45"/>
	</defs>
	<clipPath id="SVGID_30_">
		<use xlink:href="#SVGID_29_"  style="overflow:visible;"/>
	</clipPath>
	<rect x="487.06" y="46.21" class="st21" width="11.54" height="289.92"/>
</g>
<g>
	<defs>
		<rect id="SVGID_31_" x="355.09" y="31.71" width="365.2" height="159.45"/>
	</defs>
	<clipPath id="SVGID_32_">
		<use xlink:href="#SVGID_31_"  style="overflow:visible;"/>
	</clipPath>
	<rect x="499.88" y="46.21" class="st22" width="11.54" height="289.92"/>
</g>
<g>
	<defs>
		<rect id="SVGID_33_" x="355.09" y="31.71" width="365.2" height="159.45"/>
	</defs>
	<clipPath id="SVGID_34_">
		<use xlink:href="#SVGID_33_"  style="overflow:visible;"/>
	</clipPath>
	<rect x="512.7" y="46.21" class="st23" width="11.54" height="289.92"/>
</g>
<g>
	<defs>
		<rect id="SVGID_35_" x="355.09" y="31.71" width="365.2" height="159.45"/>
	</defs>
	<clipPath id="SVGID_36_">
		<use xlink:href="#SVGID_35_"  style="overflow:visible;"/>
	</clipPath>
	<rect x="525.52" y="49.11" class="st24" width="11.54" height="287.02"/>
</g>
<g>
	<defs>
		<rect id="SVGID_37_" x="355.09" y="31.71" width="365.2" height="159.45"/>
	</defs>
	<clipPath id="SVGID_38_">
		<use xlink:href="#SVGID_37_"  style="overflow:visible;"/>
	</clipPath>
	<rect x="538.34" y="46.21" class="st25" width="11.54" height="289.92"/>
</g>
<g>
	<defs>
		<rect id="SVGID_39_" x="355.09" y="31.71" width="365.2" height="159.45"/>
	</defs>
	<clipPath id="SVGID_40_">
		<use xlink:href="#SVGID_39_"  style="overflow:visible;"/>
	</clipPath>
	<rect x="551.16" y="46.21" class="st26" width="11.54" height="289.92"/>
</g>
<g>
	<defs>
		<rect id="SVGID_41_" x="355.09" y="31.71" width="365.2" height="159.45"/>
	</defs>
	<clipPath id="SVGID_42_">
		<use xlink:href="#SVGID_41_"  style="overflow:visible;"/>
	</clipPath>
	<rect x="563.98" y="49.11" class="st27" width="11.54" height="287.02"/>
</g>
<g>
	<defs>
		<rect id="SVGID_43_" x="355.09" y="31.71" width="365.2" height="159.45"/>
	</defs>
	<clipPath id="SVGID_44_">
		<use xlink:href="#SVGID_43_"  style="overflow:visible;"/>
	</clipPath>
	<rect x="576.79" y="46.21" class="st28" width="11.54" height="289.92"/>
</g>
<g>
	<defs>
		<rect id="SVGID_45_" x="355.09" y="31.71" width="365.2" height="159.45"/>
	</defs>
	<clipPath id="SVGID_46_">
		<use xlink:href="#SVGID_45_"  style="overflow:visible;"/>
	</clipPath>
	<rect x="602.43" y="173.77" class="st29" width="11.54" height="162.35"/>
</g>
<g>
	<defs>
		<rect id="SVGID_47_" x="355.09" y="31.71" width="365.2" height="159.45"/>
	</defs>
	<clipPath id="SVGID_48_">
		<use xlink:href="#SVGID_47_"  style="overflow:visible;"/>
	</clipPath>
	<rect x="615.25" y="46.21" class="st30" width="11.54" height="289.92"/>
</g>
<g>
	<defs>
		<rect id="SVGID_49_" x="355.09" y="31.71" width="365.2" height="159.45"/>
	</defs>
	<clipPath id="SVGID_50_">
		<use xlink:href="#SVGID_49_"  style="overflow:visible;"/>
	</clipPath>
	<rect x="628.07" y="72.3" class="st31" width="11.54" height="263.82"/>
</g>
<g>
	<defs>
		<rect id="SVGID_51_" x="355.09" y="31.71" width="365.2" height="159.45"/>
	</defs>
	<clipPath id="SVGID_52_">
		<use xlink:href="#SVGID_51_"  style="overflow:visible;"/>
	</clipPath>
	<rect x="640.89" y="46.21" class="st32" width="11.54" height="289.92"/>
</g>
<g>
	<defs>
		<rect id="SVGID_53_" x="355.09" y="31.71" width="365.2" height="159.45"/>
	</defs>
	<clipPath id="SVGID_54_">
		<use xlink:href="#SVGID_53_"  style="overflow:visible;"/>
	</clipPath>
	<rect x="653.71" y="46.21" class="st33" width="11.54" height="289.92"/>
</g>
<g>
	<defs>
		<rect id="SVGID_55_" x="355.09" y="31.71" width="365.2" height="159.45"/>
	</defs>
	<clipPath id="SVGID_56_">
		<use xlink:href="#SVGID_55_"  style="overflow:visible;"/>
	</clipPath>
	<rect x="666.53" y="46.21" class="st34" width="11.54" height="289.92"/>
</g>
<g>
	<defs>
		<rect id="SVGID_57_" x="355.09" y="31.71" width="365.2" height="159.45"/>
	</defs>
	<clipPath id="SVGID_58_">
		<use xlink:href="#SVGID_57_"  style="overflow:visible;"/>
	</clipPath>
	<rect x="679.34" y="46.21" class="st35" width="11.54" height="289.92"/>
</g>
<g>
	<defs>
		<rect id="SVGID_59_" x="355.09" y="31.71" width="365.2" height="159.45"/>
	</defs>
	<clipPath id="SVGID_60_">
		<use xlink:href="#SVGID_59_"  style="overflow:visible;"/>
	</clipPath>
	<rect x="692.16" y="46.21" class="st36" width="11.54" height="289.92"/>
</g>
<g>
	<defs>
		<rect id="SVGID_61_" width="735" height="245"/>
	</defs>
	<clipPath id="SVGID_62_">
		<use xlink:href="#SVGID_61_"  style="overflow:visible;"/>
	</clipPath>
	<line class="st37" x1="421.69" y1="191.17" x2="421.69" y2="194.15"/>
	<path class="st38" d="M402.79,205.71h2.43c0.42,0,0.71-0.02,0.88-0.05c0.3-0.05,0.55-0.14,0.74-0.26c0.2-0.12,0.36-0.31,0.49-0.54
		c0.13-0.24,0.19-0.51,0.19-0.82c0-0.36-0.09-0.68-0.28-0.95c-0.19-0.27-0.44-0.46-0.77-0.57c-0.33-0.11-0.81-0.16-1.43-0.16h-2.25
		V205.71z M402.79,201.22h2.11c0.57,0,0.98-0.04,1.23-0.11c0.33-0.1,0.57-0.26,0.74-0.48c0.17-0.23,0.25-0.51,0.25-0.85
		c0-0.32-0.08-0.61-0.23-0.85c-0.15-0.25-0.38-0.42-0.67-0.51c-0.29-0.09-0.78-0.14-1.48-0.14h-1.95V201.22z M401.5,206.87v-9.74
		h3.66c0.74,0,1.34,0.1,1.79,0.3c0.45,0.2,0.8,0.5,1.05,0.91c0.26,0.41,0.38,0.84,0.38,1.29c0,0.42-0.11,0.81-0.34,1.18
		c-0.23,0.37-0.57,0.66-1.02,0.89c0.59,0.17,1.04,0.47,1.36,0.88c0.32,0.42,0.48,0.91,0.48,1.48c0,0.46-0.1,0.88-0.29,1.27
		c-0.19,0.39-0.43,0.69-0.71,0.91c-0.28,0.21-0.64,0.37-1.07,0.48c-0.43,0.11-0.95,0.16-1.57,0.16H401.5z"/>
	<path class="st38" d="M410.49,206.87v-7.06h1.2v7.06H410.49z M410.49,198.5v-1.38h1.2v1.38H410.49z"/>
	<path class="st38" d="M414.59,203.38c0,0.91,0.18,1.58,0.55,2.01c0.37,0.43,0.81,0.65,1.34,0.65c0.53,0,0.99-0.22,1.37-0.67
		c0.38-0.45,0.57-1.15,0.57-2.09c0-0.9-0.19-1.57-0.56-2.02c-0.37-0.45-0.81-0.67-1.32-0.67c-0.51,0-0.96,0.24-1.35,0.71
		C414.78,201.78,414.59,202.47,414.59,203.38z M413.5,209.57v-9.76h1.09v0.92c0.26-0.36,0.55-0.63,0.87-0.81
		c0.32-0.18,0.72-0.27,1.18-0.27c0.6,0,1.13,0.16,1.6,0.47c0.46,0.31,0.81,0.75,1.04,1.31c0.24,0.56,0.35,1.18,0.35,1.86
		c0,0.72-0.13,1.37-0.39,1.95c-0.26,0.58-0.63,1.02-1.13,1.33c-0.49,0.31-1.01,0.46-1.56,0.46c-0.4,0-0.76-0.08-1.07-0.25
		c-0.32-0.17-0.58-0.38-0.78-0.64v3.44H413.5z"/>
	<path class="st38" d="M421.86,203.34c0,0.9,0.2,1.58,0.59,2.03s0.89,0.67,1.49,0.67c0.59,0,1.09-0.23,1.48-0.68
		c0.39-0.45,0.59-1.14,0.59-2.07c0-0.87-0.2-1.53-0.6-1.98c-0.4-0.45-0.89-0.67-1.48-0.67c-0.6,0-1.09,0.22-1.49,0.67
		C422.06,201.76,421.86,202.43,421.86,203.34z M420.63,203.34c0-1.31,0.36-2.28,1.09-2.91c0.61-0.52,1.35-0.78,2.22-0.78
		c0.97,0,1.76,0.32,2.38,0.95c0.62,0.64,0.93,1.51,0.93,2.64c0,0.91-0.14,1.62-0.41,2.14c-0.27,0.52-0.67,0.92-1.19,1.21
		c-0.52,0.29-1.09,0.43-1.7,0.43c-0.99,0-1.79-0.32-2.4-0.95C420.93,205.44,420.63,204.53,420.63,203.34z"/>
	<rect x="428.62" y="197.12" class="st38" width="1.2" height="9.74"/>
	<path class="st38" d="M436.17,203.32c-0.44,0.18-1.09,0.33-1.95,0.45c-0.49,0.07-0.84,0.15-1.04,0.24
		c-0.2,0.09-0.36,0.22-0.47,0.39c-0.11,0.17-0.17,0.36-0.17,0.57c0,0.32,0.12,0.58,0.36,0.8c0.24,0.21,0.6,0.32,1.06,0.32
		c0.46,0,0.87-0.1,1.23-0.3c0.36-0.2,0.62-0.48,0.79-0.83c0.13-0.27,0.19-0.67,0.19-1.2V203.32z M436.27,206
		c-0.44,0.38-0.87,0.64-1.28,0.8c-0.41,0.15-0.85,0.23-1.32,0.23c-0.78,0-1.37-0.19-1.79-0.57c-0.42-0.38-0.63-0.86-0.63-1.45
		c0-0.35,0.08-0.66,0.24-0.95c0.16-0.29,0.36-0.52,0.62-0.69s0.54-0.3,0.86-0.39c0.23-0.06,0.59-0.12,1.06-0.18
		c0.97-0.11,1.68-0.25,2.13-0.41c0-0.16,0.01-0.27,0.01-0.31c0-0.49-0.11-0.83-0.34-1.03c-0.3-0.27-0.76-0.4-1.36-0.4
		c-0.56,0-0.98,0.1-1.25,0.3c-0.27,0.2-0.47,0.55-0.6,1.05l-1.17-0.16c0.11-0.5,0.28-0.9,0.53-1.21s0.6-0.54,1.06-0.71
		c0.46-0.17,0.99-0.25,1.6-0.25c0.6,0,1.09,0.07,1.47,0.21c0.38,0.14,0.65,0.32,0.83,0.54c0.18,0.21,0.3,0.49,0.37,0.81
		c0.04,0.2,0.06,0.57,0.06,1.1v1.6c0,1.11,0.03,1.82,0.08,2.11c0.05,0.29,0.15,0.58,0.3,0.85h-1.25
		C436.39,206.62,436.31,206.33,436.27,206z"/>
	<path class="st38" d="M439.23,206.87v-7.06h1.08v1.07c0.28-0.5,0.53-0.83,0.76-0.99c0.23-0.16,0.49-0.24,0.77-0.24
		c0.4,0,0.81,0.13,1.23,0.38l-0.41,1.11c-0.29-0.17-0.58-0.26-0.88-0.26c-0.26,0-0.5,0.08-0.71,0.24c-0.21,0.16-0.36,0.38-0.44,0.66
		c-0.13,0.43-0.2,0.89-0.2,1.4v3.7H439.23z"/>
	<line class="st37" x1="537.06" y1="191.17" x2="537.06" y2="194.15"/>
	<path class="st38" d="M511.11,202.87h3.3l-1.02-2.7c-0.31-0.82-0.54-1.49-0.69-2.02c-0.12,0.63-0.3,1.25-0.53,1.86L511.11,202.87z
		 M508.29,206.87l3.74-9.74h1.39l3.99,9.74h-1.47l-1.14-2.95h-4.07l-1.07,2.95H508.29z"/>
	<path class="st38" d="M518.29,206.87v-7.06h1.07v0.99c0.22-0.35,0.52-0.62,0.88-0.83c0.37-0.21,0.79-0.32,1.26-0.32
		c0.52,0,0.95,0.11,1.29,0.33s0.57,0.52,0.71,0.91c0.56-0.82,1.29-1.24,2.18-1.24c0.7,0,1.24,0.19,1.61,0.58
		c0.38,0.39,0.57,0.98,0.57,1.79v4.84h-1.19v-4.45c0-0.48-0.04-0.82-0.12-1.03c-0.08-0.21-0.22-0.38-0.42-0.51
		c-0.2-0.13-0.44-0.19-0.72-0.19c-0.5,0-0.91,0.17-1.24,0.5c-0.33,0.33-0.49,0.86-0.49,1.58v4.1h-1.2v-4.59
		c0-0.53-0.1-0.93-0.29-1.2c-0.19-0.27-0.51-0.4-0.96-0.4c-0.34,0-0.65,0.09-0.93,0.27c-0.28,0.18-0.49,0.44-0.62,0.78
		c-0.13,0.34-0.19,0.83-0.19,1.47v3.66H518.29z"/>
	<path class="st38" d="M534.13,203.32c-0.44,0.18-1.09,0.33-1.95,0.45c-0.49,0.07-0.84,0.15-1.04,0.24
		c-0.2,0.09-0.36,0.22-0.47,0.39c-0.11,0.17-0.17,0.36-0.17,0.57c0,0.32,0.12,0.58,0.36,0.8c0.24,0.21,0.6,0.32,1.06,0.32
		c0.46,0,0.87-0.1,1.23-0.3c0.36-0.2,0.62-0.48,0.79-0.83c0.13-0.27,0.19-0.67,0.19-1.2V203.32z M534.23,206
		c-0.44,0.38-0.87,0.64-1.28,0.8c-0.41,0.15-0.85,0.23-1.32,0.23c-0.78,0-1.37-0.19-1.79-0.57c-0.42-0.38-0.63-0.86-0.63-1.45
		c0-0.35,0.08-0.66,0.24-0.95c0.16-0.29,0.36-0.52,0.62-0.69s0.54-0.3,0.86-0.39c0.23-0.06,0.59-0.12,1.06-0.18
		c0.97-0.11,1.68-0.25,2.13-0.41c0-0.16,0.01-0.27,0.01-0.31c0-0.49-0.11-0.83-0.34-1.03c-0.3-0.27-0.76-0.4-1.36-0.4
		c-0.56,0-0.98,0.1-1.25,0.3c-0.27,0.2-0.47,0.55-0.6,1.05l-1.17-0.16c0.11-0.5,0.28-0.9,0.53-1.21c0.24-0.31,0.6-0.54,1.06-0.71
		c0.46-0.17,0.99-0.25,1.6-0.25c0.6,0,1.09,0.07,1.47,0.21c0.38,0.14,0.65,0.32,0.83,0.54c0.18,0.21,0.3,0.49,0.37,0.81
		c0.04,0.2,0.06,0.57,0.06,1.1v1.6c0,1.11,0.03,1.82,0.08,2.11c0.05,0.29,0.15,0.58,0.3,0.85h-1.25
		C534.35,206.62,534.27,206.33,534.23,206z"/>
	<path class="st38" d="M541.8,204.28l1.18,0.15c-0.13,0.81-0.46,1.45-0.99,1.91c-0.53,0.46-1.18,0.69-1.95,0.69
		c-0.97,0-1.74-0.32-2.33-0.95c-0.59-0.63-0.88-1.54-0.88-2.72c0-0.76,0.13-1.43,0.38-2c0.25-0.57,0.64-1,1.15-1.29
		c0.52-0.29,1.08-0.43,1.69-0.43c0.77,0,1.39,0.19,1.88,0.58c0.49,0.39,0.8,0.94,0.94,1.65l-1.16,0.18
		c-0.11-0.47-0.31-0.83-0.59-1.07c-0.28-0.24-0.62-0.36-1.02-0.36c-0.6,0-1.09,0.22-1.47,0.65c-0.38,0.43-0.56,1.11-0.56,2.05
		c0,0.95,0.18,1.64,0.54,2.07c0.36,0.43,0.84,0.64,1.42,0.64c0.47,0,0.86-0.14,1.18-0.43C541.52,205.32,541.72,204.88,541.8,204.28z
		"/>
	<path class="st38" d="M543.99,206.87v-7.06h1.08v1.07c0.28-0.5,0.53-0.83,0.76-0.99c0.23-0.16,0.49-0.24,0.77-0.24
		c0.4,0,0.81,0.13,1.23,0.38l-0.41,1.11c-0.29-0.17-0.58-0.26-0.88-0.26c-0.26,0-0.5,0.08-0.71,0.24c-0.21,0.16-0.36,0.38-0.44,0.66
		c-0.13,0.43-0.2,0.89-0.2,1.4v3.7H543.99z"/>
	<path class="st38" d="M548.54,206.87v-7.06h1.2v7.06H548.54z M548.54,198.5v-1.38h1.2v1.38H548.54z"/>
	<path class="st38" d="M551.56,206.87v-7.06h1.08v1c0.52-0.78,1.27-1.16,2.25-1.16c0.43,0,0.82,0.08,1.17,0.23s0.62,0.35,0.8,0.6
		c0.18,0.25,0.3,0.54,0.37,0.88c0.04,0.22,0.07,0.61,0.07,1.16v4.34h-1.2v-4.29c0-0.49-0.05-0.85-0.14-1.09
		c-0.09-0.24-0.26-0.43-0.49-0.58c-0.24-0.14-0.51-0.22-0.83-0.22c-0.51,0-0.95,0.16-1.32,0.48c-0.37,0.32-0.56,0.94-0.56,1.84v3.86
		H551.56z"/>
	<path class="st38" d="M560.03,202.66h3.94c-0.05-0.59-0.2-1.04-0.45-1.34c-0.38-0.46-0.88-0.69-1.48-0.69
		c-0.55,0-1.01,0.18-1.39,0.55C560.28,201.55,560.07,202.04,560.03,202.66z M563.96,204.59l1.24,0.15
		c-0.19,0.72-0.56,1.28-1.08,1.68c-0.53,0.4-1.2,0.6-2.02,0.6c-1.03,0-1.85-0.32-2.46-0.95c-0.61-0.64-0.91-1.53-0.91-2.68
		c0-1.19,0.31-2.11,0.92-2.76c0.61-0.66,1.41-0.98,2.38-0.98c0.94,0,1.72,0.32,2.31,0.96c0.6,0.64,0.9,1.55,0.9,2.71
		c0,0.07,0,0.18-0.01,0.32h-5.26c0.04,0.78,0.26,1.37,0.66,1.78c0.39,0.41,0.89,0.62,1.48,0.62c0.44,0,0.81-0.11,1.12-0.34
		C563.53,205.46,563.78,205.1,563.96,204.59z"/>
	<line class="st37" x1="653.07" y1="191.17" x2="653.07" y2="194.15"/>
	<path class="st38" d="M631.44,203.21v-1.14l4.13-0.01v3.62c-0.63,0.51-1.29,0.89-1.96,1.14c-0.67,0.25-1.36,0.38-2.07,0.38
		c-0.96,0-1.83-0.2-2.61-0.61c-0.78-0.41-1.37-1-1.77-1.78c-0.4-0.78-0.6-1.64-0.6-2.6c0-0.95,0.2-1.83,0.59-2.65
		c0.4-0.82,0.97-1.43,1.71-1.83c0.74-0.4,1.6-0.6,2.57-0.6c0.7,0,1.34,0.11,1.91,0.34c0.57,0.23,1.02,0.54,1.34,0.95
		c0.32,0.41,0.57,0.94,0.74,1.6l-1.16,0.32c-0.15-0.5-0.33-0.89-0.55-1.17c-0.22-0.28-0.53-0.51-0.93-0.68
		c-0.4-0.17-0.85-0.26-1.34-0.26c-0.59,0-1.1,0.09-1.53,0.27c-0.43,0.18-0.78,0.41-1.04,0.71c-0.26,0.29-0.47,0.61-0.61,0.96
		c-0.25,0.6-0.37,1.26-0.37,1.96c0,0.87,0.15,1.59,0.45,2.18c0.3,0.58,0.73,1.02,1.31,1.3c0.57,0.28,1.18,0.43,1.82,0.43
		c0.56,0,1.1-0.11,1.64-0.32c0.53-0.22,0.93-0.45,1.21-0.69v-1.81H631.44z"/>
	<path class="st38" d="M641.82,203.49c-0.44,0.18-1.09,0.33-1.95,0.45c-0.49,0.07-0.84,0.15-1.04,0.24
		c-0.2,0.09-0.36,0.22-0.47,0.39c-0.11,0.17-0.17,0.36-0.17,0.57c0,0.32,0.12,0.58,0.36,0.8c0.24,0.21,0.6,0.32,1.06,0.32
		c0.46,0,0.87-0.1,1.23-0.3c0.36-0.2,0.62-0.48,0.79-0.83c0.13-0.27,0.19-0.67,0.19-1.2V203.49z M641.92,206.16
		c-0.44,0.38-0.87,0.64-1.28,0.8c-0.41,0.15-0.85,0.23-1.32,0.23c-0.78,0-1.37-0.19-1.79-0.57c-0.42-0.38-0.63-0.86-0.63-1.45
		c0-0.35,0.08-0.66,0.24-0.95c0.16-0.29,0.36-0.52,0.62-0.69s0.54-0.3,0.86-0.39c0.23-0.06,0.59-0.12,1.06-0.18
		c0.97-0.11,1.68-0.25,2.13-0.41c0-0.16,0.01-0.27,0.01-0.31c0-0.49-0.11-0.83-0.34-1.03c-0.3-0.27-0.76-0.4-1.36-0.4
		c-0.56,0-0.98,0.1-1.25,0.3c-0.27,0.2-0.47,0.55-0.6,1.05l-1.17-0.16c0.11-0.5,0.28-0.9,0.53-1.21c0.24-0.31,0.6-0.54,1.06-0.71
		c0.46-0.17,0.99-0.25,1.6-0.25c0.6,0,1.09,0.07,1.47,0.21c0.38,0.14,0.65,0.32,0.83,0.54c0.18,0.21,0.3,0.49,0.37,0.81
		c0.04,0.2,0.06,0.57,0.06,1.1v1.6c0,1.11,0.03,1.82,0.08,2.11c0.05,0.29,0.15,0.58,0.3,0.85h-1.25
		C642.03,206.78,641.95,206.49,641.92,206.16z"/>
	<path class="st38" d="M644.88,207.03v-7.06h1.08v1c0.52-0.78,1.27-1.16,2.25-1.16c0.43,0,0.82,0.08,1.17,0.23
		c0.36,0.15,0.62,0.35,0.8,0.6c0.18,0.25,0.3,0.54,0.37,0.88c0.04,0.22,0.07,0.61,0.07,1.16v4.34h-1.2v-4.29
		c0-0.49-0.05-0.85-0.14-1.09c-0.09-0.24-0.26-0.43-0.49-0.58c-0.24-0.14-0.51-0.22-0.83-0.22c-0.51,0-0.95,0.16-1.32,0.48
		c-0.37,0.32-0.56,0.94-0.56,1.84v3.86H644.88z"/>
	<path class="st38" d="M653.22,203.38c0,0.93,0.18,1.6,0.55,2.03c0.37,0.43,0.83,0.64,1.38,0.64c0.55,0,1.01-0.21,1.38-0.63
		c0.37-0.42,0.56-1.09,0.56-1.99c0-0.86-0.19-1.51-0.57-1.95c-0.38-0.44-0.85-0.66-1.39-0.66c-0.53,0-0.98,0.22-1.36,0.65
		C653.41,201.88,653.22,202.52,653.22,203.38z M652.23,207.62l1.16,0.17c0.05,0.36,0.18,0.62,0.4,0.78c0.3,0.22,0.7,0.33,1.22,0.33
		c0.55,0,0.98-0.11,1.28-0.33c0.3-0.22,0.51-0.53,0.61-0.93c0.06-0.24,0.09-0.76,0.09-1.54c-0.52,0.62-1.17,0.92-1.95,0.92
		c-0.97,0-1.72-0.35-2.25-1.05c-0.53-0.7-0.8-1.54-0.8-2.52c0-0.67,0.12-1.29,0.37-1.86c0.24-0.57,0.6-1.01,1.06-1.32
		c0.46-0.31,1.01-0.47,1.63-0.47c0.83,0,1.52,0.34,2.06,1.01v-0.85h1.1v6.1c0,1.1-0.11,1.88-0.34,2.34
		c-0.22,0.46-0.58,0.82-1.06,1.09c-0.48,0.27-1.08,0.4-1.79,0.4c-0.84,0-1.52-0.19-2.04-0.57
		C652.46,208.95,652.21,208.38,652.23,207.62z"/>
	<rect x="659.99" y="197.29" class="st38" width="1.2" height="9.74"/>
	<path class="st38" d="M663.05,207.03v-7.06h1.2v7.06H663.05z M663.05,198.66v-1.38h1.2v1.38H663.05z"/>
	<path class="st38" d="M666.85,203.5c0,0.9,0.2,1.58,0.59,2.03c0.39,0.45,0.89,0.67,1.49,0.67c0.59,0,1.09-0.23,1.48-0.68
		c0.39-0.45,0.59-1.14,0.59-2.07c0-0.87-0.2-1.53-0.6-1.98c-0.4-0.45-0.89-0.67-1.48-0.67c-0.6,0-1.09,0.22-1.49,0.67
		C667.05,201.92,666.85,202.6,666.85,203.5z M665.62,203.5c0-1.31,0.36-2.28,1.09-2.91c0.61-0.52,1.35-0.78,2.22-0.78
		c0.97,0,1.76,0.32,2.38,0.95c0.62,0.64,0.93,1.51,0.93,2.64c0,0.91-0.14,1.62-0.41,2.14c-0.27,0.52-0.67,0.92-1.19,1.21
		c-0.52,0.29-1.09,0.43-1.7,0.43c-0.99,0-1.79-0.32-2.4-0.95C665.93,205.61,665.62,204.69,665.62,203.5z"/>
	<path class="st38" d="M673.64,207.03v-7.06h1.08v1c0.52-0.78,1.27-1.16,2.25-1.16c0.43,0,0.82,0.08,1.17,0.23
		c0.36,0.15,0.62,0.35,0.8,0.6c0.18,0.25,0.3,0.54,0.37,0.88c0.04,0.22,0.07,0.61,0.07,1.16v4.34h-1.2v-4.29
		c0-0.49-0.05-0.85-0.14-1.09c-0.09-0.24-0.26-0.43-0.49-0.58c-0.24-0.14-0.51-0.22-0.83-0.22c-0.51,0-0.95,0.16-1.32,0.48
		c-0.37,0.32-0.56,0.94-0.56,1.84v3.86H673.64z"/>
	<path class="st38" d="M492.85,219.79l1.29,0.33c-0.27,1.06-0.76,1.87-1.46,2.42c-0.7,0.56-1.56,0.83-2.58,0.83
		c-1.05,0-1.9-0.21-2.56-0.64c-0.66-0.43-1.16-1.05-1.5-1.86s-0.51-1.68-0.51-2.61c0-1.02,0.19-1.9,0.58-2.65
		c0.39-0.76,0.94-1.33,1.65-1.72c0.72-0.39,1.5-0.59,2.36-0.59c0.98,0,1.79,0.25,2.46,0.74c0.66,0.5,1.13,1.19,1.39,2.09l-1.27,0.3
		c-0.23-0.71-0.56-1.23-0.98-1.55c-0.43-0.32-0.97-0.49-1.62-0.49c-0.75,0-1.37,0.18-1.88,0.54c-0.5,0.36-0.86,0.84-1.06,1.45
		c-0.2,0.6-0.3,1.23-0.3,1.87c0,0.83,0.12,1.55,0.36,2.17c0.24,0.62,0.62,1.08,1.12,1.39c0.51,0.3,1.06,0.46,1.66,0.46
		c0.72,0,1.33-0.21,1.83-0.62C492.34,221.23,492.68,220.61,492.85,219.79z"/>
	<path class="st38" d="M496.48,219h3.94c-0.05-0.59-0.2-1.04-0.45-1.34c-0.38-0.46-0.88-0.69-1.48-0.69c-0.55,0-1.01,0.18-1.39,0.55
		C496.73,217.89,496.52,218.38,496.48,219z M500.41,220.93l1.24,0.15c-0.19,0.72-0.56,1.28-1.08,1.68c-0.53,0.4-1.2,0.6-2.02,0.6
		c-1.03,0-1.85-0.32-2.46-0.95c-0.61-0.64-0.91-1.53-0.91-2.68c0-1.19,0.31-2.11,0.92-2.76c0.61-0.66,1.41-0.98,2.38-0.98
		c0.94,0,1.72,0.32,2.31,0.96s0.9,1.55,0.9,2.71c0,0.07,0,0.18-0.01,0.32h-5.26c0.04,0.78,0.26,1.37,0.66,1.78
		c0.39,0.41,0.89,0.62,1.48,0.62c0.44,0,0.81-0.11,1.12-0.34C499.98,221.81,500.23,221.44,500.41,220.93z"/>
	<rect x="503.12" y="213.46" class="st38" width="1.2" height="9.74"/>
	<rect x="506.14" y="213.46" class="st38" width="1.2" height="9.74"/>
	<polygon class="st38" points="515.37,223.21 515.37,214.61 512.16,214.61 512.16,213.46 519.88,213.46 519.88,214.61 
		516.66,214.61 516.66,223.21 	"/>
	<path class="st38" d="M520.25,225.93l-0.13-1.12c0.26,0.07,0.49,0.11,0.68,0.11c0.27,0,0.48-0.04,0.64-0.13
		c0.16-0.09,0.29-0.21,0.39-0.37c0.08-0.12,0.2-0.42,0.37-0.89c0.02-0.07,0.06-0.16,0.11-0.29l-2.68-7.07h1.29l1.47,4.09
		c0.19,0.52,0.36,1.06,0.51,1.64c0.14-0.55,0.3-1.09,0.49-1.61l1.51-4.12h1.2l-2.69,7.18c-0.29,0.78-0.51,1.31-0.67,1.6
		c-0.21,0.4-0.46,0.68-0.73,0.87c-0.28,0.18-0.6,0.28-0.98,0.28C520.79,226.07,520.54,226.02,520.25,225.93z"/>
	<path class="st38" d="M528.19,219.72c0,0.91,0.18,1.58,0.55,2.01c0.37,0.43,0.81,0.65,1.34,0.65c0.53,0,0.99-0.22,1.37-0.67
		s0.57-1.15,0.57-2.09c0-0.9-0.19-1.57-0.56-2.02c-0.37-0.45-0.81-0.67-1.32-0.67c-0.51,0-0.96,0.24-1.35,0.71
		C528.39,218.12,528.19,218.81,528.19,219.72z M527.11,225.91v-9.76h1.09v0.92c0.26-0.36,0.55-0.63,0.87-0.81
		c0.32-0.18,0.72-0.27,1.18-0.27c0.6,0,1.13,0.16,1.6,0.47c0.46,0.31,0.81,0.75,1.04,1.31c0.24,0.56,0.35,1.18,0.35,1.86
		c0,0.72-0.13,1.37-0.39,1.95c-0.26,0.58-0.63,1.02-1.13,1.33c-0.49,0.31-1.01,0.46-1.56,0.46c-0.4,0-0.76-0.08-1.07-0.25
		c-0.32-0.17-0.58-0.38-0.78-0.64v3.44H527.11z"/>
	<path class="st38" d="M535.58,219h3.94c-0.05-0.59-0.2-1.04-0.45-1.34c-0.38-0.46-0.88-0.69-1.48-0.69c-0.55,0-1.01,0.18-1.39,0.55
		C535.83,217.89,535.62,218.38,535.58,219z M539.51,220.93l1.24,0.15c-0.19,0.72-0.56,1.28-1.08,1.68c-0.53,0.4-1.2,0.6-2.02,0.6
		c-1.03,0-1.85-0.32-2.46-0.95c-0.61-0.64-0.91-1.53-0.91-2.68c0-1.19,0.31-2.11,0.92-2.76c0.61-0.66,1.41-0.98,2.38-0.98
		c0.94,0,1.72,0.32,2.31,0.96c0.6,0.64,0.9,1.55,0.9,2.71c0,0.07,0,0.18-0.01,0.32h-5.26c0.04,0.78,0.26,1.37,0.66,1.78
		c0.39,0.41,0.89,0.62,1.48,0.62c0.44,0,0.81-0.11,1.12-0.34C539.08,221.81,539.33,221.44,539.51,220.93z"/>
	<path class="st38" d="M547.18,219.21h3.3l-1.02-2.7c-0.31-0.82-0.54-1.49-0.69-2.02c-0.12,0.63-0.3,1.25-0.53,1.86L547.18,219.21z
		 M544.37,223.21l3.74-9.74h1.39l3.99,9.74h-1.47l-1.14-2.95h-4.07l-1.07,2.95H544.37z"/>
	<path class="st38" d="M555.45,219.63c0,0.85,0.12,1.46,0.35,1.83c0.38,0.62,0.89,0.92,1.53,0.92c0.52,0,0.97-0.23,1.35-0.68
		c0.38-0.45,0.57-1.13,0.57-2.03c0-0.92-0.18-1.6-0.55-2.04c-0.37-0.44-0.81-0.66-1.33-0.66c-0.52,0-0.98,0.23-1.36,0.68
		C555.64,218.11,555.45,218.77,555.45,219.63z M555.47,223.21h-1.11v-9.74h1.2v3.48c0.51-0.63,1.15-0.95,1.94-0.95
		c0.43,0,0.84,0.09,1.23,0.26c0.39,0.17,0.71,0.42,0.96,0.74c0.25,0.32,0.45,0.7,0.59,1.15c0.14,0.45,0.21,0.93,0.21,1.44
		c0,1.21-0.3,2.14-0.9,2.81c-0.6,0.66-1.32,0.99-2.15,0.99c-0.83,0-1.49-0.35-1.96-1.04V223.21z"/>
	<rect x="561.9" y="213.46" class="st38" width="1.2" height="9.74"/>
	<path class="st38" d="M569.46,219.66c-0.44,0.18-1.09,0.33-1.95,0.45c-0.49,0.07-0.84,0.15-1.04,0.24
		c-0.2,0.09-0.36,0.22-0.47,0.39c-0.11,0.17-0.17,0.36-0.17,0.57c0,0.32,0.12,0.58,0.36,0.8c0.24,0.21,0.6,0.32,1.06,0.32
		c0.46,0,0.87-0.1,1.23-0.3c0.36-0.2,0.62-0.48,0.79-0.83c0.13-0.27,0.19-0.67,0.19-1.2V219.66z M569.56,222.34
		c-0.44,0.38-0.87,0.64-1.28,0.8c-0.41,0.15-0.85,0.23-1.32,0.23c-0.78,0-1.37-0.19-1.79-0.57c-0.42-0.38-0.63-0.86-0.63-1.45
		c0-0.35,0.08-0.66,0.24-0.95c0.16-0.29,0.36-0.52,0.62-0.69s0.54-0.3,0.86-0.39c0.23-0.06,0.59-0.12,1.06-0.18
		c0.97-0.11,1.68-0.25,2.13-0.41c0-0.16,0.01-0.27,0.01-0.31c0-0.49-0.11-0.83-0.34-1.03c-0.3-0.27-0.76-0.4-1.36-0.4
		c-0.56,0-0.98,0.1-1.25,0.3c-0.27,0.2-0.47,0.55-0.6,1.05l-1.17-0.16c0.11-0.5,0.28-0.9,0.53-1.21c0.24-0.31,0.6-0.54,1.06-0.71
		c0.46-0.17,0.99-0.25,1.6-0.25c0.6,0,1.09,0.07,1.47,0.21c0.38,0.14,0.65,0.32,0.83,0.54c0.18,0.21,0.3,0.49,0.37,0.81
		c0.04,0.2,0.06,0.57,0.06,1.1v1.6c0,1.11,0.03,1.82,0.08,2.11c0.05,0.29,0.15,0.58,0.3,0.85h-1.25
		C569.68,222.96,569.6,222.67,569.56,222.34z"/>
	<path class="st38" d="M575.14,222.14l0.17,1.06c-0.34,0.07-0.64,0.11-0.9,0.11c-0.43,0-0.77-0.07-1.01-0.21
		c-0.24-0.14-0.41-0.32-0.5-0.54c-0.1-0.22-0.15-0.69-0.15-1.41v-4.06h-0.88v-0.93h0.88v-1.75l1.19-0.72v2.46h1.2v0.93h-1.2v4.13
		c0,0.34,0.02,0.56,0.06,0.66c0.04,0.1,0.11,0.17,0.21,0.23c0.1,0.06,0.23,0.09,0.41,0.09
		C574.74,222.18,574.92,222.17,575.14,222.14z"/>
	<path class="st38" d="M577.21,219h3.94c-0.05-0.59-0.2-1.04-0.45-1.34c-0.38-0.46-0.88-0.69-1.48-0.69c-0.55,0-1.01,0.18-1.39,0.55
		C577.46,217.89,577.25,218.38,577.21,219z M581.14,220.93l1.24,0.15c-0.19,0.72-0.56,1.28-1.08,1.68c-0.53,0.4-1.2,0.6-2.02,0.6
		c-1.03,0-1.85-0.32-2.46-0.95c-0.61-0.64-0.91-1.53-0.91-2.68c0-1.19,0.31-2.11,0.92-2.76c0.61-0.66,1.41-0.98,2.38-0.98
		c0.94,0,1.72,0.32,2.31,0.96s0.9,1.55,0.9,2.71c0,0.07,0,0.18-0.01,0.32h-5.26c0.04,0.78,0.26,1.37,0.66,1.78
		c0.39,0.41,0.89,0.62,1.48,0.62c0.44,0,0.81-0.11,1.12-0.34C580.71,221.81,580.96,221.44,581.14,220.93z"/>
	<path class="st38" d="M584.67,219.69c0,0.9,0.19,1.58,0.57,2.03c0.38,0.45,0.83,0.67,1.35,0.67c0.52,0,0.97-0.21,1.33-0.64
		c0.37-0.43,0.55-1.08,0.55-1.96c0-0.97-0.19-1.68-0.56-2.13c-0.37-0.45-0.83-0.68-1.37-0.68c-0.53,0-0.98,0.22-1.33,0.65
		C584.85,218.06,584.67,218.75,584.67,219.69z M588.46,223.21v-0.89c-0.45,0.7-1.11,1.05-1.97,1.05c-0.56,0-1.08-0.16-1.55-0.47
		c-0.47-0.31-0.84-0.74-1.1-1.3c-0.26-0.56-0.39-1.19-0.39-1.92c0-0.7,0.12-1.34,0.35-1.92c0.24-0.57,0.59-1.01,1.06-1.32
		c0.47-0.31,1-0.46,1.58-0.46c0.43,0,0.8,0.09,1.14,0.27c0.33,0.18,0.6,0.41,0.81,0.7v-3.49h1.19v9.74H588.46z"/>
	<line class="st37" x1="355.09" y1="162.18" x2="352.12" y2="162.18"/>
	<path class="st38" d="M332.02,162.24c0,1.6,0.19,2.66,0.56,3.19c0.37,0.53,0.84,0.79,1.38,0.79c0.55,0,1.01-0.27,1.39-0.8
		s0.56-1.6,0.56-3.19c0-1.6-0.19-2.67-0.56-3.2c-0.37-0.53-0.84-0.79-1.4-0.79c-0.55,0-0.99,0.23-1.32,0.7
		C332.22,159.55,332.02,160.64,332.02,162.24z M330.79,162.24c0-1.15,0.12-2.08,0.36-2.78c0.24-0.7,0.59-1.24,1.05-1.62
		c0.47-0.38,1.06-0.57,1.77-0.57c0.52,0,0.98,0.11,1.38,0.32c0.39,0.21,0.72,0.51,0.98,0.91c0.26,0.4,0.46,0.88,0.61,1.45
		c0.15,0.57,0.22,1.34,0.22,2.3c0,1.14-0.12,2.07-0.35,2.77c-0.23,0.7-0.58,1.24-1.05,1.63c-0.47,0.38-1.06,0.57-1.77,0.57
		c-0.94,0-1.68-0.34-2.21-1.01C331.11,165.39,330.79,164.07,330.79,162.24z"/>
	<rect x="339.03" y="165.68" class="st38" width="1.36" height="1.36"/>
	<path class="st38" d="M343.46,163.89c0,0.41,0.09,0.81,0.26,1.18c0.17,0.38,0.42,0.66,0.73,0.86c0.31,0.2,0.65,0.3,0.99,0.3
		c0.5,0,0.94-0.2,1.3-0.61c0.36-0.41,0.55-0.96,0.55-1.66c0-0.67-0.18-1.2-0.54-1.59c-0.36-0.39-0.81-0.58-1.35-0.58
		c-0.54,0-1,0.19-1.38,0.58C343.65,162.75,343.46,163.26,343.46,163.89z M348.34,159.69l-1.19,0.09c-0.11-0.47-0.26-0.81-0.45-1.02
		c-0.32-0.34-0.72-0.51-1.2-0.51c-0.38,0-0.72,0.11-1,0.32c-0.38,0.28-0.67,0.68-0.89,1.2c-0.22,0.53-0.33,1.28-0.34,2.25
		c0.29-0.44,0.64-0.76,1.06-0.98s0.85-0.32,1.31-0.32c0.8,0,1.48,0.29,2.04,0.88c0.56,0.59,0.84,1.35,0.84,2.28
		c0,0.61-0.13,1.18-0.4,1.71c-0.26,0.52-0.63,0.93-1.09,1.21c-0.46,0.28-0.98,0.42-1.57,0.42c-1,0-1.81-0.37-2.44-1.1
		c-0.63-0.73-0.94-1.94-0.94-3.63c0-1.88,0.35-3.25,1.04-4.11c0.61-0.74,1.42-1.12,2.45-1.12c0.77,0,1.4,0.21,1.88,0.64
		C347.95,158.34,348.25,158.93,348.34,159.69z"/>
	<line class="st37" x1="355.09" y1="104.19" x2="352.12" y2="104.19"/>
	<path class="st38" d="M332.02,104.26c0,1.6,0.19,2.66,0.56,3.19c0.37,0.53,0.84,0.79,1.38,0.79c0.55,0,1.01-0.27,1.39-0.8
		s0.56-1.6,0.56-3.19c0-1.6-0.19-2.67-0.56-3.2c-0.37-0.53-0.84-0.79-1.4-0.79c-0.55,0-0.99,0.23-1.32,0.7
		C332.22,101.56,332.02,102.66,332.02,104.26z M330.79,104.26c0-1.15,0.12-2.08,0.36-2.78c0.24-0.7,0.59-1.24,1.05-1.62
		c0.47-0.38,1.06-0.57,1.77-0.57c0.52,0,0.98,0.11,1.38,0.32c0.39,0.21,0.72,0.51,0.98,0.91c0.26,0.4,0.46,0.88,0.61,1.45
		c0.15,0.57,0.22,1.34,0.22,2.3c0,1.14-0.12,2.07-0.35,2.77c-0.23,0.7-0.58,1.24-1.05,1.63c-0.47,0.38-1.06,0.57-1.77,0.57
		c-0.94,0-1.68-0.34-2.21-1.01C331.11,107.41,330.79,106.09,330.79,104.26z"/>
	<rect x="339.03" y="107.7" class="st38" width="1.36" height="1.36"/>
	<path class="st38" d="M343.35,106.25c0,0.34,0.08,0.67,0.24,0.99s0.4,0.57,0.72,0.74c0.32,0.17,0.66,0.26,1.03,0.26
		c0.57,0,1.04-0.18,1.41-0.55c0.37-0.37,0.56-0.84,0.56-1.4c0-0.58-0.19-1.05-0.57-1.43s-0.86-0.57-1.44-0.57
		c-0.56,0-1.03,0.19-1.4,0.56C343.54,105.23,343.35,105.69,343.35,106.25z M343.74,101.75c0,0.46,0.15,0.84,0.44,1.13
		c0.3,0.29,0.68,0.44,1.16,0.44c0.46,0,0.84-0.14,1.13-0.43c0.29-0.29,0.44-0.65,0.44-1.07c0-0.44-0.15-0.81-0.46-1.11
		c-0.3-0.3-0.68-0.45-1.13-0.45c-0.46,0-0.84,0.15-1.14,0.44C343.89,101,343.74,101.35,343.74,101.75z M343.98,103.78
		c-0.5-0.18-0.86-0.44-1.1-0.78c-0.24-0.34-0.36-0.74-0.36-1.21c0-0.71,0.25-1.3,0.76-1.79c0.51-0.48,1.19-0.73,2.03-0.73
		c0.85,0,1.54,0.25,2.05,0.74c0.52,0.49,0.78,1.09,0.78,1.8c0,0.45-0.12,0.85-0.36,1.18c-0.24,0.33-0.6,0.59-1.08,0.77
		c0.6,0.19,1.05,0.51,1.37,0.94c0.31,0.43,0.47,0.95,0.47,1.55c0,0.83-0.29,1.53-0.88,2.1c-0.59,0.57-1.36,0.85-2.32,0.85
		c-0.96,0-1.74-0.28-2.33-0.85c-0.59-0.57-0.88-1.28-0.88-2.13c0-0.63,0.16-1.16,0.48-1.59
		C342.93,104.23,343.38,103.94,343.98,103.78z"/>
	<line class="st37" x1="355.09" y1="46.21" x2="352.12" y2="46.21"/>
	<path class="st38" d="M335.29,51.08h-1.2v-7.62c-0.29,0.27-0.67,0.55-1.13,0.82c-0.47,0.28-0.89,0.48-1.26,0.62v-1.16
		c0.67-0.31,1.25-0.7,1.75-1.14c0.5-0.45,0.85-0.88,1.06-1.3h0.77V51.08z"/>
	<rect x="339.03" y="49.72" class="st38" width="1.36" height="1.36"/>
	<path class="st38" d="M343.37,46.28c0,1.6,0.19,2.66,0.56,3.19c0.37,0.53,0.84,0.79,1.38,0.79c0.55,0,1.01-0.27,1.39-0.8
		s0.56-1.6,0.56-3.19c0-1.6-0.19-2.67-0.56-3.2c-0.37-0.53-0.84-0.79-1.4-0.79c-0.55,0-0.99,0.23-1.32,0.7
		C343.57,43.58,343.37,44.68,343.37,46.28z M342.14,46.28c0-1.15,0.12-2.08,0.36-2.78c0.24-0.7,0.59-1.24,1.05-1.62
		c0.47-0.38,1.06-0.57,1.77-0.57c0.52,0,0.98,0.11,1.38,0.32c0.39,0.21,0.72,0.51,0.98,0.91c0.26,0.4,0.46,0.88,0.61,1.45
		c0.15,0.57,0.22,1.34,0.22,2.3c0,1.14-0.12,2.07-0.35,2.77c-0.23,0.7-0.58,1.24-1.05,1.63c-0.47,0.38-1.06,0.57-1.77,0.57
		c-0.94,0-1.68-0.34-2.21-1.01C342.46,49.43,342.14,48.11,342.14,46.28z"/>
	<path class="st38" d="M319.95,169.42v-3.3l-2.7,1.02c-0.82,0.31-1.49,0.54-2.02,0.69c0.63,0.12,1.25,0.3,1.86,0.53L319.95,169.42z
		 M323.95,172.23l-9.74-3.74v-1.39l9.74-3.99v1.47l-2.95,1.14v4.07l2.95,1.07L323.95,172.23z"/>
	<path class="st38" d="M321.37,157.63l0.15-1.18c0.81,0.13,1.45,0.46,1.91,0.99c0.46,0.53,0.69,1.18,0.69,1.95
		c0,0.97-0.32,1.74-0.95,2.33c-0.63,0.59-1.54,0.88-2.72,0.88c-0.76,0-1.43-0.13-2-0.38c-0.57-0.25-1-0.64-1.29-1.15
		c-0.29-0.52-0.43-1.08-0.43-1.69c0-0.77,0.19-1.39,0.58-1.88c0.39-0.49,0.94-0.8,1.65-0.94l0.18,1.16
		c-0.47,0.11-0.83,0.31-1.07,0.59c-0.24,0.28-0.36,0.62-0.36,1.02c0,0.6,0.22,1.09,0.65,1.47c0.43,0.38,1.11,0.56,2.05,0.56
		c0.95,0,1.64-0.18,2.07-0.54c0.43-0.36,0.64-0.84,0.64-1.42c0-0.47-0.14-0.86-0.43-1.18S321.97,157.72,321.37,157.63z"/>
	<path class="st38" d="M321.37,150.83l0.15-1.18c0.81,0.13,1.45,0.46,1.91,0.99c0.46,0.53,0.69,1.18,0.69,1.95
		c0,0.97-0.32,1.74-0.95,2.33c-0.63,0.59-1.54,0.88-2.72,0.88c-0.76,0-1.43-0.13-2-0.38c-0.57-0.25-1-0.64-1.29-1.15
		c-0.29-0.52-0.43-1.08-0.43-1.69c0-0.77,0.19-1.39,0.58-1.88c0.39-0.49,0.94-0.8,1.65-0.94l0.18,1.16
		c-0.47,0.11-0.83,0.31-1.07,0.59c-0.24,0.28-0.36,0.62-0.36,1.02c0,0.6,0.22,1.09,0.65,1.47c0.43,0.38,1.11,0.56,2.05,0.56
		c0.95,0,1.64-0.18,2.07-0.54c0.43-0.36,0.64-0.84,0.64-1.42c0-0.47-0.14-0.86-0.43-1.18S321.97,150.91,321.37,150.83z"/>
	<path class="st38" d="M323.95,144h-1.04c0.8,0.55,1.2,1.3,1.2,2.24c0,0.42-0.08,0.81-0.24,1.17c-0.16,0.36-0.36,0.63-0.6,0.8
		c-0.24,0.17-0.54,0.3-0.89,0.37c-0.23,0.05-0.61,0.07-1.12,0.07h-4.37v-1.2h3.92c0.62,0,1.04-0.02,1.26-0.07
		c0.31-0.08,0.56-0.23,0.74-0.48c0.18-0.24,0.27-0.55,0.27-0.9c0-0.36-0.09-0.7-0.28-1.01c-0.18-0.31-0.43-0.54-0.75-0.67
		c-0.32-0.13-0.78-0.2-1.38-0.2h-3.78v-1.2h7.06V144z"/>
	<path class="st38" d="M323.95,141.07h-7.06v-1.08h1.07c-0.5-0.28-0.83-0.53-0.99-0.76c-0.16-0.23-0.24-0.49-0.24-0.77
		c0-0.4,0.13-0.81,0.38-1.23l1.11,0.41c-0.17,0.29-0.26,0.58-0.26,0.88c0,0.26,0.08,0.5,0.24,0.71c0.16,0.21,0.38,0.36,0.66,0.44
		c0.43,0.13,0.89,0.2,1.4,0.2h3.7V141.07z"/>
	<path class="st38" d="M320.41,132.02c0.18,0.44,0.33,1.09,0.45,1.95c0.07,0.49,0.15,0.84,0.24,1.04c0.09,0.2,0.22,0.36,0.39,0.47
		c0.17,0.11,0.36,0.17,0.57,0.17c0.32,0,0.58-0.12,0.8-0.36c0.21-0.24,0.32-0.6,0.32-1.06c0-0.46-0.1-0.87-0.3-1.23
		c-0.2-0.36-0.48-0.62-0.83-0.79c-0.27-0.13-0.67-0.19-1.2-0.19H320.41z M323.08,131.92c0.38,0.44,0.64,0.87,0.8,1.28
		c0.15,0.41,0.23,0.85,0.23,1.32c0,0.78-0.19,1.37-0.57,1.79c-0.38,0.42-0.86,0.63-1.45,0.63c-0.35,0-0.66-0.08-0.95-0.24
		c-0.29-0.16-0.52-0.36-0.69-0.62c-0.17-0.26-0.3-0.54-0.39-0.86c-0.06-0.23-0.12-0.59-0.18-1.06c-0.11-0.97-0.25-1.68-0.41-2.13
		c-0.16,0-0.27-0.01-0.31-0.01c-0.49,0-0.83,0.11-1.03,0.34c-0.27,0.3-0.4,0.76-0.4,1.36c0,0.56,0.1,0.98,0.3,1.25
		c0.2,0.27,0.55,0.47,1.05,0.6l-0.16,1.17c-0.5-0.11-0.9-0.28-1.21-0.53c-0.31-0.24-0.54-0.6-0.71-1.06
		c-0.17-0.46-0.25-0.99-0.25-1.6c0-0.6,0.07-1.09,0.21-1.47c0.14-0.38,0.32-0.65,0.54-0.83c0.21-0.18,0.49-0.3,0.81-0.37
		c0.2-0.04,0.57-0.06,1.1-0.06h1.6c1.11,0,1.82-0.03,2.11-0.08c0.29-0.05,0.58-0.15,0.85-0.3v1.25
		C323.7,131.8,323.42,131.88,323.08,131.92z"/>
	<path class="st38" d="M321.37,124.35l0.15-1.18c0.81,0.13,1.45,0.46,1.91,0.99c0.46,0.53,0.69,1.18,0.69,1.95
		c0,0.97-0.32,1.74-0.95,2.33c-0.63,0.59-1.54,0.88-2.72,0.88c-0.76,0-1.43-0.13-2-0.38c-0.57-0.25-1-0.64-1.29-1.15
		c-0.29-0.52-0.43-1.08-0.43-1.69c0-0.77,0.19-1.39,0.58-1.88c0.39-0.49,0.94-0.8,1.65-0.94l0.18,1.16
		c-0.47,0.11-0.83,0.31-1.07,0.59c-0.24,0.28-0.36,0.62-0.36,1.02c0,0.6,0.22,1.09,0.65,1.47c0.43,0.38,1.11,0.56,2.05,0.56
		c0.95,0,1.64-0.18,2.07-0.54c0.43-0.36,0.64-0.84,0.64-1.42c0-0.47-0.14-0.86-0.43-1.18C322.41,124.63,321.97,124.43,321.37,124.35
		z"/>
	<path class="st38" d="M326.67,122.2l-1.12,0.13c0.07-0.26,0.11-0.49,0.11-0.68c0-0.27-0.04-0.48-0.13-0.64
		c-0.09-0.16-0.21-0.29-0.37-0.39c-0.12-0.08-0.42-0.2-0.89-0.37c-0.07-0.02-0.16-0.06-0.29-0.11l-7.07,2.68v-1.29l4.09-1.47
		c0.52-0.19,1.06-0.36,1.64-0.51c-0.55-0.14-1.09-0.3-1.61-0.49l-4.12-1.51v-1.2l7.18,2.69c0.78,0.29,1.31,0.51,1.6,0.67
		c0.4,0.21,0.68,0.46,0.87,0.73c0.18,0.28,0.28,0.6,0.28,0.98C326.82,121.66,326.77,121.92,326.67,122.2z"/>
	<path class="st38" d="M320.42,110.78c0.9,0,1.58-0.2,2.03-0.59c0.45-0.39,0.67-0.89,0.67-1.49c0-0.59-0.23-1.09-0.68-1.48
		c-0.45-0.39-1.14-0.59-2.07-0.59c-0.87,0-1.53,0.2-1.98,0.6c-0.45,0.4-0.67,0.89-0.67,1.48c0,0.6,0.22,1.09,0.67,1.49
		C318.84,110.58,319.52,110.78,320.42,110.78z M320.42,112.01c-1.31,0-2.28-0.36-2.91-1.09c-0.52-0.61-0.78-1.35-0.78-2.22
		c0-0.97,0.32-1.76,0.95-2.38c0.64-0.62,1.51-0.93,2.64-0.93c0.91,0,1.62,0.14,2.14,0.41c0.52,0.27,0.92,0.67,1.21,1.19
		c0.29,0.52,0.43,1.09,0.43,1.7c0,0.99-0.32,1.79-0.95,2.4C322.53,111.7,321.62,112.01,320.42,112.01z"/>
	<path class="st38" d="M323.95,103.99h-7.06v-1.08h1c-0.78-0.52-1.16-1.27-1.16-2.25c0-0.43,0.08-0.82,0.23-1.17
		c0.15-0.36,0.35-0.62,0.6-0.8c0.25-0.18,0.54-0.3,0.88-0.37c0.22-0.04,0.61-0.07,1.16-0.07h4.34v1.2h-4.29
		c-0.49,0-0.85,0.05-1.09,0.14c-0.24,0.09-0.43,0.26-0.58,0.49c-0.14,0.24-0.22,0.51-0.22,0.83c0,0.51,0.16,0.95,0.48,1.32
		c0.32,0.37,0.94,0.56,1.84,0.56h3.86V103.99z"/>
	<polygon class="st38" points="323.95,90.25 315.36,90.25 315.36,93.46 314.21,93.46 314.21,85.73 315.36,85.73 315.36,88.96 
		323.95,88.96 	"/>
	<path class="st38" d="M319.75,85.17v-3.94c-0.59,0.05-1.04,0.2-1.34,0.45c-0.46,0.38-0.69,0.88-0.69,1.48
		c0,0.55,0.18,1.01,0.55,1.39C318.64,84.93,319.13,85.13,319.75,85.17z M321.68,81.25l0.15-1.24c0.72,0.19,1.28,0.56,1.68,1.08
		c0.4,0.53,0.6,1.2,0.6,2.02c0,1.03-0.32,1.85-0.95,2.46c-0.64,0.61-1.53,0.91-2.68,0.91c-1.19,0-2.11-0.31-2.76-0.92
		c-0.66-0.61-0.98-1.41-0.98-2.38c0-0.94,0.32-1.72,0.96-2.31s1.55-0.9,2.71-0.9c0.07,0,0.18,0,0.32,0.01v5.26
		c0.78-0.04,1.37-0.26,1.78-0.66c0.41-0.39,0.62-0.89,0.62-1.48c0-0.44-0.11-0.81-0.34-1.12C322.55,81.67,322.18,81.43,321.68,81.25
		z"/>
	<path class="st38" d="M321.85,78.99l-0.19-1.18c0.47-0.07,0.84-0.25,1.09-0.56c0.25-0.3,0.38-0.73,0.38-1.27
		c0-0.55-0.11-0.96-0.33-1.22c-0.22-0.27-0.49-0.4-0.79-0.4c-0.27,0-0.48,0.12-0.64,0.35c-0.11,0.16-0.24,0.57-0.4,1.22
		c-0.22,0.88-0.41,1.48-0.58,1.82c-0.16,0.34-0.38,0.6-0.67,0.77c-0.29,0.17-0.6,0.26-0.95,0.26c-0.31,0-0.6-0.07-0.87-0.21
		c-0.27-0.14-0.49-0.34-0.67-0.59c-0.14-0.19-0.25-0.44-0.35-0.76c-0.1-0.32-0.14-0.67-0.14-1.04c0-0.55,0.08-1.04,0.24-1.46
		c0.16-0.42,0.38-0.73,0.65-0.93c0.27-0.2,0.64-0.34,1.09-0.41l0.16,1.17c-0.36,0.05-0.65,0.21-0.85,0.46
		c-0.2,0.26-0.31,0.62-0.31,1.08c0,0.55,0.09,0.94,0.27,1.18c0.18,0.24,0.39,0.35,0.64,0.35c0.15,0,0.29-0.05,0.42-0.15
		c0.13-0.1,0.23-0.25,0.32-0.46c0.04-0.12,0.15-0.47,0.3-1.06c0.23-0.85,0.41-1.44,0.56-1.77c0.14-0.33,0.35-0.6,0.63-0.79
		c0.27-0.19,0.61-0.29,1.02-0.29c0.4,0,0.77,0.12,1.13,0.35c0.35,0.23,0.62,0.57,0.82,1.01c0.19,0.44,0.29,0.93,0.29,1.49
		c0,0.92-0.19,1.62-0.57,2.1C323.16,78.55,322.59,78.85,321.85,78.99z"/>
	<path class="st38" d="M322.88,69.09l1.06-0.17c0.07,0.34,0.11,0.64,0.11,0.9c0,0.43-0.07,0.77-0.21,1.01
		c-0.14,0.24-0.32,0.41-0.54,0.5c-0.22,0.1-0.69,0.15-1.41,0.15h-4.06v0.88h-0.93v-0.88h-1.75l-0.72-1.19h2.46v-1.2h0.93v1.2h4.13
		c0.34,0,0.56-0.02,0.66-0.06c0.1-0.04,0.17-0.11,0.23-0.21s0.09-0.23,0.09-0.41C322.93,69.48,322.91,69.31,322.88,69.09z"/>
	<path class="st38" d="M321.85,68.4l-0.19-1.18c0.47-0.07,0.84-0.25,1.09-0.56c0.25-0.3,0.38-0.73,0.38-1.27
		c0-0.55-0.11-0.96-0.33-1.22c-0.22-0.27-0.49-0.4-0.79-0.4c-0.27,0-0.48,0.12-0.64,0.35c-0.11,0.16-0.24,0.57-0.4,1.22
		c-0.22,0.88-0.41,1.48-0.58,1.82c-0.16,0.34-0.38,0.6-0.67,0.77c-0.29,0.17-0.6,0.26-0.95,0.26c-0.31,0-0.6-0.07-0.87-0.21
		c-0.27-0.14-0.49-0.34-0.67-0.59c-0.14-0.19-0.25-0.44-0.35-0.76c-0.1-0.32-0.14-0.67-0.14-1.04c0-0.55,0.08-1.04,0.24-1.46
		c0.16-0.42,0.38-0.73,0.65-0.93c0.27-0.2,0.64-0.34,1.09-0.41l0.16,1.17c-0.36,0.05-0.65,0.21-0.85,0.46
		c-0.2,0.26-0.31,0.62-0.31,1.08c0,0.55,0.09,0.94,0.27,1.18c0.18,0.24,0.39,0.35,0.64,0.35c0.15,0,0.29-0.05,0.42-0.15
		c0.13-0.1,0.23-0.25,0.32-0.46c0.04-0.12,0.15-0.47,0.3-1.06c0.23-0.85,0.41-1.44,0.56-1.77c0.14-0.33,0.35-0.6,0.63-0.79
		c0.27-0.19,0.61-0.29,1.02-0.29c0.4,0,0.77,0.12,1.13,0.35c0.35,0.23,0.62,0.57,0.82,1.01c0.19,0.44,0.29,0.93,0.29,1.49
		c0,0.92-0.19,1.62-0.57,2.1S322.59,68.27,321.85,68.4z"/>
	<path class="st38" d="M319.75,60.21v-3.94c-0.59,0.05-1.04,0.2-1.34,0.45c-0.46,0.38-0.69,0.88-0.69,1.48
		c0,0.55,0.18,1.01,0.55,1.39C318.64,59.97,319.13,60.17,319.75,60.21z M321.68,56.28l0.15-1.24c0.72,0.19,1.28,0.56,1.68,1.08
		c0.4,0.53,0.6,1.2,0.6,2.02c0,1.03-0.32,1.85-0.95,2.46c-0.64,0.61-1.53,0.91-2.68,0.91c-1.19,0-2.11-0.31-2.76-0.92
		c-0.66-0.61-0.98-1.41-0.98-2.38c0-0.94,0.32-1.72,0.96-2.31s1.55-0.9,2.71-0.9c0.07,0,0.18,0,0.32,0.01v5.26
		c0.78-0.04,1.37-0.26,1.78-0.66c0.41-0.39,0.62-0.89,0.62-1.48c0-0.44-0.11-0.81-0.34-1.12C322.55,56.71,322.18,56.47,321.68,56.28
		z"/>
	<path class="st38" d="M322.88,50.93l1.06-0.17c0.07,0.34,0.11,0.64,0.11,0.9c0,0.43-0.07,0.77-0.21,1.01
		c-0.14,0.24-0.32,0.41-0.54,0.5c-0.22,0.1-0.69,0.15-1.41,0.15h-4.06v0.88h-0.93v-0.88h-1.75l-0.72-1.19h2.46v-1.2h0.93v1.2h4.13
		c0.34,0,0.56-0.02,0.66-0.06c0.1-0.04,0.17-0.11,0.23-0.21c0.06-0.1,0.09-0.23,0.09-0.41C322.93,51.33,322.91,51.15,322.88,50.93z"
		/>
	<line class="st39" x1="355.09" y1="191.17" x2="355.09" y2="31.71"/>
	<line class="st39" x1="720.3" y1="191.17" x2="720.3" y2="31.71"/>
	<line class="st39" x1="355.09" y1="191.17" x2="720.3" y2="191.17"/>
	<line class="st39" x1="355.09" y1="31.71" x2="720.3" y2="31.71"/>
	<path class="st38" d="M357.84,25.23h2.91c0.5,0,0.85-0.02,1.05-0.06c0.36-0.06,0.66-0.17,0.89-0.32c0.24-0.15,0.44-0.37,0.59-0.65
		c0.15-0.28,0.23-0.61,0.23-0.99c0-0.44-0.11-0.81-0.33-1.14c-0.22-0.32-0.53-0.55-0.93-0.68c-0.4-0.13-0.97-0.2-1.71-0.2h-2.7
		V25.23z M357.84,19.83h2.53c0.69,0,1.18-0.05,1.48-0.14c0.39-0.12,0.69-0.31,0.89-0.58c0.2-0.27,0.3-0.61,0.3-1.02
		c0-0.39-0.09-0.73-0.28-1.02c-0.19-0.3-0.45-0.5-0.8-0.61c-0.35-0.11-0.94-0.16-1.78-0.16h-2.34V19.83z M356.29,26.61V14.92h4.39
		c0.89,0,1.61,0.12,2.15,0.35c0.54,0.24,0.96,0.6,1.27,1.09c0.31,0.49,0.46,1.01,0.46,1.54c0,0.5-0.14,0.97-0.41,1.41
		c-0.27,0.44-0.68,0.8-1.23,1.07c0.71,0.21,1.25,0.56,1.63,1.06c0.38,0.5,0.57,1.09,0.57,1.77c0,0.55-0.12,1.06-0.35,1.53
		c-0.23,0.47-0.52,0.83-0.86,1.09c-0.34,0.26-0.77,0.45-1.28,0.58c-0.51,0.13-1.14,0.19-1.88,0.19H356.29z"/>
</g>
</svg>
